 <svg version="1.0" xmlns="http://www.w3.org/2000/svg" width="700.000000pt" height="500.000000pt" viewBox="0 0 700.000000 500.000000" preserveAspectRatio="xMidYMid meet">
<metadata>
Created by potrace 1.12, written by Peter Selinger 2001-2015
</metadata>
<g transform="translate(0.000000,500.000000) scale(0.100000,-0.100000)" fill="#000000" stroke="none">
<path d="M4295 4970 c-38 -4 -101 -11 -140 -15 -38 -4 -92 -13 -120 -20 -27
-7 -77 -18 -110 -25 -33 -7 -76 -18 -95 -25 -19 -7 -81 -28 -138 -45 -56 -18
-105 -37 -108 -41 -3 -5 -12 -9 -20 -9 -41 0 -422 -207 -472 -257 -8 -7 -23
-18 -34 -24 -50 -27 -222 -176 -329 -286 -132 -135 -284 -335 -367 -483 -93
-165 -146 -285 -202 -455 -16 -49 -34 -104 -40 -121 -9 -29 -23 -85 -35 -149
-3 -16 -12 -64 -20 -105 -28 -149 -38 -302 -30 -466 4 -88 8 -181 9 -208 l1
-50 -45 -13 c-44 -12 -300 -77 -370 -93 -33 -8 -66 -17 -195 -56 -27 -8 -63
-19 -80 -24 -16 -4 -55 -16 -85 -25 -30 -9 -74 -20 -98 -25 -24 -5 -47 -12
-53 -15 -5 -3 -32 -10 -61 -15 -29 -5 -84 -17 -123 -26 -38 -9 -92 -20 -120
-24 -27 -4 -99 -17 -160 -29 -91 -17 -149 -21 -337 -21 -141 0 -229 4 -233 10
-7 12 -85 14 -85 3 0 -16 93 -48 205 -73 22 -5 53 -14 70 -20 23 -9 26 -13 15
-20 -8 -6 -27 -10 -42 -10 -18 0 -28 -5 -28 -15 0 -11 12 -15 47 -15 26 0 60
-4 77 -9 133 -41 153 -43 282 -38 135 6 444 32 504 42 19 4 69 12 110 20 41 7
134 16 205 20 254 12 321 22 481 72 44 14 89 23 100 21 18 -4 -21 -25 -153
-84 -24 -11 -43 -23 -43 -27 0 -15 30 -19 46 -6 9 7 42 16 73 20 31 4 84 12
119 19 34 7 68 10 75 7 6 -2 20 -32 30 -65 10 -34 22 -64 28 -67 5 -4 9 -13 9
-22 0 -27 123 -273 195 -388 101 -164 196 -286 325 -418 106 -109 278 -259
328 -286 11 -6 26 -17 34 -24 48 -47 432 -257 470 -257 8 0 18 -4 24 -9 12
-13 264 -95 339 -111 33 -7 76 -17 95 -22 158 -43 583 -58 815 -27 114 15 326
59 379 79 11 4 46 15 76 25 30 9 64 20 75 25 209 85 269 112 325 146 19 11 62
36 95 54 197 109 474 347 641 550 149 182 219 291 320 500 59 121 72 152 106
245 30 81 40 111 48 145 5 19 16 62 25 95 17 62 21 81 51 280 25 161 25 432 0
615 -10 74 -20 155 -23 180 -3 25 -9 50 -13 55 -5 6 -11 28 -15 50 -4 22 -10
51 -14 65 -5 14 -16 52 -26 85 -63 218 -210 514 -349 705 -197 272 -452 510
-721 672 -44 27 -87 53 -95 58 -40 25 -241 120 -253 120 -7 0 -17 4 -22 9 -6
5 -55 23 -110 41 -55 18 -116 38 -135 45 -19 7 -57 17 -85 23 -114 24 -204 41
-275 52 -93 14 -450 21 -545 10z m559 -275 c31 -8 67 -15 80 -15 20 0 117 -23
211 -50 270 -78 596 -253 804 -433 47 -41 230 -225 256 -257 11 -14 46 -56 76
-95 93 -116 211 -320 287 -495 8 -19 19 -43 23 -52 5 -10 9 -23 9 -29 0 -6 6
-25 14 -42 8 -18 16 -41 19 -52 3 -11 13 -45 21 -75 66 -230 97 -530 77 -753
-21 -243 -26 -269 -101 -532 -28 -100 -116 -300 -172 -393 -21 -34 -38 -65
-38 -68 0 -15 -144 -211 -215 -294 -166 -192 -348 -346 -548 -464 -161 -95
-298 -157 -447 -205 -36 -11 -79 -25 -96 -31 -37 -12 -112 -29 -179 -40 -27
-4 -77 -13 -110 -21 -40 -8 -144 -13 -310 -13 -246 0 -356 10 -471 45 -17 5
-40 9 -52 9 -12 0 -39 6 -59 14 -21 7 -83 28 -138 46 -55 18 -104 36 -109 41
-6 5 -16 9 -23 9 -16 0 -178 78 -248 120 -27 16 -59 34 -70 39 -91 41 -415
324 -542 472 -41 48 -143 186 -143 194 0 4 -11 21 -24 38 -49 66 -145 253
-193 377 -47 121 -51 150 -19 150 9 0 31 8 51 17 24 11 38 14 45 7 17 -17 15
-78 -3 -114 -33 -65 -12 -89 26 -31 32 48 60 77 114 119 42 33 43 33 165 35
117 2 123 1 109 -15 -9 -10 -26 -18 -38 -18 -15 0 -23 -6 -23 -16 0 -13 6 -15
33 -10 17 4 65 9 105 13 69 6 72 5 72 -16 0 -16 -6 -21 -25 -21 -16 0 -25 -6
-25 -16 0 -13 7 -15 35 -11 25 4 35 2 35 -8 0 -7 -7 -16 -16 -19 -8 -3 -12
-10 -9 -16 8 -13 72 -13 80 0 8 14 43 12 85 -3 107 -39 150 -87 150 -166 0
-66 -25 -115 -82 -162 -24 -20 -56 -60 -71 -89 -28 -54 -27 -82 1 -57 10 8 32
18 49 22 18 3 47 20 64 36 17 16 35 29 39 29 5 0 6 -25 3 -56 -13 -124 54
-287 138 -336 24 -14 52 -35 63 -47 24 -26 37 -18 30 18 -5 23 -2 32 15 40 12
7 21 18 21 27 0 8 -22 58 -49 112 -58 114 -58 113 -75 262 -11 96 -19 129 -50
192 -50 105 -50 108 27 107 52 0 58 -2 40 -11 -13 -6 -23 -17 -23 -25 0 -10
19 -13 75 -13 76 0 100 -13 45 -23 -42 -9 -37 -27 7 -27 36 0 73 -22 73 -45 0
-6 -13 -21 -30 -33 -46 -34 -38 -69 9 -40 15 9 23 9 35 -1 24 -20 20 -34 -19
-67 -19 -16 -35 -33 -35 -38 0 -6 5 -5 12 2 25 25 55 13 79 -31 13 -24 43 -72
67 -107 36 -55 42 -70 42 -117 0 -52 1 -55 34 -68 34 -15 76 -58 76 -79 0 -13
-72 -84 -143 -140 -34 -27 -45 -42 -38 -49 7 -7 16 -5 29 6 10 9 30 17 44 17
14 0 58 16 97 36 l71 37 62 -22 c35 -13 118 -45 186 -73 113 -47 126 -50 156
-40 44 16 87 15 113 -3 15 -10 24 -12 28 -4 9 14 -23 49 -45 49 -10 0 -31 7
-46 15 -16 8 -37 15 -46 15 -10 0 -18 4 -18 8 0 11 241 10 258 -2 18 -11 37 8
29 28 -4 9 -17 16 -31 16 -14 0 -27 4 -30 9 -3 5 -32 12 -63 16 -117 13 -173
40 -101 47 17 2 33 9 36 16 3 9 -35 12 -168 12 -195 0 -208 4 -290 77 -45 40
-140 169 -140 189 0 5 -11 31 -24 59 -14 27 -21 55 -18 62 20 34 125 132 182
168 62 40 192 105 210 105 17 0 217 84 252 107 21 12 40 23 43 23 9 0 270 162
325 202 209 153 507 558 531 722 5 28 13 101 19 161 5 61 15 157 20 215 6 58
10 131 10 162 0 111 37 158 144 184 68 17 74 21 151 100 67 68 87 83 120 88
106 17 169 33 172 43 6 17 -88 57 -178 77 -32 7 -43 30 -29 57 8 14 7 26 -4
46 -24 46 -57 69 -144 99 -77 26 -86 27 -140 16 -32 -7 -74 -12 -94 -12 -25 0
-40 -6 -49 -20 -10 -15 -29 -22 -69 -27 -30 -3 -61 -10 -68 -16 -7 -5 -27 -17
-44 -27 -44 -23 -45 -36 -4 -55 20 -10 36 -20 36 -24 0 -3 -16 -24 -35 -46
-19 -22 -48 -67 -65 -100 -16 -33 -44 -85 -61 -115 -17 -30 -45 -80 -62 -110
-95 -172 -193 -250 -315 -250 -23 0 -63 -4 -89 -10 -26 -5 -104 -15 -173 -21
-231 -19 -260 -25 -465 -91 -121 -39 -130 -42 -198 -72 -21 -9 -46 -16 -55
-16 -10 0 -22 -4 -27 -9 -6 -4 -44 -23 -85 -42 -41 -19 -124 -63 -185 -98
-193 -112 -358 -192 -505 -246 -95 -34 -133 -50 -195 -82 -46 -24 -123 -78
-135 -95 -3 -4 -68 -16 -145 -27 -77 -12 -149 -23 -161 -27 -42 -11 -48 15
-52 227 -4 200 -4 203 39 459 19 113 85 322 143 455 22 50 84 175 96 195 5 8
33 53 61 100 91 149 155 228 323 395 182 181 343 299 556 405 117 59 215 99
315 130 39 12 81 26 95 32 27 11 93 24 182 37 31 5 61 12 68 16 44 27 580 27
684 0z"></path>
<path d="M3660 1510 c0 -5 5 -10 10 -10 6 0 10 5 10 10 0 6 -4 10 -10 10 -5 0
-10 -4 -10 -10z"></path>
<path d="M3660 926 c0 -26 4 -36 16 -36 11 0 14 8 12 32 -4 46 -28 49 -28 4z"></path>
</g>
</svg>