<?xml version="1.0" encoding="iso-8859-1"?>
<!-- Generator: Adobe Illustrator 16.0.0, SVG Export Plug-In . SVG Version: 6.00 Build 0)  -->
<!DOCTYPE svg PUBLIC "-//W3C//DTD SVG 1.1//EN" "http://www.w3.org/Graphics/SVG/1.1/DTD/svg11.dtd">
<svg version="1.1" id="Capa_1" xmlns="http://www.w3.org/2000/svg" xmlns:xlink="http://www.w3.org/1999/xlink" x="0px" y="0px"
	 width="574.518px" height="574.518px" viewBox="0 0 574.518 574.518" style="enable-background:new 0 0 574.518 574.518;"
	 xml:space="preserve">
<g>
	<g>
		<path d="M530.885,63.647c-1.95-1.718-4.333-2.954-6.549-4.366c-0.905-0.579-1.828-1.15-2.799-1.607
			c-2.46-1.158-5.186-1.917-7.364-3.464c-2.032-1.444-4.479-1.917-6.369-3.949c-2.276-2.452-5.708-3.811-8.58-5.732
			c-2.562-1.714-5.03-3.566-7.564-5.324c-1.281-0.89-2.57-1.779-3.933-2.53c-3.525-1.938-7.369-2.125-11.294-1.999
			c-1.521,0.049-3.08,0.286-4.557-0.114c1.199-1.276,2.436-2.517,3.7-3.713c7.278-3.835,15.553-5.728,23.958-5.287
			c7.764,0.408,15.609,2.664,23.207-0.024c4.998-1.771,9.159-5.736,9.853-11.126c0.739-5.729-4.035-10.751-8.869-12.901
			c-6.324-2.815-13.885-1.175-20.2,0.742c-1.188,0.359-2.358,0.768-3.521,1.191c-6.051,1.926-11.714,5.019-16.707,8.943
			c-4.505,3.256-8.65,7.018-12.326,11.167c-0.559,0.633-1.102,1.277-1.636,1.926c-1.384,1.334-2.726,2.705-4.027,4.121
			c-0.106,0.118-0.204,0.236-0.294,0.354c-0.285-0.212-0.566-0.424-0.84-0.648c-2.212-1.803-7.663-2.46-10.29-1.334
			c-1.946,0.832-4.157,1.057-6.075,1.934c-3.015,1.371-6.283,2.362-7.025,6.598c-0.303,1.729-2.306,3.312-3.812,4.655
			c-2.913,2.595-6.164,4.818-9.017,7.479c-3.623,3.378-7.074,6.961-10.437,10.6c-2.652,2.868-5.234,5.839-7.54,8.988
			c-2.717,3.713-5.238,7.589-7.576,11.551c-1.069,1.812-1.485,4.007-2.231,6.018c-0.861,2.313-1.755,4.615-2.645,6.916
			c-0.098,0.249-0.313,0.465-0.367,0.718c-0.648,3.052-1.207,6.129-1.93,9.164c-0.894,3.766-1.922,7.499-2.889,11.248
			c-0.09,0.348-0.15,0.71-0.18,1.069c-0.591,6.875-0.987,13.774-1.86,20.616c-0.33,2.583-1.763,5.026-2.688,7.536
			c-0.151,0.416-0.241,0.856-0.412,1.261c-1,2.333-2.016,4.659-3.027,6.984c-1.191,2.742-2.387,5.479-3.574,8.222
			c-0.673,1.559-1.272,3.153-2.02,4.68c-0.926,1.893-1.93,3.749-2.966,5.585c-1.077,1.91-2.188,3.807-3.362,5.655
			c-1.559,2.448-3.048,4.961-4.839,7.234c-3.333,4.227-6.731,8.412-10.354,12.387c-2.31,2.533-4.966,4.79-7.667,6.915
			c-2.896,2.281-6.014,4.284-9.065,6.356c-1.783,1.212-3.611,2.354-5.451,3.473c-1.713,1.044-3.455,2.044-5.214,3.02
			c-2.693,1.497-5.398,2.97-8.115,4.418c-1.167,0.62-2.358,1.216-3.586,1.701c-1.82,0.723-3.729,1.236-5.517,2.028
			c-1.889,0.832-3.68,1.889-5.512,2.844c-1.245,0.648-2.493,1.293-3.733,1.95c-3.949,2.093-7.874,4.239-11.856,6.263
			c-2.66,1.351-5.504,2.366-8.087,3.839c-2.093,1.191-3.847,2.967-5.896,4.26c-2.228,1.408-4.692,2.444-6.928,3.84
			c-2.611,1.632-5.104,3.459-7.622,5.238c-2.925,2.064-5.891,4.084-8.715,6.279c-2.174,1.689-4.113,3.68-6.234,5.442
			c-5.108,4.239-10.38,8.287-15.345,12.685c-2.656,2.354-4.822,5.268-7.189,7.944c-2.362,2.668-4.708,5.353-7.042,8.046
			c-2.627,3.031-5.369,5.973-7.813,9.147c-2.358,3.06-4.358,6.389-6.589,9.547c-3.081,4.365-6.349,8.604-9.319,13.044
			c-2.534,3.778-4.704,7.797-7.148,11.636c-1.579,2.48-3.375,4.827-5.055,7.242c-2.138,3.072-4.194,6.206-6.406,9.225
			c-2.256,3.081-4.725,6.006-6.981,9.091c-2.097,2.868-3.966,5.903-6.059,8.775c-2.228,3.057-4.59,6.015-6.908,9.005
			c-1.46,1.885-2.921,3.774-4.431,5.618c-2.57,3.142-5.296,6.161-7.74,9.396c-2.468,3.264-4.61,6.769-7.009,10.086
			c-1.987,2.75-4.26,5.296-6.193,8.082c-1.889,2.722-3.403,5.7-5.284,8.426c-1.828,2.647-4.007,5.055-5.867,7.687
			c-1.991,2.815-3.75,5.789-5.7,8.637c-0.963,1.404-2.085,2.71-3.211,3.995c-2.632,2.994-5.263,5.993-7.977,8.91
			c-3.815,4.104-7.536,8.262-12.342,11.367c-2.705,1.746-4.892,4.305-7.299,6.512c-2.868,2.632-5.728,5.268-8.58,7.915
			c-3.717,3.452-7.475,6.862-11.118,10.396c-3.599,3.488-7.185,7.002-10.563,10.698c-2.668,2.921-5.639,5.476-7.83,8.988
			c-2.207,3.537-3.337,7.263-4.823,11.008c-4.174,10.534-3.272,21.399-2.688,32.22c0.09,1.701,2.252,3.79,3.978,4.806
			c3.586,2.105,7.523,3.615,11.318,5.365c3.256,1.502,6.43,3.244,9.796,4.432c2.812,0.991,5.937,1.077,8.772,2.007
			c6.173,2.028,12.485,1.669,18.805,1.604c3.452-0.032,6.402-1.407,9.335-3.039c1.526-0.849,3.317-1.204,4.908-1.955
			c1.693-0.795,3.292-1.791,4.933-2.7c1.212-0.678,2.403-1.388,3.631-2.036c3.174-1.673,6.434-3.199,9.527-5.002
			c3.386-1.975,6.601-4.235,9.935-6.296c2.897-1.791,5.973-3.317,8.76-5.259c4.272-2.979,8.294-6.304,12.55-9.311
			c2.823-1.995,5.903-3.619,8.784-5.541c1.313-0.877,2.427-2.064,3.619-3.121c4.072-3.61,8.119-7.246,12.211-10.836
			c1.995-1.751,3.97-3.554,6.132-5.084c1.212-0.857,2.738-1.392,4.198-1.746c3.117-0.759,6.3-1.245,9.433-1.955
			c1.82-0.412,3.562-1.199,5.394-1.501c0.722-0.118,1.559,0.82,2.391,0.942c1.444,0.212,2.946,0.335,4.386,0.167
			c1.016-0.118,1.967-0.791,2.954-1.199c2.46-1.008,4.9-2.068,7.393-2.979c2.016-0.734,4.141-1.179,6.145-1.938
			c2.321-0.878,4.565-1.959,6.842-2.954c0.163-0.069,0.322-0.151,0.494-0.196c6.785-1.896,13.811-2.644,20.62-1.33
			c3.215,0.62,6.414,0.914,9.621,1.404c3.729,0.571,7.417,1.424,11.432,2.215c1.354,3.954-0.836,6.459-3.798,8.87
			c-3.333,2.713-3.036,3.721-1.971,8.311c0.828-0.534,1.599-1.085,2.419-1.55c0.873-0.498,1.795-0.914,2.771-1.403
			c1.873,1.807,3.864,3.782,5.928,5.671c0.404,0.367,1.093,0.547,1.665,0.583c1.624,0.106,3.268,0.229,4.884,0.103
			c3.667-0.29,6.826,0.971,9.808,2.909c0.073,0.049,0.163,0.085,0.249,0.105c2.786,0.592,5.553,1.518,8.368,1.697
			c4.508,0.286,9.045,0.078,14.035,0.078c-0.89,3.545,1.913,5.275,2.758,7.724c1.122,3.256,3.134,6.491,2.236,10.293
			c-0.27,1.146-0.041,2.407-0.041,3.619c0.322,0.062,0.648,0.123,0.971,0.184c0.412-1.012,0.824-2.023,1.339-3.297
			c0.819,1.343,1.534,2.514,2.068,3.391c-0.4,1.339-0.951,2.501-1.057,3.705c-0.168,1.889-0.196,3.823,0.012,5.704
			c0.294,2.717-0.42,4.744-2.726,6.417c-1.762,1.277-2.855,8.079-1.982,10.196c0.567,1.379,2.027,1.559,3.129,0.481
			c0.441-0.433,1.09-0.837,1.682-0.901c3.692-0.429,6.279-1.751,8.73-4.57c1.856,0.943,3.66,1.931,5.529,2.779
			c2.468,1.121,4.933,2.293,7.499,3.142c2.521,0.836,5.186,1.24,7.756,1.934c3.402,0.918,6.78,1.934,10.176,2.896
			c0.432,0.123,0.889,0.208,1.334,0.213c10.701,0.012,21.403,0.008,32.097,0.008c1.926-3.9-3.101-5.843-2.917-9.678h15.435
			c-1.795-2.02-2.855-3.709-4.354-4.802c-3.211-2.354-6.572-4.521-10.021-6.521c-1.591-0.922-3.524-1.236-5.279-1.893
			c-0.31-0.114-0.489-0.567-1.012-1.212c1.95-0.192,3.509-0.343,5.071-0.498c0.094-0.171,0.188-0.343,0.277-0.514
			c-1.399-0.857-2.868-1.616-4.182-2.591c-5.843-4.342-12.534-3.24-19.062-2.971c-1.93,0.082-3.864,1.094-5.757,0.991
			c-3.75-0.204-7.508-0.697-11.191-1.411c-5.414-1.053-8.784-5.569-9.099-11.105c-0.163-2.877-1.085-5.7-1.42-8.576
			c-0.131-1.114-0.901-2.795,1.244-3.306c0.241-0.057,0.257-1.33,0.266-2.044c0.028-2.896,0.012-5.793,0.012-8.833
			c1.135-0.2,2.073-0.367,3.31-0.583c0-1.62-0.017-3.235,0.004-4.852c0.028-2.578,0.783-4.423,3.814-4.855
			c0.955-0.134,1.648-1.685,2.604-2.395c0.383-0.286,1.183-0.172,1.737-0.028c0.556,0.143,1.086,0.836,1.551,0.775
			c0.551-0.078,1.171-0.612,1.51-1.114c1.938-2.885,3.798-5.818,5.684-8.735c0.33,0.053,0.661,0.106,0.991,0.159v9.575
			c0.347,0.074,0.693,0.144,1.04,0.217c1.29-1.877,2.652-3.713,3.855-5.646c1.571-2.514,3.093-5.063,4.496-7.675
			c0.829-1.542,1.314-3.269,2.098-4.843c0.612-1.232,1.437-2.358,2.166-3.529c0.29,0.11,0.575,0.216,0.865,0.326
			c0.098,1.469,0.058,2.971,0.359,4.398c0.155,0.727,0.926,1.322,1.42,1.979c0.566-0.559,1.285-1.023,1.677-1.685
			c1.909-3.211,3.737-6.467,5.577-9.719c0.942-1.665,1.779-3.391,2.791-5.01c0.607-0.972,1.456-1.792,2.497-3.04
			c0.412,1.317,0.726,2.321,1.269,4.056c2.762-3.566,4.998-6.843,7.638-9.756c2.656-2.929,5.386-5.944,9.955-7.352v8.127
			c0.236,0.028,0.478,0.054,0.714,0.082c0.2-0.408,0.49-0.796,0.588-1.225c0.677-2.97,0.999-6.062,2.04-8.898
			c1.366-3.732,3.773-6.862,6.744-9.612c4.32-3.998,8.425-8.233,12.591-12.399c2.342-2.342,4.676-4.7,6.903-7.151
			c1.566-1.73,3.02-3.574,4.395-5.464c1.456-2.003,2.786-4.1,4.129-6.185c1.473-2.285,2.827-4.647,4.357-6.892
			c1.754-2.574,3.68-5.026,5.455-7.585c1.489-2.142,2.831-4.386,4.3-6.544c1.163-1.705,2.493-3.297,3.611-5.026
			c2.158-3.35,4.189-6.785,6.336-10.144c1.354-2.117,2.881-4.124,4.23-6.242c0.755-1.183,1.326-2.488,1.959-3.753
			c1.615-3.24,3.312-6.442,4.786-9.743c0.84-1.89,1.179-3.999,1.971-5.916c0.738-1.791,1.786-3.456,2.684-5.182
			c0.164-0.311,0.241-0.665,0.363-1c1.077-2.938,2.257-5.847,3.207-8.829c0.763-2.387,1.167-4.888,1.881-7.291
			c0.771-2.587,1.718-5.12,2.595-7.674c0.147-0.425,0.384-0.824,0.478-1.257c0.563-2.542,1.31-5.063,1.604-7.638
			c0.718-6.288,1.628-12.596,1.726-18.903c0.225-14.717,0.168-29.441-0.089-44.153c-0.095-5.521-0.449-11.188-1.845-16.479
			c-0.815-3.093-0.787-6.132-1.42-9.135c-0.665-3.175-1.885-6.227-2.823-9.348c-0.18-0.6-0.065-1.289-0.27-1.873
			c-0.856-2.464-1.742-4.92-2.688-7.352c-0.682-1.751-1.392-3.497-2.231-5.178c-1.869-3.725-3.844-7.401-5.741-11.109
			c-1.391-2.718-2.709-5.476-4.108-8.193c-0.832-1.615-1.864-3.133-2.615-4.781c-0.86-1.89-1.469-3.889-2.256-5.811
			c-0.976-2.37-2.023-4.708-3.036-7.058c-0.069-0.164-0.122-0.343-0.15-0.522c-0.592-3.623-1.396-7.226-1.71-10.873
			c-0.285-3.338-0.012-6.716-0.041-10.078c-0.028-3.541,1.453-6.564,3.027-9.608c0.845-1.628,1.146-3.537,1.971-5.178
			c1.098-2.194,2.261-4.414,3.762-6.336c2.244-2.872,4.97-5.369,7.189-8.258c2.583-3.362,4.663-7.111,7.291-10.433
			c2.093-2.647,4.635-4.953,7.046-7.34c2.473-2.448,4.925-4.933,7.585-7.16c1.367-1.143,3.125-1.86,4.781-2.6
			c2.281-1.02,4.558-2.301,6.969-2.7c2.518-0.421,5.194-0.013,7.789,0.212c0.942,0.081,1.84,0.665,2.938,1.089
			c0.661-3.696,0.191-6.446-2.428-8.816C533.377,67.34,532.504,65.075,530.885,63.647z M531.363,15.164
			c0.236-1.754,0.085-3.582-0.515-5.377C531.635,11.636,531.75,13.455,531.363,15.164z M479.102,27.711
			c0.261-0.017,0.53-0.05,0.812-0.114c0.004,0,0.013-0.005,0.017-0.005c-0.445,0.176-0.894,0.352-1.334,0.543
			C478.759,27.992,478.934,27.854,479.102,27.711z M315.061,509.518c-3.917-1.387-7.462-2.644-11.118-3.941
			c0-2.925,0.037-5.728-0.012-8.526c-0.049-3.02,0.877-4.015,3.994-4.179c1.261-0.064,2.566-0.036,3.77-0.354
			c1.637-0.433,3.199-1.15,4.794-1.746c0.27,0.273,0.543,0.551,0.812,0.824C316.575,497.412,315.844,503.234,315.061,509.518z"/>
	</g>
</g>
<g>
</g>
<g>
</g>
<g>
</g>
<g>
</g>
<g>
</g>
<g>
</g>
<g>
</g>
<g>
</g>
<g>
</g>
<g>
</g>
<g>
</g>
<g>
</g>
<g>
</g>
<g>
</g>
<g>
</g>
</svg>
