 <svg version="1.0" xmlns="http://www.w3.org/2000/svg" width="700.000000pt" height="700.000000pt" viewBox="0 0 700.000000 700.000000" preserveAspectRatio="xMidYMid meet">
<metadata>
Created by potrace 1.12, written by Peter Selinger 2001-2015
</metadata>
<g transform="translate(0.000000,700.000000) scale(0.100000,-0.100000)" fill="#000000" stroke="none">
<path d="M724 5297 c-11 -29 42 -117 71 -117 6 0 22 -11 35 -25 25 -27 92 -78
305 -235 235 -173 245 -181 245 -203 0 -11 16 -35 35 -53 19 -17 35 -36 35
-42 0 -6 -26 -31 -57 -55 -122 -94 -184 -187 -213 -322 -7 -33 -18 -87 -25
-120 -7 -33 -18 -87 -24 -120 -23 -120 -60 -276 -72 -297 -5 -10 -9 -25 -9
-33 0 -8 -4 -23 -10 -33 -5 -9 -32 -63 -59 -119 -27 -56 -82 -148 -121 -205
-135 -198 -218 -281 -420 -425 -47 -34 -103 -79 -124 -102 l-39 -40 6 -93 c3
-51 2 -138 -3 -193 -5 -55 -14 -154 -19 -221 -5 -66 -15 -142 -22 -168 -30
-120 17 -199 127 -210 33 -4 81 -11 107 -16 79 -16 94 -13 123 25 14 19 35 35
45 35 31 0 30 16 -4 66 -44 65 -78 88 -140 94 l-52 5 0 95 c0 94 9 139 47 255
51 152 169 270 480 478 141 95 227 163 458 361 74 64 136 111 138 106 3 -8
-42 -148 -83 -260 -81 -219 -127 -341 -148 -390 -8 -19 -30 -70 -47 -114 -18
-43 -43 -98 -56 -123 -29 -54 -30 -79 -4 -118 12 -16 40 -66 63 -110 27 -53
68 -107 118 -160 42 -44 104 -118 138 -165 34 -47 86 -114 117 -150 47 -56 61
-66 97 -71 23 -4 52 -10 65 -14 18 -6 22 -4 22 12 0 31 11 34 44 14 32 -19
143 -34 152 -20 3 5 -11 42 -30 84 -30 64 -40 77 -73 91 -107 47 -147 71 -172
107 -14 21 -36 50 -49 65 -46 53 -130 178 -157 231 -25 50 -27 62 -22 140 2
47 12 110 21 138 19 59 100 168 206 278 72 74 259 344 315 454 56 111 100 230
111 301 8 55 25 70 81 70 38 0 46 4 63 33 11 17 20 48 20 68 0 65 22 74 169
73 144 -1 192 -14 314 -85 40 -23 101 -57 137 -77 36 -19 81 -45 100 -57 94
-59 291 -146 370 -165 127 -29 187 -39 271 -45 l76 -6 12 -72 c7 -40 17 -92
22 -117 5 -25 13 -88 18 -140 4 -52 17 -142 29 -200 11 -58 25 -139 32 -180 6
-41 16 -95 20 -120 24 -126 32 -268 22 -385 -11 -127 -5 -163 26 -150 9 4 23
8 31 9 18 1 61 -80 85 -159 21 -73 40 -111 75 -148 l26 -29 116 4 c105 3 119
1 139 -17 18 -16 24 -17 41 -7 14 9 25 10 39 2 18 -9 20 -8 20 16 0 14 -10 40
-22 57 -13 18 -30 45 -38 62 -10 20 -27 33 -50 39 -70 19 -112 51 -143 107
-79 144 -72 99 -75 459 -1 179 1 381 5 450 l8 125 60 7 c113 12 170 26 250 61
44 19 100 40 124 47 53 14 73 25 130 69 59 47 81 85 81 146 0 62 -22 96 -152
246 l-58 67 54 103 c29 57 62 131 73 164 17 48 28 64 55 80 55 32 68 45 98
105 21 41 42 65 81 92 83 57 266 139 334 149 33 5 97 28 142 49 46 22 89 40
97 40 8 0 27 5 41 12 22 10 35 6 109 -30 100 -50 127 -53 155 -13 12 16 21 33
21 38 0 4 5 25 11 46 l10 37 58 0 c44 0 71 -7 116 -30 33 -17 74 -30 94 -30
40 0 106 21 123 38 7 7 40 12 74 12 34 0 79 6 101 14 121 43 173 83 173 134 0
14 9 35 19 46 20 22 52 97 54 130 2 22 -25 38 -128 76 -30 11 -107 41 -130 51
-11 4 -38 13 -60 19 -22 6 -65 24 -95 39 -45 22 -61 38 -85 82 -27 48 -41 60
-130 111 -128 73 -202 91 -385 92 -148 1 -174 -6 -254 -68 -26 -20 -57 -33
-90 -37 -28 -4 -71 -13 -96 -19 -25 -6 -67 -15 -95 -20 -27 -5 -84 -16 -125
-25 -41 -8 -97 -19 -125 -24 -27 -6 -73 -17 -102 -26 -28 -8 -82 -20 -120 -25
-63 -9 -95 -15 -198 -41 -22 -5 -119 -16 -215 -24 -329 -28 -690 -82 -900
-135 -33 -8 -100 -8 -265 1 -121 6 -517 15 -880 19 -363 4 -673 11 -690 15
-86 21 -304 140 -400 219 -93 77 -200 154 -242 175 -34 17 -60 21 -133 21 -66
0 -92 -4 -96 -13z m3790 -1888 c28 -17 53 -33 55 -35 1 -1 -14 -23 -35 -49
-49 -58 -91 -71 -166 -53 -47 12 -53 16 -51 38 3 28 106 130 131 130 8 0 38
-14 66 -31z"></path>
</g>
</svg>