 <svg version="1.0" xmlns="http://www.w3.org/2000/svg" width="700.000000pt" height="700.000000pt" viewBox="0 0 700.000000 700.000000" preserveAspectRatio="xMidYMid meet">
<metadata>
Created by potrace 1.12, written by Peter Selinger 2001-2015
</metadata>
<g transform="translate(0.000000,700.000000) scale(0.100000,-0.100000)" fill="#000000" stroke="none">
<path d="M1150 5304 c-108 -11 -186 -35 -285 -92 -89 -51 -103 -63 -130 -111
-24 -44 -40 -60 -85 -82 -30 -15 -73 -33 -95 -39 -22 -6 -49 -15 -60 -19 -11
-5 -40 -16 -65 -26 -188 -73 -195 -77 -193 -101 2 -33 34 -108 54 -130 10 -11
19 -32 19 -46 0 -45 44 -84 130 -117 58 -23 96 -31 141 -31 38 0 69 -5 78 -14
51 -44 138 -46 217 -6 50 26 68 30 119 28 l59 -3 9 -45 c12 -60 41 -100 74
-100 14 0 63 19 109 42 74 36 87 40 109 30 14 -7 33 -12 41 -12 8 0 51 -18 97
-40 45 -21 109 -44 142 -49 68 -10 251 -92 334 -149 39 -27 60 -51 81 -92 30
-60 43 -73 98 -105 27 -16 38 -32 55 -80 11 -33 44 -107 73 -164 l54 -103 -58
-67 c-130 -150 -152 -184 -152 -246 0 -61 22 -99 81 -146 58 -45 74 -53 143
-73 32 -9 88 -31 124 -47 66 -31 125 -45 237 -57 l60 -7 8 -125 c4 -69 6 -271
5 -450 -3 -360 4 -315 -75 -459 -31 -56 -73 -88 -143 -107 -23 -6 -40 -19 -50
-39 -8 -17 -25 -44 -38 -62 -12 -17 -22 -43 -22 -57 0 -24 2 -25 20 -16 14 8
26 8 41 0 17 -9 25 -8 41 7 18 16 35 18 135 15 115 -4 115 -4 145 25 32 31 45
57 74 148 25 81 67 160 85 159 8 -1 22 -5 31 -9 31 -13 37 23 26 150 -10 117
-2 259 22 385 4 25 14 79 20 120 7 41 21 122 32 180 12 58 25 148 29 200 5 52
13 115 18 140 5 25 15 77 22 117 l12 72 76 6 c84 6 144 16 271 45 79 19 276
106 370 165 19 12 64 38 100 57 36 20 97 54 137 77 122 71 170 84 314 85 147
1 169 -8 169 -73 0 -20 9 -51 20 -68 17 -29 25 -33 63 -33 56 0 73 -15 81 -70
11 -71 55 -190 111 -301 56 -110 243 -380 315 -454 106 -110 187 -219 206
-278 9 -28 19 -91 21 -138 5 -75 2 -91 -17 -130 -29 -56 -113 -183 -154 -230
-17 -20 -43 -54 -57 -75 -26 -37 -63 -61 -172 -108 -33 -14 -43 -27 -73 -91
-19 -42 -33 -79 -30 -84 9 -14 120 1 152 20 33 20 44 17 44 -14 0 -16 4 -18
23 -12 12 4 41 10 64 14 36 5 50 15 97 71 31 36 83 103 117 150 34 47 96 121
138 165 50 53 91 107 118 160 23 44 51 94 63 110 26 39 25 64 -4 118 -13 25
-38 80 -56 123 -17 44 -39 95 -47 114 -21 48 -24 56 -83 215 -29 77 -63 168
-76 203 -13 34 -24 70 -24 80 0 10 -4 22 -8 28 -13 15 -44 112 -40 125 2 6 44
-25 93 -68 253 -222 375 -318 518 -411 66 -42 167 -116 225 -164 175 -142 218
-208 273 -413 8 -27 14 -93 14 -145 l0 -95 -52 -5 c-62 -7 -96 -29 -141 -95
-33 -49 -33 -60 3 -67 11 -2 26 -16 33 -31 15 -31 47 -42 95 -33 17 3 68 11
112 16 44 6 90 17 103 26 55 36 75 112 52 196 -6 21 -15 93 -21 160 -5 68 -14
168 -19 223 -5 55 -6 142 -3 193 l6 93 -39 40 c-21 23 -77 68 -124 101 -200
143 -286 230 -420 426 -39 57 -94 149 -121 205 -27 56 -54 110 -59 119 -6 10
-10 25 -10 33 0 8 -4 23 -9 33 -12 21 -49 177 -72 297 -6 33 -17 87 -24 120
-7 33 -18 87 -25 120 -29 135 -91 228 -212 322 -32 24 -58 49 -58 55 0 6 16
25 35 42 19 18 35 42 35 53 0 22 11 31 245 203 200 147 256 189 292 223 17 16
41 34 54 41 32 16 59 57 62 91 l2 30 -92 3 c-78 2 -99 -1 -135 -19 -43 -21
-149 -98 -243 -175 -96 -79 -314 -198 -400 -219 -16 -4 -327 -11 -690 -15
-363 -4 -759 -13 -880 -19 -166 -9 -231 -10 -265 -1 -87 22 -207 45 -340 65
-52 8 -124 19 -160 25 -107 17 -215 29 -400 45 -96 8 -194 19 -217 25 -24 5
-62 15 -85 20 -24 6 -74 15 -111 20 -38 5 -92 17 -120 25 -29 9 -74 20 -102
26 -27 5 -84 16 -125 24 -41 9 -97 20 -125 25 -27 5 -70 14 -95 20 -25 6 -68
15 -96 19 -33 4 -64 17 -90 37 -68 53 -108 66 -213 69 -53 2 -116 1 -141 -1z
m1474 -1916 c35 -33 57 -62 59 -78 2 -22 -4 -26 -51 -38 -75 -18 -117 -5 -166
53 -21 26 -36 48 -35 49 21 18 108 66 120 66 9 0 41 -24 73 -52z"></path>
</g>
</svg>