<?xml version="1.0" standalone="no"?><!DOCTYPE svg PUBLIC "-//W3C//DTD SVG 1.1//EN" "http://www.w3.org/Graphics/SVG/1.1/DTD/svg11.dtd"><svg class="icon" height="512" viewBox="0 0 1024 1024" version="1.1" xmlns="http://www.w3.org/2000/svg"><path d="M816.128 870.4H418.133333a54.272 54.272 0 0 1-54.272-54.272v-450.56a54.272 54.272 0 0 1 54.272-54.272h397.994667a54.272 54.272 0 0 1 54.272 54.272v450.56a54.272 54.272 0 0 1-54.272 54.272zM418.133333 345.429333a20.48 20.48 0 0 0-20.138666 20.138667v450.56a20.138667 20.138667 0 0 0 20.138666 20.138667h397.994667a20.138667 20.138667 0 0 0 20.138667-20.138667v-450.56a20.138667 20.138667 0 0 0-20.138667-20.138667z" fill="#495771" /><path d="M380.586667 712.704H207.872a54.272 54.272 0 0 1-54.272-54.272V207.872A54.272 54.272 0 0 1 207.872 153.6h397.994667a54.272 54.272 0 0 1 54.272 54.272v120.490667a17.066667 17.066667 0 0 1-17.066667 17.066666h-225.28a20.48 20.48 0 0 0-20.138667 20.138667v330.410667a17.066667 17.066667 0 0 1-17.066666 16.725333zM207.872 187.733333a20.138667 20.138667 0 0 0-20.138667 20.138667v450.56a20.48 20.48 0 0 0 20.138667 20.138667h155.648v-313.002667a54.272 54.272 0 0 1 54.272-54.272h208.213333v-102.4a20.138667 20.138667 0 0 0-20.138666-20.138667z" fill="#495771" /><path d="M721.92 477.866667H512a17.066667 17.066667 0 0 1 0-34.133334h209.92a17.066667 17.066667 0 0 1 0 34.133334zM721.92 607.914667H512a17.066667 17.066667 0 0 1 0-34.133334h209.92a17.066667 17.066667 0 0 1 0 34.133334zM721.92 738.986667H512a17.066667 17.066667 0 1 1 0-34.133334h209.92a17.066667 17.066667 0 0 1 0 34.133334z" fill="#495771" /></svg>