<?xml version="1.0" encoding="UTF-8" standalone="no"?>
<!-- Creator: CorelDRAW -->

<svg
   xmlns:dc="http://purl.org/dc/elements/1.1/"
   xmlns:cc="http://creativecommons.org/ns#"
   xmlns:rdf="http://www.w3.org/1999/02/22-rdf-syntax-ns#"
   xmlns:svg="http://www.w3.org/2000/svg"
   xmlns="http://www.w3.org/2000/svg"
   xmlns:sodipodi="http://sodipodi.sourceforge.net/DTD/sodipodi-0.dtd"
   xmlns:inkscape="http://www.inkscape.org/namespaces/inkscape"
   xml:space="preserve"
   width="7.7212763in"
   height="5.556673in"
   style="fill-rule:evenodd;image-rendering:optimizeQuality;shape-rendering:geometricPrecision;text-rendering:geometricPrecision"
   viewBox="0 0 7721.2763 5715.4424"
   version="1.1"
   id="svg9"
   sodipodi:docname="pheasant2.svg"
   inkscape:version="0.92.3 (2405546, 2018-03-11)"><metadata
   id="metadata13"><rdf:RDF><cc:Work
       rdf:about=""><dc:format>image/svg+xml</dc:format><dc:type
         rdf:resource="http://purl.org/dc/dcmitype/StillImage" /><dc:title></dc:title></cc:Work></rdf:RDF></metadata><sodipodi:namedview
   pagecolor="#ffffff"
   bordercolor="#666666"
   borderopacity="1"
   objecttolerance="10"
   gridtolerance="10"
   guidetolerance="10"
   inkscape:pageopacity="0"
   inkscape:pageshadow="2"
   inkscape:window-width="640"
   inkscape:window-height="480"
   id="namedview11"
   showgrid="false"
   fit-margin-top="0"
   fit-margin-left="0"
   fit-margin-right="0"
   fit-margin-bottom="0"
   inkscape:zoom="0.22348485"
   inkscape:cx="368.3104"
   inkscape:cy="271.09411"
   inkscape:window-x="0"
   inkscape:window-y="0"
   inkscape:window-maximized="0"
   inkscape:current-layer="svg9" />
 <defs
   id="defs4">
  <style
   type="text/css"
   id="style2">
   <![CDATA[
    .str0 {stroke:#131516;stroke-width:0.967619}
    .fil0 {fill:#131516}
   ]]>
  </style>
 </defs>
 <g
   id="Layer_x0020_1"
   transform="translate(-168.10308,-2846.2913)">
  <path
   class="fil0 str0"
   d="m 1371.3,2847.43 c -20.6286,1.9238 -39.821,4.4038 -58.5333,13.9733 -14.3314,7.3295 -27.28,20.6743 -42.5714,25.5162 -21.9733,6.9562 -46.96,2.3124 -69.1771,10.1181 -14.5029,5.0971 -44.4838,17.9238 -36.6819,38.2133 12.5524,32.659 64.4152,37.7524 89.8933,54.0533 32.2667,20.6438 57.3371,68.3695 68.5486,103.874 7.1848,22.7429 0.8305,51.1048 -1.8971,74.4952 -5.3524,45.9619 -14.2438,97.7029 -8.1143,143.676 6.2666,47.0133 12.3238,92.2552 24.4076,138.35 2.8305,10.8076 17.3676,36.3086 4.7428,44.8343 -8.9828,6.0686 -25.7333,3.4171 -36.2476,5.1809 -24.541,4.1105 -51.021,11.2762 -74.4952,19.5352 -65.1657,22.9257 -121.341,64.3086 -175.604,105.916 -73.00947,55.9848 -111.08597,142.255 -175.59997,205.859 -77.699,76.5943 -197.375,132.168 -297.992,171.638 -59.6762,23.4057 -132.956,36.0762 -196.888,38.88 -13.9657,0.6134 -26.9295,-5.6 -40.7962,-5.8628 -25.1848,-0.4724 -52.9714,3.9238 -78.0457,7.2686 -21.3371,2.8457 -45.92,6.4038 -67.4019,5.6381 -11.6648,-0.4153 -28.0419,-4.5639 -38.2933,2.8952 -26.979,19.6305 29.8705,35.2533 20.7429,42.5333 -26.96,21.5086 -82.8648,-14.1067 -106.629,16.2171 -13.4705,17.1848 10.3048,35.2762 24.8495,40.2667 43.3714,14.8952 94.7886,17.8552 140.126,22.0952 7.09714,0.6629 49.0438,0.2552 49.0438,10.1752 0,10.6667 -42.819,14.3695 -50.8152,16.1333 -45.1048,9.9276 -94.1867,8.4191 -140.13,12.2133 -12.8381,1.059 -41.4552,-2.6057 -43.3371,15.6381 -1.82476,17.6571 19.6495,24.2286 32.6971,28.6514 34.7886,11.7905 80.3314,12.08 117.067,13.6114 7.8019,0.3238 42.2514,-4.4 45.3295,4.8076 2.89143,8.6553 -24.3886,12.7543 -29.3676,13.7105 -26.5219,5.101 -53.28,9.0514 -79.8095,14.221 -10.3048,2.0114 -23.2686,7.3448 -18.4724,20.5105 6.27429,17.2229 31.4324,19.3829 46.8457,19.6 46.5676,0.6553 95.68,1.2724 141.901,-4.579 11.2457,-1.421 45.0819,-11.379 54.339,-3.2267 6.86095,6.0381 -19.3448,14.1371 -22.4114,15.2571 -14.5562,5.3143 -88.6438,20.8038 -75.0743,45.1276 6.95619,12.4648 29.3829,10.8343 41.3714,9.9009 38.6552,-3.0095 79.4095,-3.2609 117.067,-13.181 5.04762,-1.3295 45.859,-15.341 43.7219,-7.5581 -9.58476,34.9067 -75.7752,22.5371 -85.0895,49.1314 -7.95048,22.6971 36.461,20.4457 48.4648,20.6933 47.0857,0.9753 99.6,-16.6705 141.901,-35.9314 14.4076,-6.56 31.7943,-26.7505 46.2133,-29.04 25.6114,-4.0609 21.2495,34.179 49.5695,30.6781 28.4152,-3.5161 53.821,-16.1371 81.5924,-21.6648 18.5333,-3.6914 44.6476,-1.8628 61.5467,-9.9352 18.4876,-8.8305 13.9467,-36.2476 37.7905,-42.2667 46.5105,-11.741 98.2667,0.9448 145.44,-7.7867 18.14477,-3.3562 31.24947,-18.08 49.66477,-22.1295 110.541,-24.3124 227.672,-51.0286 333.467,-91.9086 27.3219,-10.5562 28.8,-37.1848 51.4743,-51.9276 37.2076,-24.1867 80.6095,-41.52 120.579,-60.3505 28.5562,-13.4514 49.4286,-28.3162 79.821,-38.2095 18.6514,-6.0723 58.4952,-35.459 77.5771,-25.6952 18.5676,9.5048 33.7257,43.1581 44.2781,60.499 9.4705,15.5619 23.4324,30.179 28.7543,47.8895 8.4762,28.221 5.2495,61.3638 7.8934,90.4648 4.0609,44.541 17.2571,92.7238 40.2971,131.234 22.8838,38.259 51.139,-4.7657 75.261,14.0076 38.56,29.9848 40.6019,103.368 89.5733,126.568 23.059,10.9257 26.5029,-37.9048 39.5924,-27.2267 18.0381,14.739 24.9905,57.3981 35.421,78.24 20.3467,40.6552 58.0381,87.7486 93.4781,116.164 7.9809,6.3848 18.3238,11.0476 27.9733,5.2305 7.5733,-4.5752 12.4686,-19.3143 22.8076,-11.7752 52.221,38.099 69.5162,101.882 137.238,122.297 35.741,10.7695 21.0362,-30.56 23.9962,-46.4533 0.8685,-4.6628 5.3219,-3.0171 8.179,-1.1886 14.3314,9.2077 24.5486,25.5429 36.9981,37.0552 37.3752,34.5333 72.0533,67.1543 117.07,91.2571 18.32,9.8096 40.6705,30.6324 63.5162,20.08 13.2495,-6.1371 12.7886,-19.8819 7.0057,-31.1276 -14.899,-28.9143 -26.64,-58.659 -42.9752,-86.9143 -3.6038,-6.2438 -18.1105,-25.5962 -14.4571,-32.9752 2.8191,-5.6761 37.8171,32.4229 41.8971,36.5219 31.2152,31.379 61.4781,75.7219 99.3295,98.941 17.0819,10.48 37.9581,-4.88 50.621,5.1962 15.9848,12.701 26.0038,35.8133 38.3505,51.9352 16.6743,21.8171 38.1714,41.3105 56.3695,62.099 106.267,121.379 209.642,264.716 277.931,411.512 22.4381,48.2286 51.0667,94.9295 79.1086,140.126 7.8553,12.6629 23.7143,40.141 42.0914,36.8038 13.4438,-2.4457 17.7371,-19.9695 17.0971,-31.4819 -1.6305,-28.9486 -15.1124,-59.3143 -23.3067,-86.9143 -35.4743,-119.41 -54.3467,-247.581 -129.166,-351.204 -20.2019,-27.9543 -38.6667,-57.6838 -56.9524,-86.9143 -2.9447,-4.72 -18.4305,-23.2343 -14.5448,-29.0171 3.2267,-4.8076 19.0133,16.2095 20.8381,18.3733 19.7067,23.1848 39.84,45.9771 59.5276,69.1771 35.0514,41.3486 72.3695,81.1314 105.432,124.164 31.821,41.3981 58.5524,85.299 95.6419,122.389 15.1467,15.1467 72.5295,81.5048 91.101,38.88 10.96,-25.1848 -23.1124,-69.3714 -34.9448,-90.32 -46.5257,-82.3543 -103.09,-158.979 -149.901,-241.23 -31.5695,-55.501 -62.2552,-112.667 -86.0419,-172.053 -18.6438,-46.579 -31.8933,-97.4514 -55.2724,-141.901 -19.299,-36.6971 -40.2971,-73.0248 -64.9371,-106.423 -12.8571,-17.4362 -36.8571,-39.9124 -43.4933,-60.2933 -4.4343,-13.6038 13.3943,-20.4495 13.9086,-33.7333 0.9219,-23.68 -11.1581,-55.2914 -17.7029,-78.0305 -28.8952,-100.248 -101.211,-175.36 -151.39,-264.29 -9.7714,-17.3333 6.3314,-28.72 2.1105,-46.1181 -9.6495,-39.7562 -37.4438,-74.1371 -63.3562,-104.552 -41.4552,-48.659 -107.634,-107.394 -167.318,-132.225 -55.7143,-23.181 -118.526,-27.8819 -177.375,-37.4552 -24.9067,-4.0533 -47.5048,-17.3067 -65.6114,-34.5943 -6.0343,-5.7562 -17.261,-14.9143 -14.1371,-24.5029 4.8229,-14.8648 31.3943,-23.741 44.2705,-29.7219 54.6133,-25.3714 125.619,23.0019 184.472,18.579 78.72,-5.9162 133.794,-54.2514 205.756,-76.6743 42.7124,-13.3067 99.7562,-7.7333 138.35,-30.4571 29.5886,-17.4248 45.3219,-50.9219 72.8838,-69.4743 24.8686,-16.7238 60.9105,-2.8 84.4305,-24.659 7.5924,-7.0628 11.8133,-16.861 9.1886,-27.1848 -1.6838,-6.659 -10.7467,-17.6686 -3.6343,-23.6457 22.861,-19.2076 74.941,1.2953 88.1371,-36.6971 6.7581,-19.4514 -16.32,-22.4152 -29.2495,-23.1352 -3.4248,-0.1942 -14.9714,-1.2685 -11.1733,-7.5047 4.5752,-7.5086 21.1581,-8.9257 28.8762,-11.1467 23.181,-6.6781 79.5162,-21.2457 80.1562,-52.1638 0.4228,-20.2629 -21.0743,-16.141 -34.0381,-14.6819 -2.6248,0.2933 -15.4667,2.3124 -14.5448,-3.2648 1.2762,-7.6114 17.6305,-14.8876 23.4133,-18.7314 21.619,-14.381 43.3143,-28.7505 62.061,-46.8762 8.32,-8.0381 23.5581,-21.581 16.2324,-34.6248 -5.8019,-10.301 -18.2705,-7.5581 -26.8571,-3.0552 -26.2857,13.7867 -51.3676,27.5162 -79.8171,36.6133 -5.1276,1.6343 -32.0533,12.9562 -34.8533,5.0247 -2.4838,-7.0514 24.7429,-24.1257 29.5314,-28.3238 23.52,-20.621 50.941,-39.76 72.2438,-62.56 7.4171,-7.9276 16.5143,-19.9467 12.9486,-31.5619 -5.6915,-18.4838 -24.1562,-7.539 -33.7524,0.08 -21.2152,16.8305 -44.5752,30.1524 -69.1771,41.3257 -5.4438,2.4762 -19.8667,12.2819 -25.9695,8.8457 -5.4095,-3.0552 14.9371,-19.9962 17.0819,-22.1181 17.9162,-17.7143 37.1771,-39.6343 45.6914,-63.7981 3.619,-10.2895 3.9924,-26.7619 -10.339,-28.5943 -11.6381,-1.4857 -23.3448,11.6495 -31.7867,18.0152 -24.4076,18.3733 -47.4667,37.9162 -74.4952,52.4952 -6.3505,3.4286 -29.5352,18.8038 -36.6133,13.021 -6.2781,-5.1314 15.5924,-23.1581 18.8724,-26.0914 13.5543,-12.1181 79.4133,-55.1771 53.6229,-78.6438 -16.4419,-14.96 -52.1486,25.0705 -66.0381,33.8095 -59.7562,37.6305 -130.194,57.0362 -200.434,58.499 -39.6419,0.8267 -79.1429,-7.5542 -118.842,-1.9352 -56.2971,7.9695 -107.95,30.8381 -164.96,37.7905 -38.1333,4.6514 -74.9562,-7.7676 -113.52,-0.2209 -90.8876,17.7829 -178.617,53.0781 -271.383,61.5086 -74.8,6.7961 -146,-14.6362 -219.947,-15.3333 -22.739,-0.2134 -50.4457,1.3181 -72.7238,5.9504 -15.3943,3.1962 -31.84,11.7829 -47.8895,10.0267 -24.2133,-2.6476 -56.141,-36.9714 -74.499,-52.1752 -34.3086,-28.4076 -67.2571,-59.3981 -102.88,-86.1029 -34.1219,-25.581 -78.9486,-55.0438 -95.7181,-96.0267 -13.6305,-33.3181 -7.1505,-71.9162 -14.8152,-106.427 -17.2952,-77.8971 -80.2933,-141.851 -164.396,-134 z m 5807.28,902.895 c -108.876,7.6457 -188.712,46.5371 -265.337,124.442 -30.6857,31.1886 -53.4248,70.4952 -86.1181,101.006 -26.4648,24.7162 -55.2686,46.9219 -84.8914,67.7181 -13.5695,9.5276 -32.8152,20.2095 -37.2838,37.6648 -3.44,13.36 9.1352,21.1124 19.5467,25.7067 16.2667,7.1886 79.0743,11.7714 81.4705,29.4362 2.2857,16.8305 -6.2095,35.12 -9.5086,51.2838 -6.1371,30.0762 -10.0914,60.0229 -14.0648,90.4648 -3.3181,25.4019 1.7905,52.301 0.3886,78.0419 -2.7124,50.2438 -11.779,103.322 -22.1524,152.545 -28.221,133.954 -91.0286,280.396 -180.465,384.907 -120.225,140.461 -281.493,233.177 -433.912,333.2 -88.2629,57.9124 -170.282,120.56 -251.874,187.307 -93.459,76.4838 -190.712,153.482 -274.682,240.541 -24.1943,25.0971 -44.7886,53.7981 -68.3238,79.4629 -7.1505,7.8057 -20.739,23.981 -31.859,25.4171 -9.6114,1.2229 -4.24,-17.1695 -3.4057,-21.6229 4.6286,-24.9714 10.3429,-49.6114 15.3448,-74.4952 20.5371,-102.187 44.9638,-216.507 35.9162,-321.051 -10.2857,-119.124 -38.1867,-226.918 -85.6724,-337.013 -26.4648,-61.3714 -68.1981,-116.411 -87.3752,-180.922 -28.6286,-96.3352 -0.32,-199.745 -15.9962,-297.992 -23.9314,-149.901 -188.979,-286.514 -344.217,-259.863 -70.6133,12.1219 -129.928,44.64 -178.899,96.6781 -31.68,33.6724 -51.8133,76.2095 -92.4838,100.518 -48.621,29.0362 -145.379,69.459 -131.882,140.712 8.1067,42.8381 82.4457,16.6552 112.37,16.0152 37.4438,-0.7771 79.6952,1.0133 109.512,27.6 16.0876,14.3695 27.3676,36.5752 40.0495,53.9429 17.0095,23.3067 35.4057,49.1124 31.4324,79.8171 -3.1391,24.32 -21.5695,40.8838 -38.739,56.4762 -33.0438,29.9962 -68.3429,55.4819 -105.006,81.0781 -91.421,63.7867 -180.072,122.888 -278.48,175.745 -57.5429,30.9181 -123.524,51.3143 -177.375,88.1562 -21.4819,14.6857 -39.84,34.2324 -62.0838,47.9276 -43.4743,26.7276 -93.3524,44.3581 -138.35,68.4838 -102.434,54.9333 -205.65,115.844 -299.764,184.255 -126.88,92.221 -244.869,199.512 -365.394,299.802 -32.3543,26.9067 -65.3829,53.2495 -97.5581,80.4381 -19.6533,16.6057 -44.5029,40.301 -69.1771,48.6362 -19.4933,6.5829 -45.2648,2.4305 -65.6267,2.4305 -41.4705,0 -82.7276,1.1886 -124.164,0.8343 -30.3505,-0.2667 -61.5848,2.3238 -92.2362,2.7504 -11.5124,0.16 -25.7905,4.3086 -36.8762,0.141 -16.2667,-6.1371 -4.061,-27.5276 1.0286,-37.4248 18.4648,-35.901 39.04,-70.6857 57.7714,-106.427 6.5104,-12.3962 19.4057,-41.8438 -4.2743,-45.2495 -14.1371,-2.0191 -26.1105,9.8095 -35.3867,18.7505 -23.6076,22.739 -41.4362,47.7676 -60.2362,74.3924 -20.2019,28.5752 -48.0686,82.3733 -78.24,100.164 -11.7067,6.9181 -29.2152,5.3562 -42.4457,6.6857 -29.6762,3.0171 -58.979,5.8019 -88.6895,8.301 -18.64,1.5771 -68.5562,12.6286 -83.9695,1.1885 -13.7981,-10.2362 7.7866,-44.6629 12.8267,-56.0343 20.1143,-45.3905 36.5714,-93.0324 52.2171,-140.126 3.9924,-11.9733 16.0876,-39.9086 0.5866,-48.4419 -17.9695,-9.8628 -37.9962,40.2476 -44.3619,51.9886 -35.3676,65.0629 -66.621,138.301 -112.952,196.64 -16.3733,20.6095 -56,14.4724 -79.7676,17.0095 -77.459,8.2857 -156.32,3.3715 -234.133,9.8438 -140.499,11.7067 -281.851,9.1353 -422.156,21.9238 -175.646,16.019 -349.745,50.3581 -525.032,67.76 -94.2552,9.3448 -188.248,31.2152 -282.027,45.3905 -15.69896,2.3734 -85.39806,6.7581 -79.67996,33.0971 2.43429,11.2267 16.5486,8.0343 24.6933,8.4077 18.32,0.8495 33.8667,11.3867 53.21516,11.44 58.32,0.1409 117.333,8.1409 175.6,12.061 20.8229,1.4019 45.0667,-6.1181 65.2876,-1.1696 16.7886,4.1143 0.1867,30.0648 20.0114,35.3676 24.5448,6.5829 54.64,-5.9771 79.661,-5.8362 13.28,0.072 25.6305,5.661 39.021,5.6077 54.5562,-0.2667 110.244,-8.1257 164.96,-10.3962 85.1048,-3.5467 170.282,-6.6857 255.421,-6.6857 16.0533,0 29.5505,10.1981 46.1181,9.9504 27.8667,-0.4419 55.5543,-7.84 83.3676,-10.0381 50.1981,-3.9733 100.571,-5.2152 150.77,-9.7943 83.0286,-7.5885 167.07,-4.8419 250.099,0.3391 20.0419,1.2571 70.579,-4.3124 85.3867,10.7124 7.9467,8.0343 0.461,20.7162 -4.1676,28.4152 -13.5505,22.5257 -28.5029,44.3086 -41.0438,67.4019 -47.3067,87.021 -78.3124,187.116 -87.2686,285.577 -1.6838,18.4648 -3.3714,92.3238 20.5943,95.6229 20.5029,2.8381 21.4629,-38.0495 24.5638,-51.28 13.9086,-59.261 32.16,-117.581 55.661,-173.829 24.8876,-59.5276 47.661,-119.356 76.1829,-177.375 9.2419,-18.8 16.9943,-50.8724 33.8629,-64.0305 15.3257,-11.939 48.5105,-3.3714 66.8152,-3.3714 47.8743,0 95.8743,1.4019 143.676,3.3866 19.9352,0.8343 46.4533,-3.299 65.4133,3.3867 11.4438,4.0267 9.741,15.5048 8.1067,25.1543 -4.2743,25.2229 -4.7695,50.8343 -6.4724,76.2705 -5.9238,88.9029 15.219,169.608 24.9029,257.196 2.6057,23.661 -0.7086,80.1029 33.9505,82.461 23.7143,1.6152 26.1448,-51.6876 29.7981,-68.2705 12.3086,-55.8933 19.5657,-113.059 34.2514,-168.507 6.3695,-24.0876 24.7276,-58.2857 20.08,-83.3143 -6.3848,-34.3924 -39.2533,0.7619 -50.3771,9.9695 -5.0895,4.2019 -14.099,9.7181 -16.7619,0.141 -7.4324,-26.9067 14.4229,-70.4 19.92,-97.0781 2.1638,-10.5371 4.3657,-23.3257 16.4267,-26.6971 14.8267,-4.1143 36.0762,2.2705 51.3486,3.2838 40.7086,2.7314 87.181,9.1695 127.71,5.1238 34.96,-3.4743 72.6705,-27.7562 108.198,-14.0267 33.3295,12.8952 61.8514,39.9962 90.4648,60.6438 28.5029,20.5752 61.8476,36.6286 94.0076,50.621 40.8305,17.7752 85.5848,16.1943 125.935,33.1543 23.0971,9.699 38.5981,30.3124 62.0838,40.0495 52.1105,21.5848 105.962,24.1752 159.638,38.6667 33.219,8.9752 61.6914,29.6038 95.7829,38.0648 70.9676,17.6343 131.539,10.6781 202.206,0.8 27.1733,-3.7943 54.9676,-2.0762 81.5924,-9.1695 21.3219,-5.6953 61.2152,-10.9448 79.1467,-22.7924 20.3619,-13.4629 35.741,-45.181 53.92,-62.739 61.7981,-59.6876 120.743,-124.038 186.21,-179.539 28.7352,-24.3543 52.9638,-50.0571 85.1429,-70.1867 8.8495,-5.5353 23.8895,-19.3181 35.1543,-14.7048 29.5848,12.1676 -27.741,62.1333 -37.4248,72.6857 -49.3486,53.8705 -111.802,110.594 -146.175,175.604 -5.9429,11.2267 -33.8971,55.3219 -24.4419,66.9219 4.5752,5.6228 15.7295,3.9581 22.1181,4.5257 20.3086,1.7905 40.4038,13.1238 58.5333,-0.4991 61.779,-46.381 106.99,-107.364 182.697,-134.13 38.4876,-13.6038 78.5067,-24.1067 118.842,-29.9048 20.2362,-2.8914 49.7181,-4.2057 63.7638,-20.7886 31.7181,-37.4286 40.6895,-91.0476 76.3276,-126.876 8.9029,-8.96 26.6057,-36.259 41.7867,-26.2895 15.3638,10.0571 3.1771,30.9524 -1.4362,43.5467 -10.7314,29.2114 -27.8286,52.6819 -42.461,79.8171 -4.5257,8.4077 -13.9086,24.5676 -9.6495,34.4114 3.4209,7.9124 16.9905,8.7467 24.2095,10.6438 17.7562,4.6286 70.6667,13.1429 72.1943,36.5029 0.8152,12.3619 -12.5257,16.9943 -22.5295,15.7867 -32.7962,-3.9542 -81.7867,-11.299 -113.341,2.6248 -19.6381,8.6552 -29.4438,40.2286 -38.9181,57.8971 -18.3733,34.3048 -45.2495,70.701 -72.0686,98.9029 -15.8362,16.6743 -45.5467,25.6838 -54.8952,48.2476 -4.4533,10.7657 8.5295,15.1276 16.7086,15.7867 26.179,2.1295 51.741,4.7009 78.0457,5.6762 7.52,0.2819 28.061,2.9257 21.7981,15.3257 -9.7029,19.1733 -58.8533,12.2552 -76.7848,14.4 -80.3505,9.5962 -160.686,14.8114 -241.23,20.1867 -158.983,10.6057 -315.25,37.5314 -473.592,52.3962 -102.133,9.5962 -206.13,10.1448 -308.636,11.6914 -56.2971,0.8495 -114.51,4.8952 -170.278,12.7695 -23.3981,3.3181 -65.7181,16.461 -88.2286,8.2133 -18.2324,-6.6705 11.7981,-42.9981 17.2762,-51.7257 26.1105,-41.5581 62.4914,-75.2229 89.3105,-115.291 5.5162,-8.2324 33.5238,-33.3295 19.2267,-42.979 -14.3657,-9.6838 -57.4324,23.059 -69.5124,31.2724 -45.9238,31.2152 -75.7943,77.901 -103.341,125.227 -13.4971,23.2 -19.1543,56.1219 -43.901,70.061 -34.5333,19.4438 -72.3848,20.099 -109.954,27.9581 -35.6686,7.4476 -68.9638,23.4667 -104.651,30.72 -32.6362,6.6172 -66.461,4.2933 -99.3295,10.1105 -106.495,18.8533 -215.246,35.8286 -321.051,58.96 -55.7486,12.1829 -112.046,33.1162 -168.507,40.7429 -29.619,4.0076 -19.9543,-39.6267 -18.3733,-57.6305 5.5162,-62.88 22.7733,-126.697 38.1181,-188.019 2.4114,-9.6838 19.4743,-68.6057 2.8724,-70.3086 -7.84,-0.8 -14.5638,10.1257 -18.659,15.341 -13.7829,17.5086 -25.2229,35.7752 -32.8152,56.7429 -23.2381,64.2286 -46.4381,124.693 -53.3371,193.341 -2.0762,20.6095 7.5924,60.2362 -15.4857,70.4152 -35.0857,15.4667 -77.8324,18.3962 -115.17,25.7371 -67.9352,13.3562 -136.225,27.619 -203.981,42.3962 -25.2419,5.4972 -50.7124,9.2914 -76.2705,12.8038 -6.7581,0.941 -20.9486,5.3943 -25.5276,-2.0762 -5.7981,-9.4362 14.8495,-38.541 18.7695,-48.1752 19.101,-47.0743 31.181,-97.2724 47.341,-145.448 3.8476,-11.4933 19.7219,-56.3695 1.6114,-61.1581 -12.5562,-3.3181 -24.8495,17.2571 -30.56,25.6838 -15.1848,22.3848 -28.3276,48.7771 -41.0819,72.7238 -5.0552,9.4895 -8.3162,23.3067 -16.5486,30.579 -8.3009,7.3638 -15.4857,-3.8285 -17.7181,-11.0857 -3.6381,-11.7752 -4.56,-78.2743 -32.141,-43.9886 -37.1429,46.1905 -9.8971,111.128 -23.7867,162.85 -3.5657,13.2686 -5.4629,30.0457 -15.821,39.9962 -20.6133,19.76 -74.9067,18.8571 -102.221,25.0819 -87.581,19.92 -174.998,40.1943 -262.518,60.3086 -48.3581,11.12 -93.2,32.0152 -140.126,46.9333 -57.6952,18.3238 -116.701,32.6362 -173.829,53.0171 -53.4781,19.0857 -105.025,44.5219 -157.863,65.2762 -84.81139,33.3257 -172.75799,60.5181 -258.96799,88.9333 -42.7429,14.0838 -82.3276,33.5771 -124.164,48.9905 -45.0171,16.5676 -91.5162,27.6724 -136.579,44.2552 -19.2495,7.0781 -74.9143,21.6762 -76.0381,46.899 -0.70857,15.8933 15.059,15.52 26.3733,14.4571 27.6152,-2.5905 54.9295,-8.1066 81.5924,-15.8057 91.5314,-26.3733 185.909,-47.1467 276.705,-75.0476 24.461,-7.52 47.1733,-16.1943 72.7238,-19.7219 5.93905,-0.8152 19.1467,-5.1466 24.1905,-0.4076 6.30476,5.9391 -17.2076,17.1695 -20.6438,19.1543 -21.68,12.5752 -45.7105,23.4667 -65.28,39.3067 -7.7219,6.2438 -15.9352,18.5371 -5.9619,26.96 13.2419,11.1924 47.5771,-1.8781 62.3733,-5.5695 57.939,-14.4533 114.236,-30.9143 170.28199,-51.1886 70.0724,-25.3295 138.625,-58.4114 211.078,-76.6438 16.9486,-4.2591 35.7029,-1.2762 53.2114,-4.0457 55.0629,-8.7429 109.893,-18.1981 164.96,-26.64 77.8781,-11.9733 155.985,-32.4952 234.133,-40.7086 294.907,-30.9714 584.118,-100.998 879.783,-129.326 323.143,-30.9676 646.644,-18.4114 970.248,-43.6876 132.606,-10.3581 264.465,-32.8495 397.318,-38.381 64.141,-2.6819 127.802,6.7733 191.566,6.9333 55.661,0.141 111.162,2.8572 166.735,5.1619 24.9752,1.0476 56.1562,-4.0457 79.8019,5.5353 49.68,20.1676 -4.2933,65.699 12.1143,97.3943 13.5162,26.1295 53.1581,6.0685 48.2819,46.2248 -3.5848,29.5848 -41.8438,47.4857 -51.0857,76.2705 -3.9009,12.1867 -2.2514,31.699 13.8171,33.5086 39.0781,4.3809 59.7752,-58.941 95.6076,-59.4552 12.0952,-0.16 12.4838,13.7257 11.3143,22.4 -2.7657,20.4 -2.7505,48.0343 26.0571,45.4438 26.9981,-2.4305 48.9905,-28.2895 72.7238,-39.2533 68.8762,-31.8552 140.712,-71.9429 218.171,-76.8724 94.2057,-6.0153 188.091,20.1676 280.255,36.4838 124.213,21.9962 252.278,37.9771 377.81,51.741 65.5733,7.2 134.522,13.2495 200.434,10.6781 26.5867,-1.0477 71.2343,-18.2857 95.7829,-9.8972 28.8038,9.8438 70.8419,65.2038 84.6248,91.6495 26.8914,51.581 -4.0609,110.027 0.5143,164.96 1.6495,19.7067 12.061,52.4686 2.0914,70.6476 -10.2514,18.6971 -39.4095,33.0286 -55.3029,47.2533 -35.8476,32.0876 -70.2781,67.6495 -101.973,103.817 -107.882,123.029 -209.322,269.611 -274.152,420.381 -31.1124,72.3505 -59.2076,145.128 -78.4724,221.718 -5.9771,23.7676 -23.0743,62.6324 0.6934,80.7771 8.4609,6.4572 20.8076,14.2629 30.0838,5.0019 12.4495,-12.4343 12.9105,-32.7086 17.8248,-48.5295 10.2171,-32.8495 23.3981,-64.7429 33.8248,-97.5543 60.3086,-189.848 168.278,-373.52 294.301,-526.808 34.3429,-41.7524 76.9829,-84.6438 118.667,-119.07 10.0724,-8.32 31.68,-32.8876 46.08,-25.7562 15.36,7.6267 25.8971,27.7943 34.1981,41.9505 26.2705,44.7314 30.6857,98.7429 26.6248,150.77 -1.2762,16.3886 1.7219,37.8667 -4.6819,53.1924 -11.4781,27.4933 -57.7181,43.9352 -78.1867,65.7562 -43.0514,45.8324 -90.5676,85.6 -128.316,136.472 -18.179,24.4952 -28.7162,51.6343 -43.3676,78.0419 -21.5848,38.9181 -30.9333,82.8533 -39.9086,125.939 -2.7848,13.2838 -10.9067,36.7886 -0.3353,48.2095 7.341,7.9276 17.4362,4.8419 26.48,2.6095 30.579,-7.5581 31.699,-29.341 43.0667,-56.141 13.021,-30.7048 26.659,-59.2267 42.3771,-88.6895 6.8648,-12.8952 12.9486,-30.0457 24.9029,-39.1276 31.04,-23.5733 91.7219,-26.5714 129.112,-32.6895 19.2457,-3.139 66.16,-19.2267 83.9314,-9.2952 6.4572,3.6 0.072,11.7257 -2.7657,15.5048 -10.6057,14.2057 -24.5295,27.7943 -31.4667,44.3238 -13.9429,33.2229 -39.6952,64.8495 -65.7867,90.1067 -14.3352,13.8895 -37.5162,26.4305 -46.4571,44.701 -6.739,13.7638 5.2876,35.7219 15.52,45.139 11.9733,11.0514 24.6019,1.4209 38.1562,2.9295 12.3276,1.3829 22.739,10.019 35.4743,11.5276 21.3371,2.5372 42.5676,-2.4838 63.8552,0.2324 31.4286,4.0267 61.0857,-2.0571 92.2362,-1.1886 133.863,3.741 263.01,-7.0438 395.547,-28.9295 45.9581,-7.5924 91.5771,-14.7962 134.804,-32.781 13.7829,-5.7485 35.6343,-10.96 40.5295,-27.1543 11.8514,-39.2 -65.8743,-25.3143 -83.0971,-22.1905 -99.2076,18.0038 -204.446,32.7619 -305.09,38.4533 -27.6876,1.581 -55.7829,1.7905 -83.3638,4.2934 -4.4533,0.4076 -23.9276,3.5314 -25.1886,-3.3334 -1.5238,-8.3733 41.2952,-23.7714 48.2476,-25.8819 55.9619,-17.0629 113.074,-28.4305 170.278,-41.3448 57.0629,-12.861 110.914,-19.6343 168.507,-28.2743 18.4114,-2.7657 34.2514,-12.8229 53.2152,-13.7295 120.579,-5.6571 233.371,26.3581 347.653,59.4057 29.4971,8.5295 47.6267,24.9905 72.7238,41.1124 23.219,14.9029 46.4571,24.3924 67.4057,43.3524 12.9295,11.6876 41.2724,47.5886 60.2171,44.381 35.8667,-6.0495 -8.2286,-48.2819 -10.5714,-60.701 -1.5962,-8.5143 5.501,-16.6552 10.1105,-23.059 22.5257,-31.2876 55.0057,-52.7162 83.9162,-77.4057 33.4895,-28.6095 64.0495,-60.5714 97.5581,-89.1467 11.6876,-9.9695 67.4362,-38.2438 46.4381,-59.0133 -11.7981,-11.6533 -31.0057,5.5848 -41.1162,11.7943 -37.5505,23.0781 -72.0152,49.7905 -108.202,74.7467 -42.2667,29.1429 -105.219,86.861 -159.638,87.6952 -14.1524,0.2286 -28.7886,-11.1048 -40.7962,-17.5429 -30.0648,-16.0876 -68.5029,-31.1848 -95.0552,-52.1676 -9.7714,-7.7143 -21.7448,-63.5162 -9.1886,-69.1581 15.3105,-6.8838 39.7333,-4.2209 56.3543,-4.9143 34.4648,-1.4362 68.2514,-4.8762 102.876,-5.3562 13.6419,-0.179 47.0248,-2.1981 38.4038,-24.6362 -6.8838,-17.8971 -32.2286,-14.1714 -47.2724,-14.3848 -30.579,-0.4076 -61.8514,-3.6038 -92.2362,-6.7961 -9.8438,-1.0286 -26.1067,1.5085 -34.6933,-3.4743 -17.6114,-10.2705 14.9714,-71.501 -23.821,-65.8438 -27.8819,4.0647 -23.36,55.9086 -44.8571,70.0305 -21.2343,13.9581 -66.8914,10.019 -91.741,11.3143 -10.0381,0.5142 -22.9676,2.1104 -27.8476,-9.0438 -4.4876,-10.2895 0.4077,-24.4076 0.9943,-35.1733 0.9753,-17.4552 -1.4895,-36.9829 11.7943,-50.7657 12.56,-13.0362 37.1619,-12.6819 54.0838,-13.0362 41.4857,-0.8534 82.5143,-4.9677 124.16,-3.4439 16.8343,0.6058 78.2933,-2.0571 72.8838,-28.4838 -3.5124,-17.2267 -28.4305,-23.3257 -42.7276,-27.7448 -38.0114,-11.7943 -77.8324,-10.7314 -117.07,-13.2114 -11.6533,-0.7276 -38.0114,0.1943 -45.7257,-10.1105 -7.04,-9.3866 5.4286,-27.4933 9.8972,-35.901 14.4914,-27.299 45.3562,-29.1962 73.0781,-33.9695 67.5276,-11.6 140.926,-20.2019 209.303,-14.2057 24.8,2.1639 49.7562,9.8781 74.499,10.5867 9.7028,0.2858 21.3562,-2.8723 23.219,-13.9924 3.8476,-22.9181 -35.5276,-28.5943 -49.8248,-36.6133 -54.6667,-30.6133 -145.909,-21.1238 -205.756,-12.3619 -12.5067,1.8439 -72.2286,12.4152 -67.0133,-7.7142 5.5009,-21.1962 25.0629,-37.4971 40.16,-51.9886 15.5886,-14.9371 31.2533,-34.6438 51.6876,-43.0857 18.5181,-7.6458 42.3924,-5.4629 62.08,-6.0648 44.3429,-1.3486 83.8629,-1.2076 127.71,6.7048 34.3581,6.2057 64.6895,18.4114 97.5581,28.4305 9.7181,2.9638 21.0171,0.64 24.0876,-10.3581 5.1619,-18.5333 -20.4343,-28.7886 -32.96,-35.4552 -41.859,-22.2629 -92.48,-30.1714 -138.35,-39.3257 -9.2953,-1.8629 -52.2552,0.6209 -52.2552,-12.541 0,-10.339 18.499,-20.1486 25.6495,-25.5429 29.3371,-22.099 60.8724,-41.0438 92.2324,-60.0419 127.181,-77.0133 247.086,-159.299 392,-201.497 43.4248,-12.6286 84.6286,-30.7733 127.71,-44.1829 12.9486,-4.0267 34.7314,-14.0152 28.7543,-31.52 -5.021,-14.6857 -25.3486,-13.1619 -37.6229,-12.2057 -37.0362,2.9295 -73.3981,8.8 -109.973,15.0438 -153.482,26.2705 -305.28,112.171 -432.796,198.446 -35.9543,24.339 -70.099,51.6724 -106.423,75.3524 -4.221,2.7466 -31.4857,24.4038 -34.9067,18.64 -4.9677,-8.3734 16.0152,-32.1219 20.6629,-38.3467 27.6686,-37.181 55.0743,-74.6248 85.0705,-109.973 54.9486,-64.7962 104.899,-132.857 162.952,-195.116 25.3829,-27.2076 53.6381,-62.4876 87.2686,-79.7638 18.7848,-9.6496 41.6495,-7.1467 62.0838,-7.1467 35.44,0 69.76,0.4609 104.651,-6.5638 13.4095,-2.7162 32.7771,-3.9543 43.6152,-13.021 10.9981,-9.1886 6.8457,-23.379 -4.7543,-29.5848 -20.381,-10.9105 -44.9448,-13.3943 -67.2419,-17.5962 -6.3848,-1.2076 -23.501,-3.7943 -17.1886,-14.0495 7.8933,-12.7886 29.0743,-22.0457 42.0229,-28.6819 41.5924,-21.2838 85.8286,-32.1562 131.257,-41.5924 14.7924,-3.0857 57.3257,-6.3695 47.3219,-31.4476 -5.9238,-14.8838 -28.3086,-16.5333 -42,-17.2952 -27.7067,-1.5619 -54.4571,6.4571 -81.5962,9.8781 -18.4457,2.3238 -35.2952,-0.3353 -53.2114,6.7771 -62.9867,24.9562 -116.998,77.8133 -180.922,98.8495 -27.3181,8.9753 -60.221,7.5391 -88.6895,10.6629 -46.9867,5.1238 -95.9429,13.5314 -141.901,24.3162 -33.7867,7.9124 -67.5429,19.9924 -101.101,29.3219 -7.7524,2.1638 -28.0267,13.4248 -35.1924,6.8267 -9.2229,-8.4762 23.9276,-47.4629 28.9105,-55.9771 34.0914,-58.2705 68.3619,-117.371 105.345,-173.829 96.4381,-147.257 164.8,-308.899 248.682,-462.952 41.8057,-76.7657 89.4667,-151.566 133.596,-227.04 10.8038,-18.48 29.1086,-29.8324 38.419,-49.6648 31.84,-67.8095 71.9619,-140.004 95.04,-211.078 20.9105,-64.419 29.9429,-131.859 38.579,-198.659 22.0838,-170.724 24.0686,-366.438 -36.1295,-530.354 -20.9333,-56.9905 -53.4629,-115.31 -90.48,-163.185 -14.7048,-19.0133 -34.0571,-33.7371 -48.1067,-53.2114 -49.3638,-68.4495 -95.2686,-151.158 -128.472,-228.815 -15.7524,-36.8229 -14.72,-83.0286 -18.9448,-122.389 -6.6667,-62.2057 -18.2324,-123.703 -22.259,-186.244 -3.12,-48.461 11.459,-116.651 30.0305,-161.413 5.5695,-13.4362 17.1848,-23.5276 22.0305,-37.2495 4.2933,-12.1448 -0.8686,-24.979 3.2266,-37.2457 9.1353,-27.219 38.7733,-73.6495 60.1143,-92.9943 22.3467,-20.2362 66.7619,-37.7105 97.0933,-36.1029 21.2686,1.1276 56.1219,11.6305 76.1295,3.7981 17.8095,-6.9714 17.5619,-31.139 14.7238,-46.7581 -13.1429,-72.339 -88.9905,-86.6362 -145.84,-113.223 -25.4705,-11.9124 -56.9524,-21.1886 -79.7105,-37.7067 -47.5733,-34.5295 -87.9276,-79.9352 -145.554,-100.514 -35.581,-12.7086 -85.0895,-11.0552 -122.389,-8.4381 z m 714.823,2347.22 c -25.6305,5.0705 -44.8762,27.5962 -63.8552,43.6686 -41.6838,35.3143 -84.1486,68.8038 -121.253,109.246 -38.1029,41.5048 -83.0476,75.9505 -121.398,117.067 -80.5638,86.3467 -150.876,190.785 -193.676,301.539 -27.4057,70.88 -72.7048,135.623 -102.983,205.756 -4.9486,11.44 -40.2476,69.4057 -8.6933,69.4933 20.7695,0.072 40.9752,-28.5752 49.1162,-44.6629 26.8533,-52.9638 53.0171,-106.83 86.4,-156.088 26.2171,-38.6514 55.8552,-74.819 81.9657,-113.52 16.7962,-24.9067 31.8552,-56.9562 54.0114,-77.3714 65.539,-60.381 168.381,-92.5905 251.676,-118.842 49.2038,-15.52 99.7219,-24.4419 148.994,-38.9714 14.0686,-4.1486 42.8038,-11.6 41.4705,-30.8076 -1.8972,-27.3524 -51.5276,-25.2229 -69.8476,-24.8533 -74.4267,1.5619 -139.897,38.0648 -207.531,63.9276 -19.581,7.4857 -38.8457,15.84 -58.5333,23.0248 -3.6343,1.3295 -16.621,7.219 -18.0914,0.2476 -1.421,-6.6895 7.5009,-15.2 11.1733,-19.8476 12.9676,-16.3543 25.8095,-32.4267 39.821,-47.8933 57.9124,-63.9619 124.499,-119.71 185.215,-180.96 14.8457,-14.9676 32,-34.4076 38.4571,-54.9486 5.0362,-16.0343 -5.7676,-28.5067 -22.4381,-25.2038 z m -3198.35,218.434 c -67.6876,-8.1752 -134.735,55.3257 -180.659,94.1181 -11.2114,9.4705 -60.9295,55.0019 -30.0648,63.9619 20.3086,5.9048 55.52,15.8552 76.1486,8.9371 12.3086,-4.1295 20.0419,-17.7905 28.5905,-26.781 20.9676,-22.1029 42.2171,-43.9733 61.7105,-67.4057 14.3848,-17.2762 29.7981,-33.7181 43.6533,-51.4362 4.8952,-6.2628 14.579,-19.7067 0.621,-21.3943 z m -2857.08,18.5714 c -22.259,7.9657 -33.6648,65.6305 -38.4,86.1867 -20.3124,88.2286 -52.061,182.343 -54.0648,273.162 -0.6743,30.1524 -4.9524,60.2895 -5.1886,90.461 -0.072,9.0971 2.1029,26.1257 15.4933,23.0057 10.2324,-2.3771 11.2267,-16.9067 14.8267,-24.781 10.6438,-23.2343 20.1143,-40.2095 25.8095,-65.6305 16.5676,-73.9467 28.0419,-147.611 42.8381,-221.718 4.6819,-23.4324 14.701,-45.5657 18.5524,-69.1771 3.6534,-22.56 8.7429,-51.8819 3.8476,-74.48 -2.2323,-10.2514 -12.2895,-21.1048 -23.7143,-17.0286 z m -292.85,121.257 c -33.3257,0.9029 -56.9524,33.1848 -79.8171,52.9448 -17.1276,14.7924 -36.4952,25.5771 -53.2114,41.1162 -106.533,99.101 -206.537,193.322 -279.379,321.406 -27.6876,48.6895 -40.4686,90.1752 -41.7333,145.448 -0.2362,10.3771 -13.8476,47.7295 5.4705,47.7295 16.8533,0 19.3562,-29.0705 23.021,-40.6362 14.2971,-45.1238 32.8076,-89.9657 59.0781,-129.482 51.5352,-77.5162 110.065,-143.55 171.455,-212.853 46.32,-52.2895 96.5524,-110.663 154.324,-150.236 19.4705,-13.3219 44.0267,-30.6324 58.3848,-49.5048 10.4457,-13.7295 -3.3448,-26.3429 -17.5924,-25.9314 z m 5725.6,647.135 c -44.3962,0.1067 -89.7676,14.0648 -132.945,22.8648 -58.0533,11.8286 -142.857,15.2724 -191.067,52.9105 -15.8933,12.4152 -32.2286,43.139 -40.5143,61.4971 -10.499,23.219 -9.6648,49.68 -12.4495,74.4952 -4.1524,36.7886 -11.299,74.5181 -21.9962,109.973 -18.4114,60.9829 -60.0229,103.623 -99.9695,150.77 -8.1219,9.5962 -35.4933,59.12 -6.2781,61.9733 34.2324,3.3562 85.0857,-20.1105 118.629,-28.4838 13.5505,-3.3905 31.0781,-3.939 42.019,-13.3562 12.8076,-10.9981 19.7981,-29.0743 28.5067,-43.1924 19.4743,-31.5886 37.3562,-64.1371 56.7238,-95.7829 48.5295,-79.3219 106.107,-155.131 167.09,-225.265 28.0229,-32.2133 55.8552,-64.3695 84.7657,-95.7829 6.4914,-7.0629 32.0533,-32.6743 7.4857,-32.621 z m -3226.37,47.181 c -20.6095,6.3848 -37.6571,25.3486 -53.2114,39.2381 -39.3257,35.0819 -76.2895,75.5962 -111.657,114.709 -15.4514,17.0781 -36.2552,47.5695 -58.6248,55.3562 -13.779,4.7733 -31.8895,-7.3943 -44.3429,-12.4495 -34.9067,-14.1752 -70.1714,-26.7505 -106.427,-37.0743 -125.227,-35.6152 -243.196,-48.6705 -372.488,-57.4857 -39.7486,-2.7124 -80.7048,-14.72 -120.613,-7.5391 -13.0743,2.3581 -38.6514,14.5295 -31.2914,32.0152 4.8952,11.6914 21.1962,9.12 31.2914,9.7943 30.1867,2.0191 60.3238,0.8153 90.461,3.9543 33.6457,3.5276 67.4552,1.3105 101.105,6.3657 89.1276,13.36 180.141,40.6019 264.29,72.4229 33.9314,12.8267 66.5333,27.1048 99.3295,42.5371 9.4705,4.4686 29.3714,11.4057 24.8686,25.2038 -6.7429,20.6629 -29.4095,40.1029 -42.8724,56.6895 -29.2495,36.08 -57.2381,73.8781 -84.1295,111.745 -52.2362,73.6114 -105.059,149.44 -148.232,228.815 -23.2914,42.8381 -44.0952,109.425 -80.0495,142.682 -22.1905,20.5219 -54.2057,34.3771 -79.3219,51.4552 -64.6362,43.9733 -133.6,93.8705 -184.594,153.52 -52.9295,61.8857 -98.3924,126.042 -144.35,193.341 -10.9257,15.9962 -22.259,32.2095 -33.7524,47.8019 -2.061,2.7657 -9.3143,12.9295 -13.6762,8.3162 -8.141,-8.6552 7.2533,-41.4171 10.3924,-50.8 16.4267,-49.3105 32.2133,-98.1943 49.5962,-147.219 82.3543,-232.469 228.724,-408.602 419.261,-561.714 49.1695,-39.52 103.977,-71.9086 152.545,-112.244 11.9543,-9.9314 43.0819,-41.539 17.2762,-55.2686 -19.6381,-10.4648 -55.0933,16.1752 -72.2629,24.1752 -70.2057,32.7962 -140.8,77.3905 -200.434,126.469 -55.379,45.5695 -113.025,81.7524 -160.598,136.918 -120.19,139.345 -186.438,325.375 -241.497,498.423 -9.8971,31.059 -16.4229,62.8267 -25.5924,94.0114 -15.699,53.4248 -45.0743,121.394 -1.4895,169.958 28.0229,31.219 62.8419,-50.8876 73.1314,-70.6286 34.9219,-67.0476 93.0667,-120.438 144.72,-173.882 38.739,-40.0686 73.84,-83.4743 117.314,-118.682 26.6781,-21.6038 53.1771,-44.6286 81.5924,-63.9276 5.1619,-3.5124 21.9771,-18.6933 28.701,-14.72 8.3009,4.8953 -15.0933,43.44 -17.9505,50.16 -21.0019,49.2229 -40.3543,95.4476 -67.1733,141.901 -5.7105,9.8972 -15.2343,36.1486 5.0933,37.1086 27.9162,1.3295 41.1657,-25.3295 51.3829,-45.9771 22.0838,-44.6819 49.3105,-88.0305 74.0914,-131.257 24.9562,-43.5657 47.3067,-104.19 85.619,-137.695 24.9219,-21.8171 69.4248,-33.1352 100.979,-41.1886 91.5962,-23.379 199.23,-40.4419 278.072,26.659 13.1771,11.2267 3.3867,21.1276 -6.7048,30.2057 -19.421,17.4743 -41.5962,31.7524 -62.0648,47.981 -73.1505,57.9314 -143.886,129.166 -206.552,198.202 -12.5943,13.8705 -58.3924,55.1962 -45.6914,77.299 11.0857,19.299 32.0343,-11.2267 39.661,-18.1829 9.7372,-8.8685 22.9524,-10.8724 32.7962,-19.3143 25.4171,-21.7829 46.861,-47.4667 73.3638,-68.5029 62.2057,-49.4171 126.45,-99.4362 195.112,-139.577 17.3295,-10.1448 51.5276,-41.7714 72.7238,-32.141 24.6895,11.2114 44.2019,36.2933 63.8552,54.1714 57.4705,52.2362 105.253,114.141 161.41,167.284 15.8057,14.9524 66.179,68.4838 91.6152,55.2 28.2743,-14.7962 -28.5218,-67.3143 -40.4418,-78.8114 -56.743,-54.7352 -105.695,-116.465 -158.731,-174.8 -11.0705,-12.1714 -53.2648,-45.1086 -51.7752,-61.7829 1.0095,-11.1924 19.8819,-17.7181 28.0762,-22.56 28.6628,-16.941 58.0038,-29.9429 88.6895,-42.7124 122.263,-50.9257 250.7889,-119.09 384.888,-130.655 16.1751,-1.4019 16.9561,9.7715 10.9943,21.7981 -10.7467,21.6762 -23.7829,42.1295 -34.5333,63.8552 -44.4877,90 -94.701,178.743 -125.12,274.933 -7.7524,24.4952 -24.762,59.581 -24.301,85.1048 0.1942,11.299 15.6076,27.0514 27.421,25.7371 12.9867,-1.4552 21.0361,-20.9143 25.9161,-31.0248 15.1468,-31.4819 30.8801,-62.72 46.4724,-94.0076 47.7829,-95.9086 100.183,-188.815 158.876,-278.48 17.8971,-27.3524 32.5638,-57.4514 53.1048,-83.0286 29.4095,-36.5943 107.1541,0.3886 133.3681,-44.8229 27.0324,-46.5981 -69.7791,-24.7429 -76.3429,-43.8667 -3.6686,-10.7467 12.8267,-28.7352 17.7752,-37.5848 19.901,-35.5619 42.2667,-68.7162 64.4762,-102.876 50.781,-78.1181 111.623,-149.032 169.657,-221.722 13.0743,-16.3695 56.621,-57.8933 38.1181,-80.8648 -17.9657,-22.2971 -65.84,26.0381 -79.6762,37.7981 -70.1867,59.6686 -125.989,129.345 -181.116,202.705 -33.0819,44.0076 -65.6495,90.1448 -95.2,136.579 -15.6952,24.6743 -32.0152,62.0648 -55.8362,79.7143 -13.6571,10.1105 -36.5752,7.981 -52.7505,11.5657 -46.4724,10.3238 -94.08,17.8438 -140.13,29.5848 -111.958,28.541 -218.914,73.5048 -326.37,115.154 -27.9733,10.8343 -54.7924,24.1752 -81.5924,37.5848 -11.92,5.9581 -27.1048,17.0819 -40.7962,17.2571 -17.6838,0.2134 -40.4762,-22.5067 -54.9867,-31.7486 -33.3638,-21.2152 -65.8781,-36.221 -104.651,-44.6819 -52.381,-11.4248 -112.03,-15.7867 -164.96,-6.0838 -11.0324,2.0229 -55.0743,18.0229 -63.0552,9.2419 -6.1753,-6.7924 5.2304,-21.9048 8.5828,-27.7943 14.7048,-25.9848 25.4705,-54.0648 40.2476,-79.821 40.7619,-71.0743 86.541,-140.872 129.234,-211.074 21.9771,-36.1143 47.2343,-85.1429 82.1257,-110.453 18.3581,-13.3029 64.9181,23.5924 81.3448,33.6114 78.7352,48.0152 149.901,97.4705 211.752,167.303 17.3448,19.581 35.12,39.6952 53.9924,57.7867 8.0343,7.6991 19.0133,7.1657 22.2781,-4.7352 24.5676,-89.9124 -67.7219,-151.939 -124.838,-202.084 -25.8781,-22.7048 -52.2552,-44.5562 -79.8171,-65.1848 -22.2095,-16.64 -47.1124,-29.5352 -70.9524,-43.6533 -7.4324,-4.4 -21.5505,-10.3771 -21.5162,-20.7352 0.053,-15.8019 27.2267,-37.3371 37.5162,-47.7676 36.4686,-37.0171 81.68,-71.0552 113.752,-111.745 13.1086,-16.64 30.6324,-38.1524 31.2533,-60.3086 0.3886,-13.7295 -8.64,-29.3371 -24.4267,-24.461 z m 2476.16,130.175 c -62.56,6.4229 -122.69,20.1333 -186.244,20.221 -17.8971,0.019 -62.5257,-6.8648 -76.5562,5.6419 -10.7848,9.5962 1.3829,45.0171 1.8971,58.2133 1.4553,37.1619 -9.9847,80.6705 -26.9943,113.52 -48.141,92.9638 -149.566,159.375 -144.686,273.162 0.781,18.3924 -0.8342,81.7867 19.8476,89.84 13.3905,5.1962 36.1486,-9.5429 49.1162,-13.2152 37.5314,-10.6781 79.7295,-19.76 118.842,-19.8667 16.8686,-0.034 37.8514,-3.2114 53.1581,5.3029 8.6743,4.8266 15.7333,26.0914 25.2571,24.9219 19.4248,-2.3962 42.659,-25.5581 59.9352,-34.8876 52.8419,-28.541 105.185,-57.8629 157.867,-86.739 17.5924,-9.6496 61.7981,-20.1295 61.3371,-45.1962 -0.4266,-22.24 -24.0724,-35.9543 -38.2248,-49.8057 -26.6438,-26.0724 -49.9848,-53.1429 -62.6171,-88.5295 -22.0267,-61.8133 -5.6723,-135.653 5.3753,-198.659 3.2305,-18.3924 15.0248,-57.2381 -17.3105,-53.9238 z m -4682.72,18.3429 c -50.179,11.261 -97.4933,68.1486 -130.175,104.758 -47.4743,53.1771 -95.0629,112.846 -126.537,177.375 -34.6019,70.9333 -53.4629,149.455 -80.141,223.493 -19.661,54.56 -36.6514,111.23 -58.0571,164.96 -3.76,9.4362 -20.7886,51.8819 3.0705,50.5524 8.7695,-0.48 37.9543,-10.5371 43.3219,-17.581 17.0324,-22.2933 25.1505,-63.2152 34.96,-89.7333 14.019,-37.9048 34.5029,-74.019 49.6267,-111.745 58.7048,-146.442 187.501,-248.735 322.469,-322.648 47.0552,-25.7714 98.8686,-41.7181 150.77,-54.5257 11.8476,-2.9067 45.0324,-8.2286 38.3276,-27.101 -7.8743,-22.1181 -58.141,-8.2324 -75.5771,-6.2095 -79.7486,9.2228 -152.457,43.8133 -221.722,82.2133 -20.0762,11.12 -39.1276,23.8743 -58.5333,36.08 -2.7695,1.7562 -16.2324,11.8133 -18.979,6.1714 -4.5676,-9.4019 24.381,-35.3333 29.8705,-42.1257 34.0038,-42.1105 68.8914,-82.7276 103.623,-124.183 10.8571,-12.9486 29.3562,-57.7524 -6.3162,-49.7524 z m 3501.59,204.621 c -15.36,6.259 -23.8552,30.4533 -31.7829,43.8095 -24.9752,42.0762 -49.3295,87.2343 -66.64,133.032 -10.5562,27.8819 -26.2171,53.8705 -37.3371,81.5924 -55.699,138.728 -109.017,290.347 -133.6,438.118 -7.6114,45.7448 -20.1524,90.32 -24.48,136.579 -1.3486,14.4038 -5.3029,40.1943 3.2305,52.7505 5.9238,8.7276 15.501,7.0781 23.2686,12.3657 9.3486,6.3657 7.9314,28.5219 23.9467,25.2038 16.8,-3.4781 17.2229,-36.4876 20.701,-49.5238 13.3752,-50.1067 33.6114,-98.9219 52.3238,-147.223 66.96,-172.781 166.488,-335.398 308.53,-456.865 39.4286,-33.7181 84.8914,-59.4552 125.935,-90.941 10.659,-8.1752 41.7714,-24.9371 26.9067,-41.7905 -23.8019,-26.9943 -88.579,19.1924 -110.274,32.019 -98.4419,58.2476 -187.288,146.99 -255.47,238.305 -19.5657,26.1981 -37.2152,53.5848 -54.0495,81.5924 -2.5715,4.2743 -12.0952,24.8114 -18.499,23.4133 -5.5162,-1.2267 3.139,-25.261 4.0267,-28.7352 7.7333,-30.2781 14.899,-60.4686 23.821,-90.461 30.8456,-103.661 62.4723,-217.535 111.8019,-313.954 9.2229,-18.0419 26.32,-40.1943 29.4248,-60.3086 1.9353,-12.5219 -9.0628,-24.141 -21.7829,-18.979 z m -3082.98,105.413 c -22.9905,3.8324 -27.4933,23.52 -40.5486,38.8267 -13.2495,15.539 -32.8343,31.1314 -48.621,44.221 -13.5848,11.261 -21.6381,-3.7791 -33.2571,-10.0038 -12.9143,-6.9371 -30.2438,-6.2286 -42.2857,2.3048 -34.819,24.6895 3.299,47.5543 2.7505,72.3886 -0.301,14.3657 -13.9429,30.4 -18.2171,44.3086 -4.8267,15.7676 -1.2229,34.2133 -7.4133,49.2571 -4.9143,11.92 -19.3905,4.7161 -28.8076,4.3085 -20.2743,-0.9028 -34.5867,13.0019 -34.8,33.3486 -0.32,30.4876 33.5771,34.1257 42.8,57.0781 12.8419,31.9619 -6.3696,75.6686 -7.84,107.878 -0.6743,14.9714 7.6266,33.7752 3.1581,47.859 -9.3486,29.3714 -51.261,4.1676 -61.7105,33.8057 -10.3048,29.2495 27.28,42.5524 28.0419,67.3333 1.6152,53.1771 -31.8743,104.03 -31.7295,157.863 0.053,16.6362 1.7714,52.3962 26.5333,50.179 19.139,-1.7181 18.3238,-29.2114 20.4876,-43.0857 5.4285,-34.7276 15.5924,-89.9276 44.4495,-113.749 19.6,-16.16 54.7048,5.4972 65.7181,-29.9429 8.1409,-26.2133 -8.7619,-41.4171 -25.2038,-57.8743 -5.3219,-5.3409 -9.8096,-15.3638 -2.9981,-21.5695 7.6457,-6.9562 26.3924,7.6076 34.1981,10.4457 19.741,7.1848 45.4971,6.7772 63.6952,-4.8609 23.9467,-15.3257 6.7771,-48.4038 -9.2953,-63.4476 -28.5029,-26.659 -107.703,-5.3372 -97.4324,-61.3333 2.6438,-14.4229 17.3143,-57.7714 31.1124,-64.141 19.12,-8.7962 64.1562,17.0476 66.3048,-26.3238 0.9372,-19.12 -7.9124,-43.6343 -27.7981,-49.7714 -10.1448,-3.12 -23.8362,1.44 -32.5829,-5.5315 -12.24,-9.7219 -7.1124,-62.0648 1.0819,-73.8971 28.8952,-41.699 67.6876,75.4019 111.463,22.3314 17.6838,-21.4248 2.0572,-46.0267 -13.2305,-63.4095 -6.1028,-6.9371 -18.0229,-16.0724 -15.2038,-26.6057 2.8381,-10.6095 15.6114,-22.5295 24.7619,-27.901 18.6781,-10.979 39.379,-3.8133 53.4629,-25.5962 17.8248,-27.5276 -4.8076,-80.7048 -41.0438,-74.6933 z m 4610.98,79.3219 c -23.0933,-5.7295 -64.9371,15.2381 -86.1333,23.68 -8.5143,3.4057 -20.2743,6.6514 -24.9943,15.2914 -5.9048,10.819 1.3143,70.7886 14.6362,73.539 12.3619,2.5524 21.9581,-11.459 28.8914,-19.3181 18.4114,-20.9105 37.9048,-39.8552 54.899,-62.061 3.4248,-4.4724 26.0381,-27.8133 12.701,-31.1314 z m -4286.08,26.4457 c -11.0362,4.2057 -20.6133,19.3524 -28.5067,27.741 -27.741,29.5886 -49.4857,66.5714 -73.3638,99.3333 -94.8762,130.141 -175.794,279.897 -239.916,427.474 -19.28,44.4152 -52.9486,85.2457 -54.1181,134.804 -0.3352,13.6762 -10.5371,40.3352 7.4324,47.1124 6.1371,2.3238 12.8952,0 19.2267,1.4171 6.5447,1.4743 12.4724,5.8743 19.44,4.9143 11.6533,-1.5962 20.9143,-17.0819 28.2933,-25.0629 24.0152,-25.9848 46.8457,-58.1257 64.6514,-88.6857 59.2267,-101.657 149.832,-182.309 228.655,-267.84 24.1943,-26.2324 50.4305,-50.499 73.2381,-78.0457 7.6647,-9.2571 18.6095,-24.5295 8.0381,-35.8629 -16.2667,-17.4362 -51.299,13.9771 -64.0152,24 -56.0152,44.1486 -108.804,90.2476 -156.606,143.124 -13.3752,14.8114 -26.6438,29.939 -40.5143,44.2895 -2.6781,2.7657 -11.1543,13.3752 -16.0152,10.5371 -6.5981,-3.8514 5.0362,-22.4038 7.2381,-26.4495 14.1524,-26.0914 29.0171,-51.4552 42.2667,-78.0419 23.9124,-47.981 48.2819,-96.9371 77.6038,-141.901 28.1486,-43.1733 61.6533,-84.0076 86.0952,-129.486 11.0857,-20.6476 26.9257,-47.7295 30.7924,-70.9486 1.9543,-11.7067 -5.5695,-27.901 -19.9162,-22.4229 z m 4056.17,58.3771 c -26.2667,-1.12 -61.1238,24.6705 -83.2571,36.7695 -70.9524,38.739 -139.684,84.7657 -200.434,138.37 -21.9619,19.3676 -45.6038,38.4533 -63.219,62.0648 -2.5524,3.4209 -19.12,24.3543 -8.3543,26.3924 8.5676,1.6152 20.5752,-8.5867 27.2267,-12.9295 20.5752,-13.4476 42.2171,-24.3352 63.8552,-35.8857 61.4248,-32.8305 123.596,-63.5695 186.244,-93.901 30.4229,-14.7238 67.3143,-25.2571 93.5505,-47.2343 14.4381,-12.1143 5.4781,-72.7429 -15.6114,-73.6457 z m -1617.26,3.6343 c -13.6914,5.5886 -22.259,26.6057 -29.6038,38.4571 -21.4095,34.499 -42.96,69.0133 -62.4533,104.651 -62.9676,115.131 -145.482,219.413 -220.83,326.37 -19.7448,28.0419 -42.6781,56.0876 -57.9505,86.9143 -8.0876,16.3162 2.0952,32.4952 21.1086,29.2305 14.9524,-2.5714 25.1886,-18.6057 34.48,-29.2305 21.8552,-24.9943 46.259,-47.539 67.8819,-72.7238 92.0076,-107.154 165.299,-220.709 229.703,-345.882 16.7429,-32.5333 29.5162,-72.5638 37.8857,-108.202 3.0705,-13.0705 -0.461,-37.6533 -20.221,-29.5848 z m 1290.69,80.5295 c -17.101,0.053 -33.5429,9.9314 -49.3638,15.2724 -37.7105,12.6971 -78.8267,26.8876 -113.52,46.3657 -10.3962,5.8362 -24.1943,9.4171 -32.6019,18.1257 -10.7162,11.1238 -8.3733,81.6838 11.581,83.139 15.5733,1.1314 35.2114,-28.1333 45.8514,-37.501 36.861,-32.4571 76.4495,-62.5752 115.295,-92.5714 4.2933,-3.3333 44.9829,-32.9029 22.7581,-32.8305 z m -4609.63,9.6114 c -36.1714,13.2 -16.8457,63.4667 7.2267,78.3314 9.2495,5.7295 27.2076,5.8172 29.3257,19.139 2.7885,17.5048 -17.6076,39.5352 -24.2971,54.8267 -9.6267,21.9924 -9.3257,47.4476 -7.4781,70.9486 0.4152,5.3219 4.7924,33.2571 -3.7486,33.2571 -6.6705,0 -11.6686,-10.819 -14.5562,-15.52 -11.1657,-18.2514 -20.9257,-36.4495 -34.3657,-53.1924 -8.4952,-10.5905 -40.5067,-35.9924 -43.0476,-5.2686 -1.1314,13.7295 11.7029,29.2495 17.9771,40.7238 14.2705,26.0914 27.4514,53.6914 37.8248,81.5924 21.2076,57.0438 15.619,119.109 10.7543,177.375 -1.3524,16.2133 12.0495,32.0724 29.501,28.4876 19.1924,-3.9542 34.0229,-54.1333 38.6667,-71.0552 11.7981,-42.9981 14.1562,-90.5676 8.48,-134.808 -4.56,-35.4019 -15.3562,-70.381 -12.9524,-106.423 1.9543,-29.2495 12.419,-45.6038 25.6533,-70.9524 4.1143,-7.8933 7.661,-21.4095 16.9562,-24.7238 19.1581,-6.8647 33.2038,15.8895 54.099,-2.9447 19.28,-17.3829 18.2514,-53.5162 -10.1448,-61.0552 -23.8743,-6.3505 -42.9981,25.1886 -65.4362,13.6076 -23.5048,-12.1524 -18.7124,-67.581 -60.4381,-52.3467 z m 1163.7,41.1886 c -12.0267,4.5219 -20.4533,21.3371 -27.5314,31.2876 -20.6971,29.1429 -38.8419,61.3905 -56.9714,92.2362 -64.5638,109.867 -127.284,222.819 -199.158,328.145 -17.2038,25.2038 -33.5048,48.301 -32.0876,79.821 0.499,11.1543 3.6,30.8419 19.3714,27.6876 13.1238,-2.6438 22.9867,-18.3238 31.2,-27.6876 21.8705,-24.96 39.52,-50.2362 57.5048,-78.0457 71.3943,-110.293 126.697,-229.524 190.343,-344.11 14.4381,-25.9848 31.6229,-53.6724 37.1429,-83.3676 2.2324,-12.0076 -3.4971,-32.0838 -19.8133,-25.9657 z m 3792.11,96.0114 c -153.166,13.3943 -297.867,86.4 -422.152,172.533 -35.2457,24.4076 -72.9562,44.5067 -109.973,66.0038 -3.1771,1.8438 -33.8095,20.2743 -27.459,24.2095 6.0114,3.7257 24.6552,-5.5695 31.0057,-7.3943 31.379,-9.0628 63.181,-20.72 94.0076,-31.6076 93.7638,-33.101 186.282,-64.5829 282.027,-91.5619 23.379,-6.5828 46.8114,-12.7352 70.9524,-15.859 15.4324,-2.0038 35.44,-0.8876 49.2381,-8.9219 18.9257,-11.0324 43.0324,-59.1352 50.339,-79.8895 5.7829,-16.4076 0.8152,-29.1619 -17.9848,-27.5124 z m -693.806,37.4286 c -24.301,5.7105 -49.1505,40.7619 -67.101,56.9562 -3.4209,3.0667 -20.9638,19.0667 -6.6857,18.621 19.9543,-0.6362 70.7886,-10.941 82.941,-27.5962 5.9581,-8.1981 7.84,-51.9886 -9.1543,-47.981 z"
   id="path6"
   inkscape:connector-curvature="0"
   style="fill:#131516;stroke:#131516;stroke-width:0.967619" />
 </g>
</svg>