<?xml version="1.0" standalone="no"?>
<!DOCTYPE svg PUBLIC "-//W3C//DTD SVG 20010904//EN"
 "http://www.w3.org/TR/2001/REC-SVG-20010904/DTD/svg10.dtd">
<svg version="1.0" xmlns="http://www.w3.org/2000/svg"
 width="1280.000000pt" height="886.000000pt" viewBox="0 0 1280.000000 886.000000"
 preserveAspectRatio="xMidYMid meet">
<g transform="translate(0.000000,886.000000) scale(0.100000,-0.100000)"
fill="#607d8b" stroke="none">
<path d="M1905 8844 c-33 -7 -98 -19 -144 -28 -157 -30 -544 -201 -626 -277
-46 -42 -58 -68 -75 -159 -12 -66 -65 -147 -120 -185 -69 -48 -445 -152 -670
-185 -197 -30 -238 -43 -256 -85 -8 -19 -14 -67 -14 -108 0 -72 11 -123 64
-302 15 -49 31 -130 36 -180 8 -80 12 -91 35 -108 14 -11 34 -36 45 -57 15
-30 24 -37 40 -33 26 7 98 -17 239 -79 l114 -51 136 27 c163 31 185 32 258 6
89 -31 177 -27 249 10 44 24 59 28 66 18 6 -10 14 -6 32 16 23 27 28 28 152
38 71 5 143 7 159 3 17 -3 71 -31 122 -63 51 -31 121 -73 155 -92 38 -21 100
-72 157 -129 141 -142 170 -223 136 -384 l-18 -84 29 -69 c25 -60 29 -80 27
-159 -1 -49 -13 -157 -27 -240 -48 -275 -52 -369 -26 -583 25 -204 26 -210 97
-393 80 -205 140 -298 231 -361 58 -40 88 -105 110 -240 21 -125 20 -231 -2
-359 -9 -53 -17 -125 -18 -160 -2 -58 1 -70 34 -124 20 -33 61 -87 92 -121 52
-58 58 -62 139 -83 106 -28 218 -84 288 -143 30 -25 68 -53 86 -62 18 -9 89
-70 159 -136 130 -122 184 -158 254 -167 l40 -6 0 -77 0 -77 -37 -25 c-49 -31
-193 -99 -193 -90 0 3 21 28 47 54 26 26 44 50 41 53 -19 19 -223 -118 -458
-309 -52 -43 -104 -82 -115 -88 -28 -13 81 90 194 187 88 75 115 105 94 105
-16 0 -214 -164 -325 -269 -59 -55 -110 -101 -114 -101 -3 0 50 61 118 136
205 227 228 254 243 292 22 51 5 62 -44 28 -46 -32 -95 -46 -166 -45 -44 0
-48 1 -32 13 20 15 22 32 5 38 -7 3 -40 2 -73 -2 -43 -5 -68 -3 -87 6 -35 18
-69 18 -163 -2 -82 -17 -115 -13 -44 6 64 16 69 18 69 30 0 5 -10 10 -22 10
-13 0 -29 4 -37 9 -11 7 -10 11 5 20 42 24 -12 31 -253 31 -204 0 -244 2 -257
15 -14 14 -18 14 -38 1 -13 -8 -52 -17 -88 -20 -367 -34 -410 -41 -410 -70 0
-23 28 -27 119 -16 47 6 165 14 261 19 141 7 179 6 195 -5 13 -10 53 -14 125
-14 121 -1 116 -8 -22 -39 -54 -12 -98 -27 -98 -33 0 -6 11 -8 28 -5 62 12
157 19 147 10 -5 -5 -56 -24 -113 -42 -83 -26 -106 -30 -118 -20 -12 10 -17 9
-27 -4 -12 -16 -192 -109 -321 -167 -80 -35 -136 -75 -136 -96 0 -21 34 -17
88 10 124 63 250 110 312 116 36 4 110 16 165 28 55 12 153 26 219 31 84 7
124 15 136 26 22 20 102 45 144 45 48 0 17 -20 -42 -27 -56 -6 -72 -29 -24
-35 15 -2 27 -8 27 -15 0 -7 -46 -50 -101 -97 -102 -85 -182 -171 -170 -183 3
-3 33 19 65 50 66 63 81 69 73 32 -2 -14 -1 -25 3 -25 4 0 37 26 74 58 36 32
98 83 136 114 39 30 94 76 124 101 64 55 184 92 157 48 -4 -6 -24 -15 -45 -21
-45 -12 -235 -186 -255 -234 -17 -40 -110 -142 -157 -172 -20 -12 -69 -66
-109 -118 -67 -91 -98 -118 -86 -78 2 9 12 52 21 95 17 75 15 101 -4 81 -11
-11 -71 -282 -71 -316 l1 -23 22 27 c12 15 30 39 41 53 15 22 24 26 46 22 24
-5 33 2 88 71 34 43 95 114 136 157 67 71 75 77 76 54 0 -39 -43 -115 -118
-209 -138 -173 -271 -377 -272 -418 0 -25 18 -2 81 100 74 122 127 191 140
182 15 -9 49 26 49 51 0 29 54 112 78 120 12 3 34 30 51 60 17 30 35 55 40 55
17 0 23 -52 8 -69 -149 -175 -212 -267 -278 -408 -27 -58 -49 -109 -49 -115 0
-17 102 95 177 194 73 96 321 369 382 421 39 32 61 35 61 7 0 -21 -43 -66
-196 -205 -117 -107 -394 -442 -420 -508 -10 -26 14 -21 41 9 21 22 26 24 31
10 3 -8 1 -30 -5 -48 -10 -28 -9 -35 6 -45 25 -19 57 -17 49 3 -8 21 16 60
126 206 80 106 108 135 108 109 0 -12 -47 -81 -80 -116 -29 -32 -79 -115 -104
-177 -30 -72 3 -47 65 50 34 53 80 120 103 149 23 29 49 62 59 75 l18 23 -12
-25 c-7 -14 -20 -37 -31 -52 -12 -18 -15 -29 -8 -33 14 -8 9 -13 67 67 70 96
182 226 244 281 30 27 59 53 64 59 87 92 174 175 233 221 39 32 72 62 72 67 0
20 -30 9 -86 -33 -33 -24 -84 -59 -114 -79 -54 -36 -223 -202 -372 -367 -44
-48 -81 -81 -87 -77 -8 5 -8 13 0 27 19 36 131 161 288 322 84 87 151 160 148
164 -11 11 -51 -24 -249 -217 -109 -105 -198 -188 -198 -183 0 14 143 168 235
254 201 186 351 296 510 374 59 29 59 30 30 35 -30 6 -30 6 20 29 69 31 89 31
93 3 2 -15 -6 -31 -27 -49 -36 -32 -39 -43 -12 -43 29 0 30 -16 9 -130 -12
-67 -20 -160 -21 -256 -2 -146 -3 -152 -32 -209 -36 -69 -99 -118 -215 -165
-82 -33 -108 -37 -116 -17 -11 30 77 294 133 395 19 35 32 66 29 69 -14 14
-38 -12 -75 -79 l-41 -73 0 42 c0 23 -5 45 -11 49 -23 14 -124 -111 -248 -308
-34 -53 -61 -100 -61 -103 0 -16 28 18 129 158 117 163 151 202 151 174 0 -22
-77 -235 -144 -400 -31 -76 -56 -143 -56 -148 0 -39 75 98 124 226 32 85 46
109 45 80 0 -48 -18 -108 -43 -143 -23 -34 -44 -127 -46 -204 0 -22 23 -23 40
-3 16 19 30 19 30 0 0 -8 6 -15 14 -15 15 0 56 87 56 120 0 13 12 27 31 38 77
43 242 154 282 191 24 22 52 60 62 83 10 24 27 53 38 65 14 15 18 31 15 54 -4
22 1 38 14 51 24 24 23 42 -7 107 -23 49 -24 58 -15 118 6 35 19 81 30 101 11
20 20 46 20 57 0 26 27 65 44 65 18 0 26 32 26 105 0 33 5 112 11 175 l10 115
42 43 c23 23 45 42 49 42 4 0 8 -114 8 -252 0 -235 8 -312 26 -265 5 13 10 15
19 7 15 -12 25 7 25 47 0 22 2 24 16 12 14 -11 15 -25 9 -84 -10 -84 -10 -99
0 -237 9 -118 4 -132 -43 -141 -29 -6 -212 -174 -212 -195 0 -7 -13 -39 -30
-72 -16 -33 -30 -64 -30 -70 0 -21 19 -9 40 25 25 41 40 45 40 10 0 -27 15
-34 24 -10 3 8 11 15 17 15 7 0 20 6 28 13 24 20 86 38 105 31 11 -4 16 -18
16 -43 0 -42 -20 -65 -135 -149 -38 -28 -92 -73 -120 -101 -28 -29 -58 -51
-70 -51 -12 0 -26 -5 -33 -12 -7 -7 -53 -11 -134 -10 -130 1 -187 -10 -214
-39 -20 -22 -11 -51 13 -47 14 2 17 -3 15 -19 l-3 -23 168 0 c117 0 187 5 228
15 101 25 99 25 86 12 -24 -24 -7 -28 104 -21 96 6 118 4 133 -8 13 -12 56
-17 187 -21 94 -4 249 -15 345 -26 97 -11 263 -30 370 -41 107 -12 215 -25
240 -29 40 -8 36 -9 -40 -10 -47 0 -132 3 -190 9 -110 10 -618 40 -682 40 -39
0 -51 -15 -21 -24 17 -5 260 -26 722 -61 113 -9 212 -21 220 -26 16 -10 -50
-8 -241 8 -51 4 -78 2 -78 -4 0 -16 26 -20 280 -43 129 -11 244 -25 255 -30
22 -10 -97 -6 -310 11 -187 15 -861 24 -868 11 -8 -12 85 -18 523 -32 333 -11
380 -15 380 -31 0 -5 -82 -9 -192 -9 -105 0 -189 -2 -186 -5 6 -6 129 -16 441
-36 194 -12 262 -28 130 -30 -63 -1 -65 -2 -28 -10 22 -4 59 -8 83 -8 23 -1
42 -5 42 -11 0 -5 -44 -11 -97 -12 -132 -4 -99 -15 69 -23 106 -5 135 -10 132
-20 -6 -14 6 -17 161 -36 83 -10 146 -28 104 -29 -9 0 -19 -7 -23 -15 -4 -12
-25 -15 -98 -16 -116 0 -90 -14 47 -23 136 -10 180 -17 163 -27 -16 -10 -18
-67 -2 -73 7 -3 79 -12 161 -21 81 -10 152 -21 158 -26 9 -9 -41 -7 -260 12
-60 5 -141 9 -180 9 -70 -1 -70 -1 -47 -19 12 -11 22 -22 22 -25 0 -3 -21 -6
-47 -6 -96 0 -25 -19 126 -34 85 -9 156 -18 159 -21 3 -3 -38 -5 -91 -5 -53 0
-99 -4 -102 -10 -4 -6 7 -10 27 -10 18 0 57 -3 86 -7 88 -10 38 -23 -93 -23
-81 0 -115 -3 -105 -10 8 -5 29 -10 46 -10 17 0 48 -9 69 -19 l39 -19 -69 -8
-70 -8 90 -8 c50 -4 128 -10 175 -14 152 -12 57 -23 -208 -23 -166 -1 -251 -4
-247 -11 3 -5 46 -10 95 -10 49 0 92 -4 95 -10 4 -6 -28 -10 -87 -11 -51 -1
-106 -4 -123 -8 -25 -6 -20 -8 34 -14 35 -4 82 -8 105 -8 39 -1 39 -2 11 -9
-55 -13 -5 -19 192 -22 178 -3 217 -8 200 -25 -6 -5 -178 -17 -322 -22 -11 -1
-15 -4 -10 -10 6 -5 52 -11 103 -13 51 -2 97 -9 103 -15 24 -24 -4 -33 -104
-34 -101 0 -159 -11 -127 -22 8 -3 98 -13 199 -21 188 -16 265 -36 139 -36
-69 0 -98 -6 -98 -21 0 -14 60 -20 275 -24 116 -3 219 -5 230 -6 34 -3 276 18
282 25 3 3 1 12 -6 19 -9 12 8 15 106 20 130 5 258 29 313 57 34 17 177 30
377 33 133 3 110 -38 -33 -61 -40 -7 -82 -16 -95 -21 -63 -25 259 -5 540 34
118 17 195 19 187 6 -3 -4 -24 -11 -47 -15 -29 -5 -39 -10 -32 -17 7 -7 39 -7
104 0 52 6 189 15 304 21 310 15 334 18 347 46 12 26 28 23 28 -7 0 -22 28
-26 36 -4 8 19 33 19 58 0 15 -11 48 -15 122 -15 115 0 134 4 134 30 0 28 -15
32 -35 10 -20 -22 -34 -19 -31 7 2 10 13 20 26 23 13 3 25 11 28 18 5 15 -71
16 -99 1 -19 -10 -20 -11 -3 -23 13 -10 15 -17 6 -32 -10 -17 -11 -17 -12 -1
0 21 -23 22 -40 2 -7 -8 -24 -15 -39 -15 -25 1 -25 1 7 15 24 11 32 20 32 40
0 31 -23 33 -44 4 -15 -21 -16 -21 -51 -5 -31 15 -54 17 -143 11 -98 -5 -105
-5 -87 9 11 9 31 25 43 36 13 11 30 20 38 20 8 0 14 5 14 10 0 6 -16 10 -35
10 -25 0 -38 -5 -42 -17 -9 -23 -23 -33 -50 -33 -25 0 -29 -10 -12 -27 8 -8 8
-13 0 -17 -14 -9 -31 1 -31 20 0 8 -7 14 -15 14 -8 0 -15 -6 -15 -14 0 -13
-19 -17 -143 -33 -47 -5 -50 -4 -78 31 -17 20 -38 36 -47 36 -36 0 6 20 51 25
26 3 58 12 72 21 28 18 70 15 70 -5 0 -8 -13 -18 -30 -22 -16 -4 -43 -10 -60
-14 l-30 -7 25 -11 c25 -10 25 -10 3 -14 -13 -3 -23 -9 -23 -14 0 -11 28 -11
90 0 l45 8 -40 2 c-68 2 -26 20 75 31 52 6 103 13 113 16 30 9 7 26 -31 22
-29 -2 -37 1 -40 15 -3 16 -1 17 16 8 13 -7 22 -7 30 1 8 8 22 8 51 -1 36 -10
46 -9 83 9 32 15 44 17 50 8 12 -20 10 -25 -12 -31 -23 -6 -27 -27 -6 -27 44
0 75 14 80 36 4 15 20 29 43 39 33 14 38 14 55 -1 16 -15 27 -16 102 -5 47 6
96 9 110 5 14 -3 39 1 61 12 31 14 42 15 76 5 26 -8 68 -10 125 -5 70 6 84 10
82 23 -3 14 -41 17 -326 24 -313 8 -372 14 -372 38 0 8 21 9 75 4 53 -5 75 -3
75 4 0 7 -7 14 -15 17 -31 12 -2 22 87 29 52 4 106 14 123 23 17 9 64 21 105
28 l75 12 -89 1 c-83 1 -88 2 -83 21 7 28 -19 47 -41 28 -9 -8 -29 -19 -43
-25 -22 -9 -26 -16 -21 -38 5 -27 4 -27 -39 -21 -88 13 -269 18 -282 8 -6 -5
-54 -16 -106 -23 -75 -10 -103 -10 -143 0 -44 12 -51 11 -62 -4 -10 -14 -20
-16 -47 -11 -75 15 -109 18 -109 8 0 -6 6 -12 13 -15 6 -2 9 -8 5 -12 -14 -14
-38 5 -38 30 0 36 48 81 105 99 28 8 75 24 105 35 45 16 101 21 310 30 140 7
270 14 289 18 32 5 33 7 16 19 -10 8 -40 14 -66 14 -26 0 -51 5 -54 10 -4 6
13 10 44 10 53 0 108 16 97 28 -4 4 -128 9 -276 12 -148 3 -272 8 -276 12 -4
4 11 27 32 50 22 24 60 70 86 104 60 79 87 95 162 101 130 9 159 23 95 45 -28
10 -29 12 -15 26 13 13 19 14 40 2 20 -10 65 -12 208 -7 201 7 225 11 233 37
5 16 9 16 52 2 40 -13 51 -14 87 -1 24 8 45 23 51 37 5 12 39 38 77 58 38 19
68 39 68 44 0 11 -53 40 -74 40 -28 0 -25 17 9 71 31 49 44 89 29 89 -3 0 -26
-16 -51 -35 -39 -30 -54 -35 -99 -35 -65 0 -72 -9 -105 -124 -20 -69 -28 -82
-62 -107 -37 -27 -47 -29 -131 -29 -50 0 -122 -5 -160 -10 -38 -6 -71 -8 -74
-5 -3 3 3 14 12 24 10 11 16 28 14 38 -6 32 -37 26 -76 -14 -31 -31 -48 -40
-102 -50 -36 -6 -82 -15 -102 -19 -45 -8 -47 -2 -18 80 13 40 17 63 10 75 -5
10 -6 28 -3 40 5 20 3 21 -21 15 -20 -5 -34 1 -62 25 -61 55 -86 24 -28 -35
l38 -37 -12 -69 c-16 -94 -16 -122 3 -114 8 3 21 -4 30 -17 22 -31 19 -39 -14
-32 -24 5 -38 -2 -89 -44 -33 -28 -93 -89 -132 -136 -40 -47 -74 -85 -76 -85
-2 0 -37 9 -76 20 -40 11 -84 20 -98 20 -23 -1 -24 -2 -7 -14 9 -7 40 -16 68
-20 69 -9 105 -24 92 -37 -8 -8 -35 -6 -94 6 -113 22 -137 36 -144 83 -11 65
-15 72 -40 72 -21 0 -24 -5 -30 -58 -9 -87 -23 -128 -49 -145 -33 -22 -143
-44 -156 -31 -16 16 -2 41 30 54 77 32 52 61 -34 41 -197 -48 -632 -129 -641
-120 -14 14 8 25 64 33 59 8 558 119 633 140 42 13 63 26 83 51 l26 35 -26 0
c-55 0 -15 24 106 65 68 23 135 48 149 56 25 13 25 14 3 17 -12 2 -52 -6 -90
-17 -37 -11 -68 -19 -70 -17 -2 1 57 28 131 60 141 60 185 85 154 86 -10 0
-51 -13 -92 -30 -131 -51 -277 -100 -303 -100 -22 0 -24 2 -13 15 7 8 17 15
23 15 20 0 292 113 417 173 145 70 140 89 -6 24 -226 -101 -277 -120 -351
-125 -48 -3 -73 -1 -73 6 0 6 60 34 133 62 415 162 457 180 416 180 -18 0
-310 -105 -352 -127 -16 -8 -31 -12 -33 -10 -7 7 40 33 261 147 110 57 242
127 293 157 51 30 113 63 137 73 43 18 65 43 52 57 -4 3 -80 -35 -170 -85 -91
-50 -265 -144 -388 -208 l-224 -117 -155 7 c-185 8 -184 -6 2 -32 133 -19 136
-23 38 -62 -57 -23 -60 -23 -239 -4 -83 9 -76 -10 10 -27 34 -7 63 -18 66 -25
4 -10 26 -14 77 -14 39 0 77 -4 84 -9 21 -13 -14 -35 -59 -35 -22 -1 -43 -7
-48 -14 -7 -11 -37 -8 -166 18 -114 23 -160 29 -168 21 -6 -6 -8 -13 -5 -16 3
-3 53 -14 112 -25 58 -10 131 -26 161 -35 56 -16 74 -35 33 -35 -43 0 -408 49
-419 55 -6 4 -9 21 -6 39 3 17 0 53 -5 80 -9 42 -21 60 -77 116 -36 37 -79 76
-94 88 l-28 21 43 38 c87 77 178 166 173 171 -6 6 -93 -60 -173 -132 -34 -31
-67 -56 -72 -56 -5 0 -24 13 -41 28 l-31 28 47 89 c26 50 71 124 101 165 57
79 68 108 35 91 -19 -11 -142 -194 -180 -268 -11 -23 -26 -45 -32 -49 -22 -13
0 49 56 160 31 60 53 111 49 115 -8 9 -46 -41 -91 -120 -32 -56 -43 -68 -68
-72 -16 -2 -38 -7 -47 -11 -12 -6 -33 9 -82 57 -35 36 -75 82 -89 104 -13 21
-52 81 -85 135 -37 58 -68 119 -77 154 -20 78 -20 265 0 303 8 16 57 68 109
116 64 58 108 110 135 155 41 69 70 96 155 145 27 16 106 86 175 155 69 70
147 139 173 154 49 28 66 31 363 57 157 13 158 13 310 -29 61 -17 142 -38 180
-46 41 -10 131 -47 220 -91 83 -41 168 -77 190 -81 144 -22 371 -112 673 -266
130 -66 284 -145 342 -174 58 -30 146 -68 195 -86 113 -41 196 -97 360 -243
72 -64 180 -155 242 -202 85 -64 131 -109 188 -182 92 -115 121 -140 217 -187
119 -59 404 -277 487 -373 72 -83 85 -114 85 -201 1 -65 -1 -75 -16 -74 -10 0
-57 2 -105 3 -91 2 -97 12 -15 26 23 4 42 11 42 16 0 11 10 12 -145 -6 -199
-23 -323 -45 -373 -68 -55 -23 -232 -31 -267 -10 -19 11 -19 12 7 22 47 18
523 90 601 91 4 0 7 5 7 11 0 8 -36 10 -129 4 -112 -6 -129 -5 -134 9 -5 12
-16 15 -54 10 -118 -14 -417 -66 -465 -81 l-53 -17 35 -6 35 -6 -35 -22 c-19
-12 -50 -22 -68 -22 -49 0 -35 -24 16 -28 24 -2 54 4 72 13 26 14 40 14 93 4
34 -6 74 -19 88 -27 22 -12 39 -13 105 -3 44 6 120 13 169 16 92 5 90 0 -12
-25 -24 -6 -43 -16 -43 -21 0 -6 10 -9 23 -6 35 9 163 20 157 14 -3 -3 -66
-17 -140 -32 -74 -15 -139 -31 -144 -35 -24 -23 166 -40 462 -41 147 -1 310
-4 362 -8 83 -5 60 -8 -190 -19 -157 -7 -300 -16 -318 -20 -19 -4 170 -7 420
-7 249 0 525 -4 613 -8 113 -6 156 -5 145 2 -8 6 -29 11 -47 11 -17 0 -34 4
-37 9 -4 5 91 11 225 13 207 3 231 5 240 21 6 9 18 17 28 17 9 0 27 11 39 25
12 14 28 25 36 25 8 0 27 5 43 11 22 8 25 12 13 19 -12 6 -295 40 -339 40 -6
0 -11 5 -11 10 0 6 9 10 19 10 55 0 63 29 8 31 -18 0 -41 4 -52 8 -13 5 14 10
75 14 160 10 307 26 334 37 40 15 34 40 -9 34 -19 -2 -50 -6 -69 -8 -52 -7
-338 11 -368 23 -16 6 -38 30 -54 58 -15 26 -36 58 -47 70 -23 26 -135 74
-226 98 -93 24 -131 46 -186 110 -26 31 -71 73 -99 94 -98 73 -248 253 -300
362 -14 29 -44 77 -66 104 -49 61 -86 117 -122 184 -22 41 -40 57 -100 92
-386 225 -530 321 -670 446 -89 80 -118 111 -300 325 -152 178 -413 444 -538
547 -58 48 -133 116 -167 150 -71 72 -239 327 -329 500 -47 91 -78 133 -152
215 -52 55 -113 130 -137 166 -59 88 -86 112 -253 224 -141 96 -271 168 -324
181 -38 10 -35 22 10 40 73 32 160 44 372 55 635 31 781 44 981 85 267 56 535
141 725 231 334 158 419 201 660 332 251 135 432 224 489 238 38 9 53 46 31
79 -15 23 -22 25 -87 25 -144 0 -359 -61 -634 -180 -201 -87 -598 -238 -707
-270 -186 -53 -407 -97 -618 -124 -188 -23 -402 -35 -850 -46 -444 -10 -523
-14 -744 -36 -82 -8 -156 -14 -165 -14 -9 0 -52 27 -96 60 -125 94 -247 155
-461 230 -65 23 -154 60 -196 81 -186 93 -514 223 -719 284 -136 41 -234 82
-262 109 -9 10 -50 26 -90 35 -39 10 -148 42 -242 70 -93 29 -251 70 -350 93
-197 44 -238 60 -305 122 -25 23 -73 57 -107 75 -79 43 -150 102 -358 301
-302 290 -373 343 -580 440 -44 20 -137 75 -206 121 -70 46 -165 104 -211 129
-84 43 -85 45 -108 104 -91 240 -307 568 -451 688 -80 66 -173 161 -277 282
-80 93 -104 128 -108 158 -4 21 -10 38 -14 38 -4 0 -43 32 -85 70 -42 39 -87
71 -99 72 -70 8 -441 1 -491 -8z m-685 -581 c0 -5 -5 -15 -10 -23 -8 -12 -10
-11 -10 8 0 12 5 22 10 22 6 0 10 -3 10 -7z m-185 -127 c-51 -111 -59 -154
-47 -226 15 -81 39 -128 82 -159 41 -29 120 -138 120 -166 0 -26 -80 -95 -111
-95 -33 0 -44 -14 -53 -62 -4 -21 -13 -38 -20 -38 -7 0 -25 -14 -41 -30 -16
-17 -35 -28 -43 -25 -8 3 -23 -6 -34 -21 -11 -14 -31 -29 -44 -34 -29 -12 -56
-52 -48 -74 8 -21 71 -22 119 -2 19 8 35 12 35 9 0 -4 14 6 30 22 21 20 33 26
41 18 18 -18 -1 -61 -34 -76 -43 -21 -211 -49 -215 -37 -2 6 -15 7 -28 4 -23
-6 -24 -4 -19 18 14 53 -74 70 -144 27 -31 -19 -33 -22 -17 -37 9 -9 40 -19
69 -22 l52 -6 -37 -17 c-58 -27 -92 -21 -185 29 -98 54 -138 85 -158 125 -14
27 -14 30 16 64 37 42 33 60 -15 71 l-35 9 32 50 32 50 5 -40 c4 -35 8 -40 35
-43 34 -4 55 18 55 60 0 31 11 36 31 12 9 -11 24 -14 48 -11 24 3 46 -2 66
-14 27 -16 36 -16 66 -6 20 7 50 25 68 40 19 16 45 27 61 27 16 0 32 5 36 12
4 7 13 -1 23 -22 22 -45 43 -57 76 -42 22 10 26 18 23 45 -2 24 -8 32 -23 32
-23 0 -32 28 -13 44 50 43 64 51 84 51 30 0 94 38 94 56 0 7 -8 18 -19 23 -21
12 -135 -17 -173 -43 -12 -9 -30 -16 -39 -16 -9 0 -24 -11 -33 -25 -27 -41
-64 -54 -134 -48 -34 3 -62 8 -62 11 0 8 43 76 57 90 15 15 17 41 4 61 -8 12
-15 11 -50 -3 -23 -9 -52 -16 -66 -16 -13 0 -27 -4 -30 -10 -3 -5 -11 -10 -18
-10 -18 0 85 100 109 106 12 3 26 16 32 29 9 19 17 23 42 20 21 -3 33 1 37 11
3 8 13 12 23 9 11 -4 20 3 29 21 6 15 23 35 36 46 23 18 35 58 18 58 -14 -1
-46 -29 -65 -57 -20 -29 -21 -27 -2 37 9 34 -14 22 -36 -17 -17 -32 -19 -34
-14 -11 4 20 2 30 -10 34 -30 11 -16 21 52 38 93 24 201 77 258 130 27 24 50
43 52 42 1 -2 -14 -38 -33 -80z m2017 -115 c66 -82 161 -224 232 -349 55 -96
82 -182 66 -212 -17 -31 0 -45 91 -75 91 -31 141 -66 122 -86 -10 -10 -16 -9
-32 5 -12 11 -27 15 -40 11 -11 -3 -30 -1 -41 5 -16 8 -25 8 -35 0 -7 -6 -25
-8 -39 -4 -21 5 -26 3 -26 -11 0 -14 -6 -17 -32 -13 -43 6 -117 -21 -136 -51
l-16 -23 64 6 c70 8 146 22 197 37 26 8 38 5 77 -18 l46 -28 -32 -26 -32 -27
56 -26 c41 -19 70 -26 110 -25 29 1 65 -4 80 -10 17 -6 29 -7 33 -1 9 15 18
12 66 -20 31 -21 56 -30 86 -30 23 0 45 -5 49 -11 3 -6 18 -9 33 -6 33 7 98
-21 130 -57 19 -20 27 -23 38 -15 10 9 19 7 38 -5 37 -24 253 -245 273 -278 9
-15 22 -28 30 -28 7 0 48 -33 90 -73 93 -88 175 -151 262 -201 36 -21 84 -56
108 -78 63 -57 122 -81 363 -143 344 -90 418 -113 622 -191 26 -11 47 -21 47
-24 0 -3 -84 -4 -187 -2 -134 2 -216 -2 -286 -13 -54 -8 -121 -15 -150 -15
-29 0 -78 -7 -110 -15 -70 -18 -288 -143 -342 -195 l-39 -39 11 -78 c13 -88
13 -87 -58 -181 -28 -36 -55 -85 -64 -115 -23 -80 -35 -196 -25 -247 5 -25 9
-96 10 -159 0 -105 3 -120 34 -200 21 -52 37 -113 41 -155 8 -90 24 -118 95
-169 33 -23 60 -47 60 -53 0 -17 -28 -38 -125 -89 -188 -101 -306 -198 -340
-279 -8 -19 -24 -37 -35 -41 -18 -6 -60 -54 -60 -69 0 -11 38 -6 104 14 48 15
64 24 60 35 -4 9 3 18 19 24 14 6 31 20 37 31 6 12 31 30 56 40 24 11 44 26
44 34 0 9 10 21 23 27 28 16 127 115 127 129 0 6 10 14 23 19 12 5 39 23 61
40 44 35 42 35 151 19 68 -10 95 -9 175 6 155 28 201 44 244 87 21 22 42 39
46 39 4 0 15 -21 25 -46 14 -37 25 -49 59 -64 48 -20 69 -42 84 -88 9 -27 9
-34 -4 -39 -9 -3 -12 -12 -9 -24 8 -24 -3 -79 -16 -79 -5 0 -9 9 -9 19 0 11
-5 23 -12 27 -8 5 -10 -18 -5 -92 l5 -99 -16 45 c-28 75 -36 81 -43 30 l-6
-45 -8 35 -9 35 -9 -35 c-7 -29 -10 -32 -18 -17 -15 26 -29 20 -29 -12 0 -23
-5 -30 -27 -34 -21 -4 -32 0 -45 16 -16 21 -16 21 -32 -16 -8 -20 -21 -37 -28
-37 -65 -2 -153 -14 -322 -44 -109 -20 -209 -36 -222 -36 -27 0 -42 -19 -23
-31 21 -12 7 -19 -62 -29 -35 -6 -110 -17 -167 -25 -104 -15 -267 -19 -311 -6
-14 4 -27 13 -29 20 -4 11 5 13 41 8 57 -8 80 -1 72 23 -5 14 4 22 42 35 126
44 128 58 5 26 -41 -11 -79 -27 -87 -37 -11 -16 -18 -17 -65 -6 -75 17 -101
16 -107 -8 -7 -25 -3 -25 -66 6 -124 62 -252 171 -325 274 -26 36 -63 86 -84
111 -21 25 -38 49 -38 53 0 4 -14 21 -31 37 -39 37 -31 48 13 21 19 -12 65
-29 103 -39 60 -16 70 -22 76 -46 4 -15 31 -53 60 -85 29 -31 68 -78 88 -104
51 -69 73 -65 26 4 -14 20 -25 42 -25 47 0 19 29 12 42 -9 19 -29 26 -25 30
18 l3 37 33 -64 c25 -46 37 -60 45 -52 8 8 3 28 -16 76 -33 80 -34 99 -7 92
23 -6 24 3 11 71 -10 53 2 55 19 2 7 -22 19 -45 26 -51 24 -20 24 9 -2 77 -28
75 -58 194 -50 201 3 3 13 -12 22 -33 26 -59 29 -18 5 68 -22 77 -14 113 13
60 22 -42 73 -82 105 -82 15 0 43 8 63 19 37 18 37 18 40 -3 5 -33 52 -29 56
4 1 14 10 42 19 62 12 29 15 59 11 135 -3 54 -9 106 -13 116 -13 31 -49 31
-112 -2 -36 -19 -73 -31 -97 -31 l-39 0 6 46 c6 59 30 91 100 132 35 20 69 50
89 80 18 26 111 128 206 227 96 99 183 194 193 210 23 37 25 123 4 151 -20 26
-19 73 3 109 10 17 49 66 85 110 66 78 76 95 58 95 -11 0 -93 -89 -141 -153
-19 -25 -41 -49 -48 -52 -18 -7 -32 3 -32 22 0 17 140 165 203 215 36 29 41
30 78 19 33 -10 45 -9 74 5 57 27 95 68 95 103 0 34 -32 60 -155 125 -61 33
-76 37 -117 32 -60 -6 -93 -24 -164 -86 -31 -27 -77 -62 -102 -76 l-44 -26
-44 49 c-26 31 -69 64 -112 86 -64 34 -77 37 -148 37 -46 -1 -96 -7 -119 -16
-22 -9 -50 -18 -63 -21 -31 -7 -107 -78 -189 -174 -65 -78 -72 -83 -193 -141
-155 -74 -209 -113 -243 -176 -14 -26 -35 -56 -47 -67 -11 -10 -20 -24 -20
-30 0 -16 -48 -125 -55 -125 -3 0 -2 18 1 40 7 44 0 49 -32 22 -25 -20 -44
-53 -44 -78 0 -13 3 -14 15 -4 8 7 15 10 15 7 0 -2 -20 -72 -45 -153 -44 -142
-54 -221 -30 -227 5 -1 15 16 21 38 l11 40 6 -35 c3 -19 8 -67 11 -106 3 -48
11 -83 25 -105 22 -36 27 -69 11 -69 -5 0 -16 12 -24 28 -30 54 -33 57 -50 43
-19 -16 -18 -18 -46 94 -13 51 -28 86 -41 97 -14 12 -23 36 -29 77 -5 33 -11
65 -15 71 -12 20 -23 0 -19 -38 2 -20 8 -89 14 -152 13 -130 44 -296 65 -347
21 -50 38 -33 30 31 -10 71 -2 57 29 -53 15 -52 37 -113 48 -135 23 -45 96
-126 115 -126 6 0 23 -15 38 -32 24 -32 26 -32 40 -14 14 18 15 18 26 -8 10
-20 10 -29 1 -38 -7 -7 -12 -27 -12 -45 0 -54 -32 -77 -125 -92 -44 -7 -88
-17 -98 -23 -17 -8 -16 -11 8 -39 14 -17 25 -34 25 -39 0 -5 -21 -16 -47 -26
-25 -10 -58 -28 -72 -39 -14 -12 -39 -28 -55 -36 -34 -16 -46 -39 -21 -39 36
0 7 -36 -55 -68 -52 -26 -82 -34 -145 -39 -56 -4 -87 -12 -104 -24 -13 -11
-31 -19 -39 -19 -13 0 -13 -3 -4 -12 18 -18 14 -35 -10 -43 -23 -7 -22 -7 5
-18 22 -9 27 -17 25 -37 -2 -14 -8 -25 -15 -25 -22 0 -113 128 -113 159 0 15
12 96 26 180 26 149 28 219 8 327 -6 35 -5 36 20 32 36 -7 34 9 -15 92 -22 38
-44 88 -49 110 -20 96 -75 213 -107 226 -13 5 -23 16 -23 24 0 9 -4 13 -10 10
-15 -9 -12 -42 6 -82 11 -23 14 -37 7 -44 -20 -20 -94 83 -169 236 -68 139
-74 157 -84 245 -6 52 -15 128 -20 168 -13 94 -13 146 1 254 12 88 29 120 29
52 0 -21 4 -33 10 -29 6 3 10 13 10 21 0 8 9 27 19 42 11 15 25 51 31 80 7 30
19 56 27 59 7 3 20 18 28 34 8 15 25 39 38 52 12 13 31 38 42 57 11 18 29 47
40 64 22 34 179 196 189 196 3 0 3 -24 0 -54 -6 -49 -4 -55 16 -66 19 -10 26
-9 47 13 44 44 33 111 -21 130 -17 7 26 81 49 86 11 2 70 54 130 115 61 62
124 121 140 131 17 10 51 36 76 57 25 21 51 38 58 38 13 0 191 131 211 155 24
29 -11 23 -59 -10 -28 -19 -57 -35 -64 -35 -20 0 -93 -54 -164 -121 -34 -33
-70 -59 -82 -59 -12 0 -65 -40 -125 -92 -130 -116 -154 -133 -188 -142 -18 -4
-46 -30 -79 -71 -41 -53 -56 -65 -80 -65 -21 0 -34 -9 -51 -33 -14 -21 -30
-31 -40 -29 -12 2 -21 -5 -27 -21 -10 -25 -41 -45 -41 -25 0 30 126 219 226
338 25 30 49 60 52 65 4 6 19 18 34 28 15 9 41 37 57 61 17 25 40 48 51 51 21
7 56 62 46 72 -3 3 -12 0 -20 -6 -8 -7 -20 -10 -26 -6 -17 11 -46 -4 -58 -30
-6 -14 -18 -25 -25 -25 -8 0 -22 -9 -32 -20 -10 -11 -24 -20 -31 -20 -15 0
-183 -179 -204 -218 -21 -38 -86 -102 -104 -102 -8 0 -25 -22 -38 -50 -13 -27
-26 -49 -30 -50 -5 0 -8 38 -8 84 0 80 2 90 44 173 56 113 76 160 76 178 0 30
-22 13 -60 -47 -57 -92 -70 -108 -82 -108 -40 0 51 198 154 335 134 178 289
318 546 492 130 88 156 108 156 118 1 17 -66 17 -139 0 -84 -20 -332 -140
-415 -200 -75 -56 -201 -181 -269 -267 -29 -38 -57 -68 -62 -68 -5 0 -12 12
-15 28 -4 15 -18 50 -31 77 -12 28 -23 57 -23 65 0 9 16 40 35 70 19 30 40 70
46 89 6 20 44 109 85 197 40 89 76 173 80 188 8 33 48 61 98 69 46 7 98 52
128 111 11 22 29 81 39 133 26 131 44 159 70 111 7 -13 9 -43 5 -80 -9 -94 28
-130 73 -72 26 33 26 54 1 104 -27 54 -2 55 37 3 15 -21 32 -40 36 -42 5 -2
22 -16 38 -32 16 -16 38 -29 49 -29 10 0 22 -9 25 -20 3 -11 11 -20 17 -20 23
0 -17 109 -71 195 -10 17 -22 40 -26 52 -12 41 21 15 87 -66z m-1712 -55 c-19
-32 -50 -49 -50 -28 0 12 62 73 68 68 2 -3 -6 -21 -18 -40z m229 -662 c9 -9
-8 -15 -89 -31 -54 -11 -92 -24 -110 -40 -29 -24 -50 -30 -50 -14 0 27 86 74
175 94 20 5 66 -1 74 -9z m-289 -15 c-7 -11 -27 -30 -47 -41 -32 -19 -35 -25
-30 -55 3 -18 3 -33 1 -33 -6 0 -55 56 -68 78 -11 18 41 63 65 56 9 -2 27 0
40 5 41 16 51 14 39 -10z m2345 10 c11 -17 -1 -21 -15 -4 -8 9 -8 15 -2 15 6
0 14 -5 17 -11z m-2531 -55 c25 -10 19 -34 -9 -34 -24 0 -34 18 -18 33 8 8 8
8 27 1z m1005 -143 c27 -50 11 -63 -22 -19 -26 34 -57 92 -57 104 0 15 57 -47
79 -85z m2706 -1087 c26 -34 27 -36 8 -56 -10 -11 -32 -27 -50 -34 -18 -8 -37
-23 -43 -34 -15 -27 -22 -25 -42 11 -30 52 -24 85 24 119 53 39 70 38 103 -6z
m-2405 11 c0 -8 -4 -15 -10 -15 -5 0 -10 7 -10 15 0 8 5 15 10 15 6 0 10 -7
10 -15z m-50 -80 c0 -13 -4 -26 -9 -29 -11 -7 -24 41 -16 55 10 15 25 0 25
-26z m2540 -13 c0 -14 -201 -193 -211 -187 -22 14 69 115 161 178 26 18 50 22
50 9z m1323 -62 c26 -7 47 -17 47 -21 0 -15 -69 -10 -100 6 -32 17 -41 39 -12
32 9 -3 38 -10 65 -17z m4992 -39 c-3 -5 -33 -19 -68 -30 -34 -12 -100 -43
-147 -70 -47 -27 -141 -77 -210 -111 -69 -34 -132 -66 -140 -71 -42 -26 -246
-120 -290 -133 -28 -8 -56 -19 -63 -23 -11 -8 -60 -25 -237 -87 -41 -14 -135
-42 -209 -62 -74 -20 -148 -42 -165 -49 -17 -7 -123 -27 -236 -45 -113 -18
-209 -35 -215 -38 -5 -4 -134 -10 -285 -14 -151 -3 -334 -10 -406 -14 -169 -9
-190 0 -235 93 -17 35 -29 66 -27 69 3 2 220 11 484 19 618 19 809 36 1094 97
235 49 630 187 990 345 108 48 335 132 358 132 7 1 11 -3 7 -8z m-8894 -42
l-9 -34 -1 31 c-1 17 2 34 6 37 12 13 14 -1 4 -34z m4275 -44 c147 -56 334
-143 334 -157 0 -5 -7 -8 -15 -8 -8 0 -45 -10 -82 -22 -55 -18 -78 -32 -118
-74 -41 -42 -63 -56 -119 -73 -81 -25 -90 -26 -82 -6 11 29 -13 15 -47 -27
-38 -48 -107 -153 -107 -164 0 -4 13 5 29 20 27 26 29 27 35 9 6 -20 180 -183
195 -183 5 0 34 -20 66 -45 32 -24 78 -52 104 -62 65 -24 87 -40 100 -71 5
-15 22 -114 36 -221 37 -277 46 -336 55 -352 21 -33 18 12 -15 222 -39 251
-42 289 -21 289 21 0 32 -45 60 -245 14 -99 37 -252 52 -340 14 -88 27 -174
30 -191 2 -18 12 -38 21 -45 15 -13 16 -8 9 51 -4 36 -21 144 -38 240 -52 306
-78 492 -69 508 5 9 11 11 15 4 3 -5 22 -120 40 -254 34 -240 68 -424 86 -463
18 -41 10 49 -19 220 -75 440 -80 484 -55 492 16 5 21 -10 49 -183 39 -234
132 -685 144 -697 18 -18 13 69 -8 158 -54 227 -140 710 -127 722 13 13 33
-24 44 -85 81 -427 147 -745 158 -759 13 -17 13 -17 14 4 0 12 -11 73 -25 137
-41 192 -125 644 -125 677 0 41 23 33 32 -12 4 -19 32 -159 62 -312 29 -153
59 -284 66 -290 10 -10 11 -5 6 23 -29 150 -96 550 -96 572 0 16 4 28 9 28 15
0 30 -56 82 -310 49 -240 68 -307 69 -247 0 22 -67 385 -94 508 -2 9 0 23 5
30 21 34 39 -24 84 -256 25 -132 51 -244 56 -250 15 -14 7 52 -40 308 -33 185
-38 242 -15 206 4 -6 21 -83 38 -171 17 -87 35 -158 41 -156 5 2 9 8 7 15 -9
42 -39 279 -35 283 12 13 43 -47 63 -122 42 -161 54 -195 58 -169 2 13 -6 63
-18 113 -13 49 -20 91 -17 95 7 6 28 -42 73 -172 49 -139 56 -173 37 -183 -12
-7 -12 -19 -3 -78 6 -38 13 -84 16 -102 7 -46 24 -30 24 24 0 67 17 53 35 -30
14 -61 14 -78 4 -98 -7 -12 -30 -75 -51 -138 -60 -178 -126 -307 -180 -356
-79 -69 -219 -164 -243 -164 -12 0 -55 -22 -96 -50 -49 -33 -80 -48 -94 -44
-24 6 -84 -49 -66 -60 6 -4 11 -16 11 -27 0 -26 5 -25 64 22 48 38 51 40 54
19 2 -11 -4 -33 -13 -46 -9 -14 -15 -28 -12 -30 2 -2 28 7 58 20 29 14 55 23
57 21 3 -3 -19 -26 -49 -52 -83 -73 -123 -117 -110 -121 6 -2 32 12 59 31 55
41 85 49 90 26 2 -11 -6 -18 -25 -22 -32 -6 -156 -114 -147 -128 3 -5 13 -5
25 2 42 22 41 1 0 -44 -28 -30 -52 -47 -67 -47 -13 0 -28 -9 -34 -19 -6 -13
-17 -17 -30 -14 -14 4 -28 -2 -41 -16 -11 -11 -24 -21 -29 -21 -6 0 -10 -7
-10 -15 0 -8 -13 -21 -30 -30 -16 -8 -29 -19 -29 -23 3 -21 -4 -31 -32 -42
-35 -15 -53 -51 -44 -91 9 -41 -11 -72 -41 -65 -16 4 -30 0 -44 -14 -13 -13
-28 -19 -40 -15 -27 8 -48 -36 -61 -131 -9 -64 -7 -99 11 -227 29 -197 81
-392 115 -422 29 -28 35 -23 35 27 0 43 12 49 28 14 35 -77 244 -271 372 -346
145 -84 250 -186 250 -242 0 -33 -33 -58 -75 -58 -16 0 -42 -6 -56 -14 -25
-13 -26 -12 -37 30 -14 51 -64 112 -101 121 -14 3 -32 15 -39 25 -7 10 -20 18
-27 18 -8 0 -22 15 -31 33 -19 38 -80 97 -100 97 -8 0 -14 5 -14 10 0 6 -11
22 -25 36 -14 14 -32 38 -40 54 -11 21 -23 30 -39 30 -20 0 -27 9 -41 50 -18
53 -35 66 -35 27 0 -78 141 -328 209 -372 20 -12 49 -37 65 -54 17 -17 35 -31
42 -31 6 0 23 -9 38 -21 35 -27 35 -76 1 -117 -26 -31 -32 -66 -15 -92 7 -12
16 -9 55 18 l46 33 -7 -48 c-8 -57 -20 -76 -45 -68 -15 5 -23 -4 -43 -48 -13
-30 -28 -57 -32 -60 -5 -3 -9 36 -9 86 0 96 -16 133 -26 60 -3 -23 -12 -50
-21 -60 -9 -10 -23 -33 -33 -52 -10 -19 -40 -58 -67 -87 -47 -50 -54 -74 -22
-74 8 0 14 -3 14 -6 0 -3 -25 -50 -55 -103 -30 -54 -55 -109 -55 -122 0 -14
-20 -57 -45 -95 -46 -72 -44 -96 6 -48 16 15 29 23 29 17 0 -5 -9 -18 -20 -28
-11 -10 -20 -23 -20 -30 0 -56 -139 -68 -247 -22 -34 15 -81 27 -103 27 -74 0
-42 50 39 60 l46 6 -30 16 c-27 16 -28 17 -7 18 22 0 31 25 11 32 -15 5 35
104 58 116 10 5 34 12 53 16 88 16 216 107 263 185 15 25 35 71 43 101 17 57
31 83 43 76 13 -8 70 23 86 48 22 34 13 96 -14 96 -23 0 -114 87 -130 124 -7
17 -25 46 -41 66 -16 21 -48 90 -71 156 -60 171 -94 244 -115 244 -10 0 -28
10 -41 22 -28 26 -29 14 -3 -52 11 -28 20 -61 20 -73 -1 -20 -4 -18 -33 16
-18 20 -36 37 -42 37 -27 1 -36 17 -24 42 10 23 7 36 -24 100 -20 40 -50 91
-67 113 -17 21 -42 59 -56 85 -15 28 -39 53 -61 65 -35 19 -35 19 -49 0 -8
-10 -14 -27 -14 -37 0 -28 38 -96 61 -111 11 -6 36 -42 56 -80 20 -37 51 -81
69 -97 19 -16 34 -32 34 -35 0 -7 -246 123 -308 163 -100 65 -166 148 -197
250 -6 20 -4 22 18 17 l25 -7 -13 49 c-8 26 -21 108 -30 182 -9 73 -22 146
-30 162 -8 15 -15 33 -15 40 0 23 -93 161 -126 185 -19 15 -35 38 -40 57 -3
18 -11 40 -16 50 -9 18 -11 18 -29 1 -18 -16 -19 -16 -26 2 -3 10 1 75 11 144
13 89 16 149 11 203 -4 42 -4 106 0 142 6 55 9 65 26 65 26 0 72 73 102 164
14 40 40 93 59 118 19 25 40 66 46 90 7 25 19 51 28 58 8 8 31 45 50 84 19 38
38 75 43 81 4 5 34 73 67 150 39 93 60 132 62 118 2 -13 8 -23 13 -23 19 0 70
97 99 188 31 95 41 197 18 174 -17 -17 -28 -15 -28 7 0 28 -21 37 -36 16 -12
-17 -14 -16 -24 9 -12 34 -30 25 -30 -15 0 -44 -18 -26 -26 27 -7 51 -27 55
-32 6 -3 -26 -7 -31 -25 -29 -29 3 -34 -30 -13 -93 9 -27 16 -61 15 -77 0 -25
-2 -24 -12 11 -14 45 -36 58 -44 27 -7 -27 -20 -27 -28 -1 -8 26 -21 25 -36
-2 -12 -21 -12 -21 -26 6 -12 22 -19 27 -38 22 -13 -3 -27 -1 -31 5 -3 6 -15
8 -25 6 -23 -6 -78 19 -86 39 -3 9 -18 13 -44 11 -35 -3 -41 0 -64 33 -14 20
-25 45 -25 57 0 11 -18 48 -41 82 l-41 62 17 87 c24 128 32 147 76 187 22 19
49 52 60 72 20 36 110 145 115 140 2 -2 -3 -26 -10 -55 -8 -29 -11 -52 -7 -52
9 0 21 25 73 154 44 110 71 156 95 156 8 0 13 -6 10 -12 -3 -7 -24 -57 -47
-111 -62 -148 -43 -149 30 -2 68 135 90 161 90 104 l0 -33 30 29 c16 16 32 26
35 23 3 -3 -26 -67 -66 -142 -73 -141 -85 -181 -29 -104 17 23 37 46 44 50 7
4 46 55 86 114 65 93 133 165 145 153 2 -3 -35 -63 -83 -135 -110 -166 -129
-198 -111 -192 8 2 50 58 94 123 81 122 175 229 182 208 3 -7 -23 -52 -56
-101 -34 -49 -61 -92 -61 -94 0 -3 16 0 35 6 23 7 33 16 30 25 -7 18 25 68 72
112 59 54 65 58 146 78 41 11 98 30 126 42 44 19 52 26 62 61 13 49 0 71 -74
127 -121 92 -121 94 -21 56z m-3231 -395 c-4 -17 -9 -29 -12 -26 -3 2 -2 19 2
36 4 17 9 29 12 26 3 -2 2 -19 -2 -36z m2734 -49 c-44 -64 -51 -57 -9 9 18 28
35 48 38 46 3 -3 -10 -28 -29 -55z m-278 -38 c-10 -17 -10 -16 -11 3 0 23 13
41 18 25 2 -6 -1 -18 -7 -28z m2424 -463 c108 -37 309 -160 291 -177 -7 -7
-135 63 -162 88 -24 23 -131 62 -145 54 -44 -28 47 -114 187 -176 58 -26 158
-77 223 -113 65 -36 123 -66 130 -66 14 0 14 13 -1 28 -7 7 -9 12 -5 12 4 0
24 -26 44 -57 20 -32 69 -89 108 -128 72 -71 138 -170 210 -315 21 -41 52 -95
70 -120 43 -58 125 -192 125 -202 0 -5 -23 8 -51 27 -51 35 -74 40 -49 10 22
-27 -6 -16 -76 30 -38 25 -70 41 -72 35 -2 -6 -2 -12 -1 -14 2 -1 47 -34 99
-73 52 -39 127 -91 166 -116 39 -25 77 -53 85 -63 19 -24 100 -74 118 -74 30
0 284 -210 270 -224 -3 -3 -25 8 -48 25 -69 51 -194 119 -218 119 -31 0 -29
-12 7 -38 19 -15 30 -31 30 -47 0 -14 4 -25 9 -25 22 0 163 -104 176 -131 9
-16 30 -36 48 -45 17 -9 82 -51 142 -93 61 -42 123 -83 138 -91 16 -8 73 -64
127 -125 221 -248 364 -363 695 -555 88 -51 168 -100 178 -108 21 -19 22 -60
1 -91 -15 -21 -23 -23 -84 -19 -63 3 -70 6 -131 55 -36 28 -77 57 -92 64 -15
7 -29 19 -32 28 -3 9 -31 32 -63 51 -31 19 -107 82 -168 140 -60 58 -123 117
-140 132 -16 15 -36 34 -44 42 -8 9 -26 26 -40 40 -14 13 -47 47 -75 76 -35
37 -64 57 -94 67 -25 7 -52 20 -61 28 -9 8 -45 27 -81 41 -35 14 -76 35 -91
45 -15 11 -44 26 -65 33 -21 7 -55 25 -76 39 -20 14 -56 28 -80 32 -23 4 -65
17 -94 30 -28 13 -76 30 -107 39 -47 14 -55 20 -53 38 2 19 -6 24 -68 38 -56
13 -69 19 -67 33 3 20 -22 31 -98 43 l-55 8 44 7 c47 9 64 19 44 26 -28 10
-10 23 32 23 33 0 51 -6 67 -22 18 -18 34 -22 92 -22 66 -1 71 1 74 21 2 12
11 25 21 28 10 3 26 14 36 25 17 19 17 20 -20 36 -21 9 -72 18 -112 21 -67 5
-76 4 -98 -17 -16 -15 -41 -24 -75 -28 -50 -5 -61 3 -38 26 10 10 10 15 -1 21
-17 11 -164 3 -205 -10 -25 -8 -34 -5 -54 13 -20 20 -33 23 -86 20 -60 -2 -63
-1 -101 38 -42 43 -55 49 -55 25 0 -25 -17 -17 -50 25 -35 44 -50 50 -50 20 0
-36 -18 -21 -51 40 -46 86 -73 76 -28 -11 11 -22 18 -46 16 -52 -7 -17 -62
106 -81 177 -10 41 -12 65 -5 78 14 26 26 22 51 -17 34 -51 52 -54 44 -8 -5
33 -4 35 7 19 36 -55 59 -76 72 -66 10 8 20 2 40 -25 35 -45 57 -47 48 -2 l-6
32 25 -22 c33 -31 41 -29 33 8 l-7 32 35 -27 c35 -27 55 -24 36 4 -20 32 -7
30 31 -4 69 -62 70 -39 3 67 -13 20 -21 37 -18 37 3 0 36 -29 73 -63 128 -120
174 -132 67 -18 -37 39 -64 71 -59 71 5 0 29 -14 54 -30 65 -43 92 -40 48 7
-30 33 -12 28 52 -12 65 -42 74 -43 66 -10 l-7 26 40 -21 c92 -46 81 -15 -20
60 -102 76 -205 134 -224 126 -9 -3 -31 9 -54 29 -21 19 -42 35 -46 35 -3 0
-4 -15 0 -32 7 -33 7 -33 -52 25 -34 33 -67 57 -80 57 -11 0 -26 7 -33 15 -7
8 -18 15 -26 15 -7 0 -24 11 -36 25 -25 27 -98 68 -107 59 -3 -2 0 -19 7 -36
15 -41 8 -48 -12 -11 -22 44 -43 58 -61 43 -12 -10 -16 -9 -21 6 -16 52 -25
66 -39 60 -10 -4 -20 6 -29 29 -11 24 -20 33 -30 29 -11 -4 -22 9 -39 48 -13
29 -31 59 -40 66 -9 8 -23 47 -33 88 -25 115 -38 105 -32 -25 3 -62 2 -109 -2
-104 -19 19 -100 309 -100 355 1 20 2 21 11 6 17 -30 29 -20 29 21 0 22 6 46
14 53 13 13 27 106 27 176 0 39 12 40 94 12z m-4842 -39 c19 -33 22 -51 6 -51
-8 0 -39 58 -39 75 0 14 18 2 33 -24z m75 -158 c15 -49 7 -55 -12 -8 -18 43
-19 45 -8 45 5 0 14 -17 20 -37z m4549 -65 c-2 -13 -4 -5 -4 17 -1 22 1 32 4
23 2 -10 2 -28 0 -40z m642 8 c58 -43 85 -72 73 -80 -9 -5 -134 83 -147 104
-14 22 30 8 74 -24z m-2874 -307 c11 -17 -1 -21 -15 -4 -8 9 -8 15 -2 15 6 0
14 -5 17 -11z m205 -34 c0 -17 -2 -17 -10 -5 -5 8 -10 24 -10 35 0 17 2 17 10
5 5 -8 10 -24 10 -35z m60 7 c0 -15 -2 -15 -10 -2 -13 20 -13 33 0 25 6 -3 10
-14 10 -23z m1788 -214 c-4 -97 -9 -133 -25 -169 -25 -56 -73 -133 -78 -127
-3 2 14 62 36 134 25 80 42 159 46 207 10 126 26 91 21 -45z m160 -93 c-27
-173 -80 -336 -102 -314 -3 3 10 73 29 155 38 164 41 189 22 197 -10 4 -12 21
-6 73 5 38 8 76 9 84 1 8 14 -21 29 -65 23 -67 26 -88 19 -130z m-218 81 c-6
-34 -30 -119 -52 -189 -31 -97 -49 -135 -72 -157 -16 -17 -31 -28 -34 -25 -2
2 16 55 41 117 43 110 99 273 113 333 7 29 8 29 12 6 2 -14 -1 -52 -8 -85z
m121 -10 c-13 -94 -34 -165 -44 -149 -10 16 36 254 47 243 6 -6 5 -42 -3 -94z
m-4270 29 c76 -51 82 -62 99 -188 16 -126 15 -137 -18 -137 -53 0 -121 31
-189 88 -38 31 -77 63 -87 71 -10 8 -36 17 -59 20 -22 3 -42 11 -44 18 -5 14
107 127 152 155 45 27 73 22 146 -27z m4499 0 c0 -17 -2 -17 -10 -5 -5 8 -10
24 -10 35 0 17 2 17 10 5 5 -8 10 -24 10 -35z m-2295 -12 c4 -21 3 -33 -4 -33
-6 0 -11 8 -11 18 0 9 -3 28 -6 42 -5 17 -3 22 4 15 5 -5 13 -25 17 -42z
m2260 -30 c4 -19 0 -34 -14 -54 -26 -35 -113 -329 -98 -329 13 0 75 31 84 42
6 7 16 29 21 48 13 46 14 8 1 -50 -15 -71 -15 -71 -43 -60 -18 6 -28 5 -36 -6
-18 -21 -39 -17 -45 9 -8 31 60 342 86 394 23 46 33 48 44 6z m-4193 -161 c18
-15 45 -36 61 -45 23 -15 27 -24 27 -62 l0 -45 -24 15 c-23 15 -25 15 -34 -2
-5 -10 -12 -31 -16 -46 -8 -34 -26 -31 -45 7 -10 21 -15 25 -22 15 -14 -24
-21 -2 -27 86 -4 68 -2 89 9 96 23 14 36 11 71 -19z m4368 -28 c6 -14 19 -28
29 -31 14 -4 20 -18 25 -61 3 -31 8 -68 11 -82 3 -17 -1 -12 -13 12 -20 45
-32 48 -33 11 l-1 -28 -13 31 c-17 37 -37 153 -29 165 8 14 14 10 24 -17z
m-2706 -19 c3 -8 1 -15 -4 -15 -6 0 -10 7 -10 15 0 8 2 15 4 15 2 0 6 -7 10
-15z m-83 -81 c80 -23 148 -63 155 -90 6 -23 -49 -230 -106 -400 -24 -72 -26
-86 -14 -101 20 -27 18 -100 -3 -111 -10 -5 -62 -15 -115 -21 -118 -13 -121
-13 -113 -1 3 6 21 10 40 10 37 0 55 17 34 31 -16 11 -85 5 -289 -22 -214 -30
-371 -65 -696 -160 -168 -48 -201 -33 -42 19 118 39 184 56 366 93 181 36 252
56 252 71 0 24 -220 -22 -565 -117 -49 -14 -97 -25 -105 -24 -33 1 124 54 269
89 84 21 158 43 164 49 7 7 2 14 -17 22 -23 11 -32 10 -57 -5 -22 -13 -40 -16
-65 -12 -37 7 -151 -11 -160 -25 -3 -5 -13 -9 -22 -9 -9 0 -37 -14 -62 -30
-25 -16 -48 -30 -52 -30 -16 0 -7 58 38 240 38 157 52 200 89 265 39 68 57
110 71 163 9 32 101 45 475 67 190 11 283 21 330 34 82 24 132 25 200 5z
m2658 -71 c-7 -37 -15 -60 -17 -51 -4 22 18 132 25 124 3 -3 -1 -36 -8 -73z
m251 -4 c12 -39 19 -78 17 -87 -2 -9 -16 21 -30 69 -30 94 -31 103 -17 94 5
-3 19 -37 30 -76z m-140 4 c0 -9 18 -70 41 -136 22 -65 39 -121 36 -123 -5 -6
-64 131 -84 195 -15 52 -17 95 -3 86 6 -3 10 -13 10 -22z m855 7 c3 -5 1 -10
-4 -10 -6 0 -11 5 -11 10 0 6 2 10 4 10 3 0 8 -4 11 -10z m271 -68 c-4 -3 -14
2 -24 12 -16 18 -16 18 6 6 13 -6 21 -14 18 -18z m-1250 -103 c21 -19 46 -44
54 -55 14 -18 14 -18 -5 -3 -81 63 -125 102 -125 110 0 12 25 -5 76 -52z m21
-104 c32 -30 54 -54 48 -54 -15 -1 -132 108 -118 109 7 0 38 -25 70 -55z m648
-183 l30 -6 -33 -6 c-48 -8 -40 -23 18 -36 27 -7 61 -19 74 -27 13 -9 41 -19
62 -22 21 -4 53 -15 69 -25 17 -10 48 -23 70 -30 22 -7 68 -37 103 -67 34 -30
86 -67 115 -81 56 -29 75 -62 35 -62 -37 0 -164 38 -231 69 -96 45 -112 64
-24 30 89 -34 170 -52 164 -36 -1 5 -36 22 -77 37 -112 40 -159 63 -305 145
-170 96 -202 110 -221 94 -11 -9 -19 -8 -34 6 -11 10 -17 22 -14 27 6 10 140
3 199 -10z m1095 -82 c0 -18 -18 -10 -39 16 -34 43 -26 65 9 26 17 -18 30 -37
30 -42z m100 -110 c0 -19 -39 9 -55 40 -8 16 -15 33 -15 37 1 12 70 -65 70
-77z m-4805 -19 c-10 -10 -177 -41 -184 -35 -9 9 9 14 90 28 108 18 105 18 94
7z m345 -46 c0 -14 -9 -38 -21 -54 l-21 -28 -236 4 c-252 4 -302 8 -302 24 0
17 50 29 213 49 198 24 225 26 305 28 60 2 62 1 62 -23z m-755 -25 c-3 -5 -18
-10 -33 -9 -24 0 -25 1 -7 9 28 12 47 12 40 0z m-205 -50 c-65 -21 -138 -35
-128 -25 11 11 130 44 158 43 16 0 5 -6 -30 -18z m316 5 c-10 -8 -39 -17 -65
-21 -70 -10 -403 -83 -430 -95 -55 -23 2 -25 109 -3 63 13 161 30 218 39 126
19 558 38 667 30 119 -9 125 -11 125 -43 0 -15 4 -32 9 -37 5 -6 14 -26 20
-45 6 -20 32 -72 57 -115 46 -81 70 -147 145 -400 22 -77 65 -192 96 -255 l55
-116 -68 -109 c-36 -61 -74 -122 -83 -137 -8 -15 -12 -30 -7 -35 14 -14 69 61
125 167 l53 101 36 -38 c21 -21 66 -64 102 -95 l65 -57 -30 -11 c-52 -21 -395
-141 -515 -181 -153 -51 -187 -67 -193 -91 -4 -14 -11 -18 -24 -14 -18 5 -456
54 -701 77 l-123 12 3 25 c4 34 -17 40 -154 41 -65 1 -108 5 -108 11 0 6 6 10
13 10 8 0 24 12 38 26 13 14 83 54 154 88 72 35 164 83 205 107 105 63 119 67
81 23 -20 -22 -31 -44 -29 -57 3 -19 9 -22 43 -21 22 0 52 4 68 8 23 7 27 5
27 -12 0 -19 6 -20 113 -18 l112 1 15 -33 c12 -25 20 -32 40 -30 19 2 26 10
28 29 6 49 -86 98 -186 99 -24 1 -25 2 -9 11 10 6 66 15 125 20 132 12 141 14
120 35 -25 25 -159 40 -230 25 -33 -7 -62 -10 -64 -8 -3 2 2 17 11 33 8 16 15
36 15 44 0 9 5 21 11 27 7 7 5 15 -6 27 -9 9 -19 16 -23 16 -4 0 -68 -34 -142
-75 -74 -41 -138 -75 -142 -75 -5 0 -8 7 -8 15 0 26 -24 17 -116 -41 -93 -59
-209 -117 -306 -152 l-56 -21 -16 24 c-16 24 -15 24 22 35 20 5 55 13 77 16
45 8 68 21 58 36 -4 7 -35 8 -85 4 -49 -4 -77 -3 -74 3 3 5 42 30 86 56 44 26
83 51 86 57 13 20 -8 20 -63 0 -31 -12 -59 -20 -61 -18 -1 2 15 18 38 36 78
61 13 64 -99 4 -35 -19 -65 -34 -66 -32 -8 8 20 115 34 130 23 25 177 72 368
114 278 60 374 84 450 116 67 27 74 33 83 67 7 28 28 55 79 100 77 68 92 95
67 119 -14 15 -19 14 -55 -6 -21 -12 -46 -22 -55 -22 -20 0 -21 -29 -1 -36 25
-10 17 -23 -22 -41 -21 -10 -56 -29 -78 -44 -54 -35 -301 -124 -449 -160 -66
-17 -128 -34 -136 -38 -21 -11 -16 -25 12 -31 19 -5 13 -8 -27 -19 -27 -7 -99
-29 -159 -48 -89 -29 -110 -33 -117 -22 -16 25 -10 56 22 115 19 36 32 79 35
109 2 28 9 111 14 185 11 138 32 262 52 306 23 51 215 111 538 169 69 13 136
23 150 24 24 0 24 0 6 -14z m-496 -55 c-20 -13 -43 -13 -35 0 3 6 16 10 28 10
18 0 19 -2 7 -10z m-97 -27 c-7 -2 -21 -2 -30 0 -10 3 -4 5 12 5 17 0 24 -2
18 -5z m-1199 -65 c-96 -107 -289 -308 -296 -308 -4 0 -8 15 -8 33 0 29 11 44
78 108 131 126 250 224 260 214 3 -2 -12 -24 -34 -47z m-444 32 c0 -5 -12 -10
-27 -9 -25 0 -26 1 -8 9 27 12 35 12 35 0z m7175 -70 c23 -11 74 -31 115 -45
71 -24 98 -39 245 -139 84 -56 223 -166 328 -258 42 -37 101 -85 132 -108 30
-22 55 -46 55 -53 0 -28 96 -97 134 -97 8 0 45 -23 81 -51 37 -28 81 -57 100
-65 18 -7 36 -18 40 -23 3 -6 32 -24 63 -41 32 -17 96 -59 142 -94 74 -55 92
-76 139 -153 29 -49 79 -123 112 -163 32 -41 75 -105 94 -142 45 -85 76 -91
104 -21 10 25 11 40 2 64 -15 44 -14 46 14 19 25 -24 85 -111 85 -123 0 -4
-17 -7 -39 -7 -23 0 -44 -6 -52 -16 -12 -14 -8 -20 24 -46 56 -45 46 -68 -29
-68 -18 0 -65 -5 -104 -12 -73 -13 -86 -9 -92 27 -3 19 2 20 60 16 50 -2 62 0
62 12 0 25 -33 57 -104 101 -38 23 -74 50 -80 61 -37 69 -63 99 -130 150 -89
67 -104 85 -46 55 23 -12 45 -19 48 -15 4 3 -32 43 -79 88 -47 45 -99 102
-115 127 -35 53 -60 62 -74 26 -14 -38 -60 -34 -177 16 -111 48 -168 97 -222
190 -46 81 -114 153 -212 223 -153 109 -303 224 -404 311 -55 46 -166 132
-247 190 -81 58 -150 109 -153 114 -7 12 130 -26 180 -50z m-5755 20 c0 -11
-4 -20 -10 -20 -5 0 -10 9 -10 20 0 11 5 20 10 20 6 0 10 -9 10 -20z m-750
-49 c0 -5 -62 -61 -137 -124 -76 -63 -211 -185 -300 -271 -161 -155 -211 -196
-137 -112 22 24 61 71 88 104 57 71 194 194 357 322 113 88 129 99 129 81z
m60 -11 c0 -5 -4 -10 -10 -10 -5 0 -10 5 -10 10 0 6 5 10 10 10 6 0 10 -4 10
-10z m-761 -76 c-43 -45 -89 -79 -89 -65 0 8 108 99 119 101 3 0 -11 -16 -30
-36z m596 -115 c-59 -57 -111 -106 -117 -108 -25 -9 36 79 83 119 58 50 131
101 137 96 2 -2 -45 -50 -103 -107z m-310 -67 c-21 -20 -32 -28 -25 -17 26 37
53 65 59 60 3 -3 -12 -22 -34 -43z m-145 -18 c0 -13 -21 -44 -30 -44 -14 0
-12 24 2 38 13 13 28 16 28 6z m60 -74 c-12 -16 -26 -30 -33 -30 -6 0 2 14 18
30 16 17 30 30 33 30 2 0 -6 -13 -18 -30z m3003 -36 c-7 -19 -23 -7 -23 18 0
17 3 18 14 8 8 -6 12 -18 9 -26z m-833 -19 c0 -6 -48 -30 -79 -40 -17 -5 -21
-4 -16 5 12 20 95 51 95 35z m856 -40 c4 -14 3 -29 0 -33 -9 -8 -26 18 -26 41
0 26 19 20 26 -8z m-1121 -60 c-16 -8 -41 -14 -55 -14 -22 0 -21 2 10 14 48
19 86 18 45 0z m1141 -12 c15 -21 18 -43 5 -43 -5 0 -14 14 -20 30 -11 34 -5
39 15 13z m-1266 -23 c-19 -13 -30 -13 -30 0 0 6 10 10 23 10 18 0 19 -2 7
-10z m-90 -20 c-8 -5 -26 -9 -40 -9 l-25 1 25 8 c14 4 32 8 40 9 13 1 13 0 0
-9z m-1740 -127 c0 -5 -19 -33 -43 -63 -130 -172 -201 -260 -204 -256 -8 8 38
95 77 146 105 133 170 200 170 173z m3410 -393 c22 -15 3 -24 -115 -61 -55
-17 -148 -46 -207 -65 -59 -19 -116 -34 -126 -34 -10 0 -22 -4 -28 -9 -13 -12
-141 -57 -188 -65 -22 -4 -49 -14 -60 -22 -23 -16 -50 -19 -42 -5 8 12 97 47
376 149 129 46 258 93 285 103 57 21 83 23 105 9z m80 -69 c0 -16 -108 -51
-230 -77 -63 -13 -143 -33 -177 -45 -34 -11 -73 -19 -85 -16 -27 4 -35 1 135
61 70 26 160 55 200 65 77 21 157 27 157 12z m130 -60 c19 -15 67 -49 106 -73
78 -50 109 -84 119 -128 9 -42 -8 -66 -83 -116 -37 -24 -77 -51 -89 -60 -21
-15 -38 -14 -250 21 -278 45 -277 45 -264 58 19 19 12 26 -49 43 -71 20 -79
43 -24 72 20 10 256 68 437 107 42 9 77 20 77 25 0 17 -30 18 -92 5 -355 -77
-441 -98 -470 -117 -27 -18 -87 -23 -122 -9 -15 6 -2 13 55 34 41 14 108 35
149 47 41 11 147 40 235 64 241 66 220 64 265 27z m-690 -105 c-24 -23 -141
-59 -153 -47 -7 7 -1 14 19 22 52 21 109 38 129 38 17 1 17 -1 5 -13z m-385
-76 c-2 -4 -16 -5 -30 -3 -13 3 -23 9 -20 13 2 4 16 5 30 3 13 -3 23 -9 20
-13z m91 -11 c6 -10 -2 -11 -33 -3 -13 4 -23 10 -23 14 0 10 49 0 56 -11z
m262 -15 c12 -4 22 -11 22 -16 0 -11 -100 -2 -148 12 -20 6 -11 8 38 9 36 0
75 -2 88 -5z m-368 -34 c12 -8 10 -10 -10 -10 -14 0 -32 5 -40 10 -12 8 -10
10 10 10 14 0 32 -5 40 -10z m165 -10 c14 -6 2 -9 -40 -9 -33 0 -69 4 -80 9
-14 6 -2 9 40 9 33 0 69 -4 80 -9z m141 -18 c-5 -8 -76 -4 -76 4 0 2 18 4 41
4 22 0 38 -4 35 -8z m1084 -37 c21 -26 6 -50 -55 -82 -59 -32 -102 -43 -90
-23 4 6 33 24 65 40 32 16 62 34 65 40 13 22 -7 24 -38 6 -62 -37 -148 -78
-153 -73 -12 12 143 107 176 107 10 0 23 -7 30 -15z m-780 -46 c133 -18 708
-112 773 -126 43 -9 32 14 -15 29 l-41 14 37 22 c20 12 39 22 41 22 2 0 13
-25 24 -55 24 -63 27 -111 9 -118 -7 -2 -112 15 -233 38 -121 24 -238 47 -260
51 -65 12 -13 16 67 5 73 -10 89 -8 72 9 -11 11 -285 57 -569 95 -110 15 -209
31 -220 36 -30 14 144 2 315 -22z m6075 6 c0 -5 -24 -11 -54 -13 -49 -3 -53
-2 -41 13 15 18 95 18 95 0z m-6713 -7 c-8 -8 -23 -8 -54 -1 l-43 11 55 1 c41
1 51 -2 42 -11z m283 -14 c88 -9 167 -21 175 -26 16 -10 -24 -8 -245 12 -71 7
-137 16 -145 21 -23 13 34 11 215 -7z m2010 -19 c122 -18 171 -33 157 -47 -6
-6 -36 -8 -74 -4 -35 3 -105 9 -156 12 -93 7 -108 13 -98 39 7 19 45 19 171 0z
m-1762 -22 c-7 -2 -19 -2 -25 0 -7 3 -2 5 12 5 14 0 19 -2 13 -5z m-263 -13
c13 -8 13 -10 -2 -10 -9 0 -20 5 -23 10 -8 13 5 13 25 0z m553 -15 c31 -4 57
-12 57 -17 0 -5 -8 -7 -17 -4 -10 2 -44 7 -75 11 -32 3 -61 11 -64 17 -5 7 1
9 17 5 13 -3 50 -9 82 -12z m5562 5 c-3 -5 -21 -10 -38 -10 -24 0 -28 3 -17
10 20 13 63 13 55 0z m530 0 c-3 -5 -32 -9 -63 -9 -47 1 -52 3 -27 9 45 12 97
12 90 0z m-6695 -30 c0 -5 -4 -10 -9 -10 -6 0 -13 5 -16 10 -3 6 1 10 9 10 9
0 16 -4 16 -10z m135 -1 c10 -14 1 -21 -19 -13 -9 3 -13 10 -10 15 7 12 21 11
29 -2z m1912 0 l28 -12 -30 -9 c-28 -8 -138 -3 -178 8 -9 3 -15 10 -12 15 9
13 158 11 192 -2z m4238 2 c-13 -11 -215 -45 -223 -37 -14 14 18 25 98 34 118
13 136 13 125 3z m-3905 -20 c-17 -10 -171 -51 -191 -51 -30 0 8 15 89 36 98
25 127 29 102 15z m2800 5 c0 -4 -44 -14 -180 -42 -16 -4 -22 -2 -15 4 17 17
195 51 195 38z m-3254 -44 c41 -2 77 -8 79 -12 3 -4 -14 -15 -37 -25 -23 -9
-55 -28 -72 -42 -29 -24 -107 -63 -127 -63 -15 0 -10 34 13 91 29 72 37 82 55
68 7 -7 47 -14 89 -17z m4314 9 c0 -5 -34 -15 -75 -22 -113 -18 -92 -31 38
-23 78 4 109 3 102 -4 -5 -6 -28 -12 -50 -14 -33 -2 -41 -7 -43 -25 -4 -25
-12 -29 -29 -12 -17 17 -43 3 -43 -22 0 -21 -3 -22 -67 -16 -53 5 -72 11 -86
28 -22 27 -14 38 11 16 10 -10 29 -17 41 -17 22 0 23 3 17 44 l-7 45 48 7 c26
3 66 10 88 14 56 11 55 11 55 1z m67 3 c-3 -3 -12 -4 -19 -1 -8 3 -5 6 6 6 11
1 17 -2 13 -5z m-5915 -66 c-19 -19 -14 -28 18 -28 17 0 30 -4 30 -10 0 -14
-63 0 -77 18 -16 19 -8 32 20 32 16 0 18 -3 9 -12z m2617 -10 c-7 -12 -11 -39
-11 -60 2 -39 -5 -47 -26 -26 -18 18 -15 45 10 78 25 35 44 40 27 8z m-2498
-41 c-13 -13 -26 -3 -16 12 3 6 11 8 17 5 6 -4 6 -10 -1 -17z m707 -2 c13 -13
-18 -27 -47 -20 -35 8 -49 24 -31 35 12 7 66 -3 78 -15z m1547 -16 c37 -10 38
-12 20 -25 -25 -18 -65 -18 -93 2 -44 31 -3 44 73 23z m-1560 -39 c3 -5 2 -10
-4 -10 -5 0 -13 5 -16 10 -3 6 -2 10 4 10 5 0 13 -4 16 -10z m1400 -50 c56
-38 78 -40 69 -4 -6 22 -4 25 12 22 38 -7 22 -42 -32 -69 -46 -23 -68 -27
-200 -33 -82 -4 -169 -11 -194 -16 -84 -15 -196 -22 -180 -11 21 15 109 40
215 61 50 10 126 32 170 49 44 16 84 30 88 30 5 1 28 -12 52 -29z m-475 11
c-8 -5 -33 -12 -55 -15 l-40 -6 30 15 c33 16 91 21 65 6z m660 -40 c0 -23 -25
-46 -34 -32 -7 11 14 51 26 51 5 0 8 -8 8 -19z m-1070 -1 c0 -5 -5 -10 -11
-10 -5 0 -7 5 -4 10 3 6 8 10 11 10 2 0 4 -4 4 -10z m-576 -9 c3 -4 -13 -13
-35 -20 -31 -9 -47 -9 -74 0 -19 7 -35 17 -35 21 0 11 137 10 144 -1z m-285
-17 c2 -2 -20 -4 -50 -4 -38 0 -50 3 -39 10 13 8 78 4 89 -6z m-289 -9 c96 -8
220 -19 275 -24 126 -13 127 -13 120 -1 -3 6 -19 10 -35 10 -16 0 -32 5 -35
11 -8 12 104 2 145 -13 24 -9 24 -10 6 -23 -24 -18 -97 -29 -138 -21 -18 4
-89 11 -158 16 -69 5 -191 16 -271 25 -80 8 -156 15 -167 15 -12 0 -22 5 -22
10 0 14 73 12 280 -5z m1290 -44 c0 -12 -81 -31 -132 -30 -38 0 -40 1 -19 10
21 8 100 24 139 28 6 0 12 -3 12 -8z m-1102 -30 c20 -11 -68 -22 -125 -15 -95
10 -114 15 -107 26 7 12 208 2 232 -11z m1522 0 c0 -5 -9 -11 -20 -14 -11 -3
-20 -1 -20 3 0 5 8 11 18 13 9 3 18 5 20 6 1 0 2 -3 2 -8z m285 -43 c-44 -67
-46 -96 -5 -104 16 -4 27 -10 24 -15 -9 -16 -51 -9 -93 14 l-41 24 27 12 26
12 -26 26 -26 26 -93 -21 c-95 -22 -316 -48 -340 -40 -30 10 40 30 159 45 69
8 176 28 237 43 61 15 128 28 149 29 l38 1 -36 -52z m-908 25 c-9 -9 -19 -14
-23 -11 -10 10 6 28 24 28 15 0 15 -1 -1 -17z m1761 -10 c2 -9 -6 -13 -25 -13
-39 0 -73 10 -73 22 0 14 93 5 98 -9z m-1650 -20 c-4 -22 -38 -30 -38 -10 0
14 13 24 33 26 5 1 7 -7 5 -16z m1541 -3 c12 -7 8 -9 -19 -10 -54 0 -110 11
-110 23 0 12 104 1 129 -13z m-1632 -16 c4 -13 -40 -34 -72 -34 -17 0 -23 4
-19 14 11 29 83 45 91 20z m1403 -16 c31 -10 41 -28 17 -28 -8 0 -94 -9 -193
-20 -203 -22 -214 -23 -214 -12 0 28 32 44 125 62 103 20 206 19 265 -2z
m-1766 -49 c-14 -28 -27 -49 -30 -47 -5 5 45 98 52 98 2 0 -7 -23 -22 -51z
m-889 31 c3 -5 -1 -10 -9 -10 -9 0 -16 5 -16 10 0 6 4 10 9 10 6 0 13 -4 16
-10z m1000 -49 c-25 -50 -37 -36 -12 15 12 26 23 40 25 31 2 -9 -4 -29 -13
-46z m-575 39 c0 -15 -50 -60 -67 -60 -9 0 -11 5 -4 18 5 9 12 25 15 35 6 18
56 25 56 7z m635 -27 c-11 -58 -28 -77 -20 -24 6 45 12 61 22 61 3 0 2 -17 -2
-37z m498 -62 c19 -19 1 -22 -77 -15 -73 6 -86 15 -41 27 30 8 105 1 118 -12z
m-1503 -1 c0 -12 -8 -12 -35 0 -18 8 -17 9 8 9 15 1 27 -3 27 -9z m1765 1 c26
-6 18 -9 -53 -25 -86 -19 -108 -15 -96 17 5 13 18 17 63 16 31 -1 70 -4 86 -8z
m812 -27 c-3 -3 -12 -4 -19 -1 -8 3 -5 6 6 6 11 1 17 -2 13 -5z m-2357 -59
c-7 -8 -19 -15 -26 -15 -20 0 -17 27 4 39 23 13 39 -3 22 -24z m800 5 c-20
-13 -33 -13 -25 0 3 6 14 10 23 10 15 0 15 -2 2 -10z m808 -7 c-5 -27 -47 -43
-112 -43 -54 0 -58 1 -40 14 10 8 20 19 20 25 1 6 2 13 3 16 0 3 31 5 67 5 57
0 65 -2 62 -17z m-879 -35 c-10 -18 -59 -26 -59 -9 0 5 12 19 27 31 30 23 49
10 32 -22z m-198 -31 c-1 -12 -15 -9 -19 4 -3 6 1 10 8 8 6 -3 11 -8 11 -12z
m-439 -9 c-9 -9 -15 -9 -24 0 -9 9 -7 12 12 12 19 0 21 -3 12 -12z m2338 -8
c0 -5 -4 -10 -10 -10 -5 0 -10 5 -10 10 0 6 5 10 10 10 6 0 10 -4 10 -10z"/>
<path d="M877 8053 c-11 -10 -8 -43 3 -43 6 0 10 11 10 25 0 26 -2 29 -13 18z"/>
<path d="M461 7371 c-14 -24 -14 -31 -1 -31 14 0 32 38 21 45 -6 3 -15 -3 -20
-14z"/>
<path d="M670 7355 c-10 -11 -10 -19 -2 -27 15 -15 44 -2 40 19 -4 23 -22 27
-38 8z"/>
<path d="M572 7351 c4 -13 18 -16 19 -4 0 4 -5 9 -11 12 -7 2 -11 -2 -8 -8z"/>
<path d="M386 7303 c-14 -15 -4 -43 25 -67 50 -42 96 -31 60 15 -23 29 -76 61
-85 52z"/>
<path d="M2861 7751 c-15 -27 -14 -46 4 -61 24 -20 67 13 63 48 -4 35 -51 44
-67 13z"/>
<path d="M3010 7665 c-24 -29 8 -75 44 -62 30 12 14 77 -20 77 -6 0 -17 -7
-24 -15z"/>
<path d="M2525 7546 c-30 -29 -36 -41 -33 -68 3 -31 6 -33 45 -36 52 -4 73 22
73 90 0 44 -2 48 -24 48 -14 0 -40 -15 -61 -34z"/>
<path d="M2793 7502 c-22 -14 -32 -57 -19 -83 24 -49 76 -28 76 32 0 53 -22
73 -57 51z"/>
<path d="M2657 7343 c-4 -3 -7 -13 -7 -21 0 -12 3 -12 15 -2 8 7 15 16 15 21
0 11 -14 12 -23 2z"/>
<path d="M2530 7308 c-24 -39 -25 -61 -6 -77 20 -17 54 2 62 33 17 69 -22 100
-56 44z"/>
<path d="M3117 7042 c-25 -27 -21 -60 7 -74 46 -21 85 18 63 63 -16 30 -48 36
-70 11z"/>
<path d="M4075 6923 c-45 -10 -51 -16 -25 -23 36 -11 53 -11 70 0 13 9 13 11
0 20 -8 5 -17 9 -20 9 -3 -1 -14 -3 -25 -6z"/>
<path d="M4022 6853 c-6 -2 -10 -9 -6 -14 7 -12 164 -12 164 0 0 16 -125 27
-158 14z"/>
<path d="M2624 6764 c-14 -32 -13 -38 1 -60 8 -13 24 -24 35 -24 43 0 69 89
31 110 -34 18 -52 11 -67 -26z"/>
<path d="M3997 6783 c-36 -3 -57 -8 -55 -15 3 -7 77 -12 221 -14 120 -1 215 1
212 5 -16 27 -175 36 -378 24z"/>
<path d="M4065 6721 c-137 -22 -120 -41 33 -35 222 9 285 15 273 27 -14 14
-232 19 -306 8z"/>
<path d="M4206 6670 c-166 -21 -224 -55 -66 -40 47 5 126 9 177 9 81 1 119 10
96 24 -17 11 -142 15 -207 7z"/>
<path d="M3432 6618 c-18 -18 -15 -67 4 -75 27 -10 49 11 49 48 0 26 -4 35
-20 37 -11 1 -26 -3 -33 -10z"/>
<path d="M4265 6609 c-69 -9 -122 -25 -113 -35 6 -5 240 16 248 23 8 7 -24 23
-45 22 -11 -1 -51 -5 -90 -10z"/>
<path d="M4244 6540 c-35 -14 -39 -30 -7 -30 39 0 103 19 103 30 0 12 -67 12
-96 0z"/>
<path d="M3229 6479 c-33 -62 -32 -123 1 -134 28 -9 75 20 89 54 27 64 -58
140 -90 80z"/>
<path d="M4262 6458 c-19 -19 -14 -38 11 -38 30 0 62 24 53 38 -9 16 -49 15
-64 0z"/>
<path d="M3251 5814 c-17 -22 -21 -39 -19 -77 4 -65 21 -77 74 -51 47 23 51
43 21 104 -26 54 -47 60 -76 24z"/>
<path d="M3000 5268 c0 -71 4 -118 10 -118 17 0 23 49 16 128 -12 126 -25 120
-26 -10z"/>
<path d="M3064 5285 c-8 -19 12 -329 24 -384 11 -49 32 -52 32 -4 0 55 -37
394 -44 400 -3 3 -9 -2 -12 -12z"/>
<path d="M5640 4170 c0 -5 5 -10 10 -10 6 0 10 5 10 10 0 6 -4 10 -10 10 -5 0
-10 -4 -10 -10z"/>
<path d="M2725 3810 c-4 -6 -3 -16 3 -22 6 -6 12 -6 17 2 4 6 3 16 -3 22 -6 6
-12 6 -17 -2z"/>
<path d="M4690 5939 c0 -5 5 -7 10 -4 6 3 10 8 10 11 0 2 -4 4 -10 4 -5 0 -10
-5 -10 -11z"/>
<path d="M6854 4695 c6 -76 65 -494 72 -517 3 -10 10 -18 16 -18 12 0 9 20
-39 335 -34 222 -60 330 -49 200z"/>
<path d="M6823 4543 c3 -27 13 -115 23 -198 17 -161 33 -219 34 -125 0 54 -24
288 -36 343 -10 48 -27 31 -21 -20z"/>
<path d="M5720 4479 c0 -5 5 -7 10 -4 6 3 10 8 10 11 0 2 -4 4 -10 4 -5 0 -10
-5 -10 -11z"/>
<path d="M7601 4149 c-11 -26 -27 -52 -35 -58 -8 -7 -20 -29 -26 -49 -7 -20
-22 -46 -35 -57 -13 -11 -33 -42 -45 -69 -11 -28 -36 -64 -54 -82 -18 -18 -46
-62 -62 -98 -27 -63 -44 -83 -44 -51 0 29 -15 14 -61 -58 -50 -79 -63 -107
-49 -107 12 0 35 25 71 76 46 67 47 60 5 -38 -9 -21 -12 -38 -8 -38 12 0 52
44 52 58 0 7 5 12 11 12 6 0 9 -7 5 -15 -8 -21 8 -19 28 4 21 23 84 167 116
266 13 39 25 65 27 60 2 -6 -17 -70 -42 -144 -25 -73 -45 -137 -45 -143 0 -18
86 61 106 97 10 19 22 35 26 35 19 0 5 -54 -33 -125 -40 -77 -45 -112 -8 -65
71 92 194 393 149 365 -6 -4 -10 36 -11 112 0 65 -4 127 -9 138 -7 17 -11 14
-29 -26z"/>
<path d="M6542 3833 c-23 -9 -33 -40 -22 -68 8 -21 16 -26 38 -23 23 2 28 8
30 36 2 18 -2 40 -9 48 -12 15 -16 16 -37 7z"/>
<path d="M6739 3774 c-18 -22 -18 -92 1 -104 21 -13 54 -12 68 2 7 7 12 31 12
55 0 32 -5 45 -19 53 -28 14 -46 13 -62 -6z"/>
<path d="M6636 3480 c-55 -61 -62 -133 -13 -145 75 -19 147 93 103 160 -23 35
-48 31 -90 -15z"/>
<path d="M7044 3454 c-45 -47 -60 -74 -40 -74 17 0 86 78 86 97 0 21 -10 16
-46 -23z"/>
<path d="M6230 3431 c-14 -28 -12 -61 4 -61 15 0 39 57 30 71 -9 15 -23 10
-34 -10z"/>
<path d="M6171 3352 c-15 -29 -15 -120 1 -104 14 14 29 104 18 116 -4 4 -13
-1 -19 -12z"/>
<path d="M7010 3305 c-24 -24 -41 -47 -37 -51 7 -8 93 61 101 81 11 29 -21 14
-64 -30z"/>
<path d="M6091 3320 c-12 -11 -27 -37 -32 -57 -11 -47 -10 -151 1 -178 14 -35
33 31 25 92 -8 63 10 80 19 18 9 -60 23 -57 28 6 4 63 -2 139 -11 139 -3 -1
-17 -9 -30 -20z"/>
<path d="M6007 3184 c-4 -4 -7 -23 -7 -42 0 -25 -8 -41 -30 -60 -31 -27 -37
-55 -20 -82 9 -13 12 -12 25 5 8 11 24 31 35 43 13 15 20 37 19 60 -1 48 -12
86 -22 76z"/>
<path d="M6468 3054 c-15 -8 -46 -41 -68 -74 -22 -33 -99 -112 -170 -177 -116
-106 -130 -121 -130 -151 0 -30 2 -33 23 -27 59 18 107 46 123 72 10 15 66 76
124 134 117 118 169 192 153 217 -13 22 -24 23 -55 6z"/>
<path d="M5874 2909 c-10 -17 13 -36 27 -22 12 12 4 33 -11 33 -5 0 -12 -5
-16 -11z"/>
<path d="M6271 2686 c-23 -36 -27 -80 -11 -120 12 -34 30 -33 64 2 37 40 44
89 16 125 -28 36 -44 34 -69 -7z"/>
<path d="M6199 2483 c-19 -51 17 -81 54 -45 18 18 19 25 9 47 -16 34 -49 33
-63 -2z"/>
<path d="M6386 2319 c-9 -21 -15 -27 -19 -18 -11 29 -27 -15 -26 -76 0 -72 27
-159 51 -163 36 -7 53 44 57 170 l3 118 -26 0 c-21 0 -30 -7 -40 -31z"/>
<path d="M6011 2117 c-21 -26 -23 -74 -7 -131 24 -81 69 -97 101 -35 27 52 17
107 -28 157 -23 25 -49 28 -66 9z"/>
<path d="M8713 4295 c30 -41 299 -265 319 -265 17 0 7 20 -39 76 -81 99 -157
168 -220 202 -87 46 -101 43 -60 -13z"/>
<path d="M9487 3073 c-19 -19 -5 -33 33 -33 46 0 52 11 15 28 -30 14 -39 15
-48 5z"/>
<path d="M5231 2702 c-22 -15 12 -28 108 -41 47 -6 100 -16 118 -23 25 -9 36
-9 44 -1 19 19 2 41 -38 52 -57 15 -216 23 -232 13z"/>
<path d="M5061 2586 c-16 -19 3 -32 62 -40 55 -8 110 1 104 17 -2 6 -30 16
-63 23 -77 17 -89 17 -103 0z"/>
<path d="M4775 2431 c-30 -13 -57 -47 -53 -68 5 -25 46 -30 55 -6 4 10 16 25
27 34 12 10 17 22 13 32 -7 19 -12 20 -42 8z"/>
<path d="M4543 1840 c-25 -10 -43 -39 -43 -69 0 -27 25 -27 67 -1 18 10 47 23
65 28 23 6 34 15 36 30 3 20 -1 22 -50 21 -29 0 -63 -4 -75 -9z"/>
<path d="M6117 1113 c-34 -5 -31 -24 5 -34 34 -9 144 3 141 16 -4 20 -75 28
-146 18z"/>
<path d="M3524 2521 c-37 -22 -48 -37 -35 -45 10 -7 73 34 79 52 5 17 -8 15
-44 -7z"/>
<path d="M2324 2498 c-75 -78 -143 -216 -131 -264 3 -14 8 -9 21 21 29 71 70
145 109 197 47 61 47 95 1 46z"/>
<path d="M3325 2390 c-10 -11 -16 -23 -12 -26 9 -9 47 16 47 31 0 21 -14 19
-35 -5z"/>
<path d="M2016 2205 c-11 -30 -5 -139 10 -180 10 -25 17 -89 20 -170 3 -71 7
-136 10 -144 8 -25 34 9 34 45 0 18 4 35 9 38 10 7 21 -27 21 -67 0 -34 22
-44 58 -26 15 7 30 15 35 17 4 2 7 -4 7 -13 0 -28 19 -6 31 36 16 51 2 68 -34
44 -39 -25 -64 -7 -73 53 -10 70 -93 355 -108 370 -11 11 -14 11 -20 -3z"/>
<path d="M2244 2173 c-30 -37 -31 -42 -37 -168 -5 -116 -4 -127 8 -100 8 17
14 38 15 47 0 10 12 67 26 128 14 60 24 115 22 121 -2 6 -17 -7 -34 -28z"/>
<path d="M3399 1973 c-77 -82 -103 -123 -80 -123 23 0 126 130 119 150 -2 6
-19 -6 -39 -27z"/>
<path d="M1909 1854 c-13 -7 -36 -13 -51 -14 -71 -1 0 -76 81 -87 33 -5 40 -2
45 15 7 22 -20 88 -39 95 -6 3 -22 -1 -36 -9z"/>
<path d="M10133 1793 c-26 -45 -28 -55 -25 -141 l2 -92 -50 -84 c-48 -79 -148
-289 -176 -368 -12 -34 -4 -62 11 -38 8 12 62 13 69 1 3 -4 -26 -16 -64 -25
-84 -21 -605 -194 -672 -224 -68 -30 -63 -46 11 -37 57 7 59 6 54 -14 -3 -12
-3 -21 0 -21 2 0 74 25 158 56 85 31 208 76 274 100 104 36 120 45 118 63 -2
17 7 23 49 36 66 19 75 19 105 -5 28 -22 53 -26 53 -9 0 7 -8 18 -17 25 -17
12 -17 14 5 29 40 29 25 59 -29 57 -48 -1 -34 24 44 77 39 27 89 67 111 89
l39 41 206 1 c246 3 377 11 374 25 -1 6 -28 13 -60 17 -32 3 -96 11 -143 17
-111 14 -323 15 -315 1 4 -6 -10 -17 -31 -26 -29 -12 -43 -13 -62 -4 -22 10
-28 6 -73 -42 -26 -29 -51 -50 -54 -47 -3 3 2 25 10 49 8 23 15 46 15 51 0 20
-17 7 -35 -27 -11 -20 -21 -31 -23 -25 -8 23 20 69 60 101 41 34 78 85 78 110
0 11 -3 11 -12 2 -27 -27 -28 -9 0 42 25 46 27 56 15 72 -20 28 -16 64 16 129
16 32 27 65 24 72 -10 25 -32 12 -60 -34z"/>
<path d="M2887 1685 c-64 -19 -131 -42 -147 -50 -39 -20 -39 -39 -1 -32 19 4
33 1 41 -8 24 -28 267 -16 277 14 4 9 13 24 22 34 14 17 14 20 -2 32 -9 6 -17
20 -17 29 0 24 -39 20 -173 -19z"/>
<path d="M7303 1648 c-84 -87 -134 -168 -104 -168 5 0 41 43 80 95 101 135
110 161 24 73z"/>
<path d="M7353 1429 c-46 -13 -51 -29 -8 -29 41 0 78 16 70 31 -7 11 -19 10
-62 -2z"/>
<path d="M8045 1405 c-5 -2 -31 -6 -57 -10 -75 -10 -56 -25 30 -25 83 0 148
12 165 29 8 8 -9 11 -58 10 -39 0 -74 -2 -80 -4z"/>
<path d="M10726 1231 c-10 -15 22 -21 112 -21 94 0 135 7 126 21 -7 12 -231
12 -238 0z"/>
<path d="M12741 1229 c-13 -5 -45 -24 -70 -42 -62 -45 -133 -73 -216 -87 -80
-13 -115 -25 -115 -40 0 -5 18 -10 41 -10 45 0 83 -16 74 -31 -4 -5 -25 -9
-48 -9 -23 0 -49 -4 -57 -10 -60 -38 242 -18 398 26 64 19 61 34 -5 23 -193
-32 -207 -33 -238 -16 l-30 15 29 11 c161 62 254 114 284 159 13 20 13 22 -4
21 -11 0 -30 -5 -43 -10z"/>
<path d="M10096 1053 c-3 -4 3 -17 15 -29 12 -13 22 -33 23 -46 1 -27 45 -54
71 -44 16 6 16 8 -6 30 -13 13 -32 35 -42 50 -20 29 -51 49 -61 39z"/>
<path d="M8220 883 c0 -13 48 -23 104 -23 33 1 38 3 23 11 -26 15 -127 24
-127 12z"/>
<path d="M9211 724 c-62 -33 -62 -34 13 -34 53 0 68 3 73 16 4 11 -1 22 -12
30 -22 17 -19 17 -74 -12z"/>
<path d="M5725 730 c3 -5 29 -10 56 -10 31 0 48 4 44 10 -3 6 -29 10 -56 10
-31 0 -48 -4 -44 -10z"/>
<path d="M9540 730 c-73 -23 -120 -50 -120 -69 0 -25 55 -71 134 -110 l61 -31
90 11 c51 7 146 9 218 6 113 -5 128 -4 125 10 -3 17 -18 27 -63 44 -28 10 -28
12 -10 19 30 11 49 36 35 45 -7 4 -17 2 -23 -4 -36 -36 -312 27 -331 75 -6 15
-73 18 -116 4z m-35 -100 c3 -5 1 -10 -4 -10 -6 0 -11 5 -11 10 0 6 2 10 4 10
3 0 8 -4 11 -10z m329 -40 c5 -5 -12 -12 -39 -15 -49 -8 -95 5 -95 26 0 13
119 4 134 -11z"/>
<path d="M9323 695 c-3 -9 -3 -19 1 -22 9 -10 58 16 51 27 -10 16 -45 12 -52
-5z"/>
<path d="M5590 675 c7 -9 15 -13 17 -11 7 7 -7 26 -19 26 -6 0 -6 -6 2 -15z"/>
<path d="M10520 530 c-101 -24 -168 -30 -303 -28 -103 1 -151 -2 -159 -10 -7
-7 -18 -12 -24 -12 -7 0 -16 -5 -19 -11 -5 -7 44 -8 165 -3 132 5 174 4 180
-5 5 -10 145 -15 591 -21 416 -6 633 -13 754 -25 167 -17 400 -17 437 0 26 10
14 22 -30 29 -50 8 -505 43 -675 52 -76 4 -140 12 -144 17 -7 12 480 3 721
-14 82 -5 151 -7 154 -4 29 29 -149 37 -888 40 -399 2 -741 0 -760 -5z m15
-60 c3 -5 -1 -10 -9 -10 -9 0 -16 5 -16 10 0 6 4 10 9 10 6 0 13 -4 16 -10z
m178 3 c-7 -2 -21 -2 -30 0 -10 3 -4 5 12 5 17 0 24 -2 18 -5z m320 0 c-7 -2
-21 -2 -30 0 -10 3 -4 5 12 5 17 0 24 -2 18 -5z"/>
<path d="M9815 411 c-11 -5 -73 -12 -137 -16 -65 -4 -118 -11 -118 -16 0 -5
14 -9 30 -9 17 0 30 -4 30 -10 0 -5 -9 -10 -19 -10 -29 0 -34 -17 -7 -22 32
-6 86 2 86 13 0 5 -7 9 -15 9 -8 0 -15 5 -15 10 0 6 45 10 115 10 63 0 115 3
115 8 0 7 -37 43 -43 41 -1 0 -11 -4 -22 -8z"/>
<path d="M10770 391 c8 -6 56 -11 105 -11 50 0 169 -5 265 -10 330 -18 408
-20 363 -10 -110 24 -762 51 -733 31z"/>
<path d="M11601 351 c-10 -6 -2 -11 29 -16 26 -4 46 -3 53 4 8 8 6 11 -8 11
-11 0 -29 3 -40 5 -11 3 -26 1 -34 -4z"/>
<path d="M9405 340 c-30 -8 -30 -8 8 -9 23 -1 36 3 32 9 -3 6 -7 9 -8 9 -1 -1
-15 -5 -32 -9z"/>
<path d="M9217 334 c-4 -4 -4 -10 -2 -14 6 -10 45 0 45 11 0 10 -33 12 -43 3z"/>
<path d="M9340 329 c0 -5 5 -7 10 -4 6 3 10 8 10 11 0 2 -4 4 -10 4 -5 0 -10
-5 -10 -11z"/>
<path d="M9047 323 c-12 -11 -8 -23 8 -23 8 0 15 7 15 15 0 16 -12 20 -23 8z"/>
<path d="M9100 320 c0 -5 7 -10 15 -10 8 0 15 5 15 10 0 6 -7 10 -15 10 -8 0
-15 -4 -15 -10z"/>
<path d="M5415 310 c3 -5 8 -10 11 -10 2 0 4 5 4 10 0 6 -5 10 -11 10 -5 0 -7
-4 -4 -10z"/>
<path d="M8915 310 c-15 -7 -10 -9 23 -9 26 -1 41 3 37 9 -7 12 -32 12 -60 0z"/>
<path d="M9600 280 c-11 -7 -5 -10 23 -10 23 0 36 4 32 10 -8 13 -35 13 -55 0z"/>
<path d="M5567 273 c-4 -3 -7 -11 -7 -17 0 -6 5 -5 12 2 6 6 9 14 7 17 -3 3
-9 2 -12 -2z"/>
<path d="M9373 273 c9 -2 25 -2 35 0 9 3 1 5 -18 5 -19 0 -27 -2 -17 -5z"/>
<path d="M9748 273 c29 -2 74 -2 100 0 26 2 2 3 -53 3 -55 0 -76 -1 -47 -3z"/>
<path d="M10155 271 c-26 -11 65 -18 390 -31 473 -20 870 -52 890 -71 14 -14
-51 -11 -470 16 -410 27 -560 31 -570 15 -3 -5 1 -10 9 -10 9 0 82 -4 163 -10
82 -5 238 -14 348 -20 220 -12 349 -22 560 -46 77 -8 174 -14 215 -12 71 3 73
4 46 16 -16 7 -80 19 -143 26 -62 7 -116 16 -120 19 -3 4 36 7 88 7 256 1
-108 42 -721 81 -91 5 -228 14 -305 19 -168 11 -352 12 -380 1z"/>
<path d="M9020 260 c0 -12 37 -12 65 0 15 7 10 9 -22 9 -24 1 -43 -3 -43 -9z"/>
<path d="M9210 245 c0 -8 -4 -15 -10 -15 -23 0 -7 -19 21 -25 42 -9 59 8 34
35 -21 24 -45 26 -45 5z"/>
<path d="M9310 220 c0 -5 7 -10 15 -10 8 0 15 5 15 10 0 6 -7 10 -15 10 -8 0
-15 -4 -15 -10z"/>
<path d="M9380 220 c0 -5 9 -10 20 -10 11 0 20 5 20 10 0 6 -9 10 -20 10 -11
0 -20 -4 -20 -10z"/>
<path d="M9490 220 c0 -5 5 -10 10 -10 6 0 10 5 10 10 0 6 -4 10 -10 10 -5 0
-10 -4 -10 -10z"/>
<path d="M9530 220 c0 -5 16 -10 35 -10 19 0 35 5 35 10 0 6 -16 10 -35 10
-19 0 -35 -4 -35 -10z"/>
<path d="M9720 220 c0 -5 5 -10 11 -10 5 0 7 5 4 10 -3 6 -8 10 -11 10 -2 0
-4 -4 -4 -10z"/>
<path d="M9170 178 c0 -23 43 -50 72 -46 17 2 22 8 20 23 -7 36 -52 42 -52 6
0 -12 -5 -10 -20 9 -16 20 -20 22 -20 8z"/>
<path d="M9290 164 c0 -25 24 -49 40 -39 5 3 10 18 10 33 0 24 -1 25 -14 7
-13 -18 -13 -18 -24 1 -11 18 -11 18 -12 -2z"/>
<path d="M9620 159 c0 -5 5 -7 10 -4 6 3 10 8 10 11 0 2 -4 4 -10 4 -5 0 -10
-5 -10 -11z"/>
<path d="M9680 159 c0 -5 5 -7 10 -4 6 3 10 8 10 11 0 2 -4 4 -10 4 -5 0 -10
-5 -10 -11z"/>
<path d="M9370 140 c-13 -8 -12 -10 3 -10 9 0 17 5 17 10 0 12 -1 12 -20 0z"/>
<path d="M9456 131 c5 -5 83 -14 173 -20 178 -12 241 -31 106 -32 -156 -1 -39
-19 193 -29 125 -5 262 -13 304 -16 83 -7 168 1 168 17 0 5 -12 9 -27 9 -16 0
-48 10 -73 21 -31 15 -79 24 -155 30 -170 12 -211 11 -230 -7 -15 -15 -17 -15
-29 1 -11 15 -38 19 -177 26 -222 11 -265 11 -253 0z"/>
<path d="M8555 80 c-38 -4 111 -7 333 -8 262 -1 402 1 402 8 0 11 -615 11
-735 0z"/>
<path d="M9538 68 c8 -8 17 -8 34 0 22 10 21 11 -11 11 -27 1 -32 -2 -23 -11z"/>
</g>
</svg>
